<svg width="51" height="51" viewBox="0 0 51 51" fill="none" xmlns="http://www.w3.org/2000/svg">
<rect width="51" height="51" rx="25.5" fill="url(#paint0_linear_2118_586)"/>
<rect x="6.63" y="6.62988" width="37.6376" height="37.6376" rx="18.8188" fill="url(#paint1_linear_2118_586)"/>
<g clip-path="url(#clip0_2118_586)" filter="url(#filter0_i_2118_586)">
<g filter="url(#filter1_i_2118_586)">
<path d="M32.7561 36.1179C34.2986 35.5219 35.5181 34.3024 36.1141 32.7598C36.3963 32.0291 36.5938 31.1954 36.6474 29.9759C36.6601 29.6902 36.6699 29.4504 36.6791 29.2099V21.0619C36.6728 20.8919 36.6657 20.7149 36.6565 20.516C36.6029 19.2965 36.4054 18.4586 36.1233 17.7321C35.832 16.9611 35.3834 16.2706 34.7966 15.6972C34.2225 15.1139 33.5277 14.6611 32.7652 14.3747C32.0345 14.0926 31.2008 13.8951 29.9813 13.8415C28.7526 13.7829 28.3626 13.7695 25.2471 13.7695C22.1317 13.7695 21.7409 13.7829 20.5172 13.8365C19.2977 13.8901 18.4598 14.0876 17.7333 14.3698C16.9623 14.6611 16.2718 15.1097 15.6977 15.6972C15.1151 16.2713 14.6623 16.9661 14.3752 17.7278C14.0931 18.4586 13.8956 19.2923 13.842 20.5118C13.7834 21.7405 13.77 22.1305 13.77 25.2466C13.77 28.3628 13.7834 28.7528 13.837 29.9766C13.8906 31.1961 14.0881 32.0347 14.371 32.7605C14.6623 33.5314 15.1151 34.222 15.6977 34.7961C16.2718 35.3787 16.9666 35.8322 17.729 36.1186C18.4598 36.4007 19.2935 36.5982 20.513 36.6518C21.7367 36.7061 22.1268 36.7195 25.2429 36.7195C28.359 36.7195 28.7484 36.7061 29.9728 36.6518C31.1924 36.5982 32.0303 36.4007 32.7568 36.1186L32.7561 36.1179ZM25.2514 34.6564C22.1888 34.6564 21.8214 34.643 20.6152 34.5894C19.4945 34.5401 18.8893 34.3517 18.4858 34.1952C17.9886 34.0111 17.5358 33.7198 17.1676 33.3389C16.7867 32.9665 16.4947 32.5186 16.3113 32.0206C16.1547 31.6172 15.9664 31.0071 15.917 29.8912C15.8634 28.6809 15.85 28.3177 15.85 25.2551C15.85 22.1926 15.8634 21.8251 15.917 20.6197C15.9664 19.4989 16.1547 18.8937 16.3113 18.4903C16.4954 17.9923 16.7867 17.5395 17.1725 17.172C17.5442 16.7912 17.9928 16.4999 18.4901 16.3158C18.8935 16.1592 19.5036 15.9709 20.6195 15.9215C21.8298 15.8679 22.1931 15.8545 25.2549 15.8545C28.3167 15.8545 28.6849 15.8679 29.891 15.9215C31.0118 15.9709 31.617 16.1592 32.0204 16.3158C32.5177 16.4999 32.9705 16.7912 33.338 17.172C33.7188 17.5445 34.0109 17.9923 34.1942 18.4903C34.3508 18.8937 34.5391 19.5032 34.5885 20.6197C34.6421 21.83 34.6555 22.1933 34.6555 25.2551C34.6555 28.3169 34.6421 28.676 34.5885 29.8863C34.5391 31.0071 34.3508 31.6122 34.1942 32.0157C33.8084 33.0158 33.0149 33.8093 32.0155 34.1945C31.612 34.351 31.0026 34.5394 29.8861 34.5887C28.6757 34.6423 28.3125 34.6557 25.2507 34.6557L25.2514 34.6564Z" fill="white"/>
<path d="M25.2472 19.3496C21.9921 19.3496 19.3513 21.9904 19.3513 25.2455C19.3513 28.5005 21.9921 31.1413 25.2472 31.1413C28.5023 31.1413 31.1423 28.5005 31.1423 25.2455C31.1423 21.9904 28.5016 19.3496 25.2472 19.3496V19.3496ZM25.2472 29.069C23.1354 29.069 21.4229 27.3565 21.4229 25.2447C21.4229 23.133 23.1354 21.4205 25.2472 21.4205C27.3589 21.4205 29.0715 23.133 29.0715 25.2447C29.0715 27.3565 27.3589 29.069 25.2472 29.069Z" fill="white"/>
<path d="M32.7518 19.1173C32.7518 18.357 32.1353 17.7412 31.375 17.7412C30.6147 17.7412 29.9989 18.3577 29.9989 19.1173C29.9989 19.8769 30.6154 20.4934 31.375 20.4934C32.1346 20.4934 32.7518 19.8777 32.7518 19.1173Z" fill="white"/>
</g>
</g>
<defs>
<filter id="filter0_i_2118_586" x="13.77" y="13.7695" width="22.95" height="23.4502" filterUnits="userSpaceOnUse" color-interpolation-filters="sRGB">
<feFlood flood-opacity="0" result="BackgroundImageFix"/>
<feBlend mode="normal" in="SourceGraphic" in2="BackgroundImageFix" result="shape"/>
<feColorMatrix in="SourceAlpha" type="matrix" values="0 0 0 0 0 0 0 0 0 0 0 0 0 0 0 0 0 0 127 0" result="hardAlpha"/>
<feOffset dy="0.5"/>
<feGaussianBlur stdDeviation="1.25"/>
<feComposite in2="hardAlpha" operator="arithmetic" k2="-1" k3="1"/>
<feColorMatrix type="matrix" values="0 0 0 0 0 0 0 0 0 0 0 0 0 0 0 0 0 0 0.2 0"/>
<feBlend mode="normal" in2="shape" result="effect1_innerShadow_2118_586"/>
</filter>
<filter id="filter1_i_2118_586" x="13.77" y="13.7695" width="22.9091" height="23.4502" filterUnits="userSpaceOnUse" color-interpolation-filters="sRGB">
<feFlood flood-opacity="0" result="BackgroundImageFix"/>
<feBlend mode="normal" in="SourceGraphic" in2="BackgroundImageFix" result="shape"/>
<feColorMatrix in="SourceAlpha" type="matrix" values="0 0 0 0 0 0 0 0 0 0 0 0 0 0 0 0 0 0 127 0" result="hardAlpha"/>
<feOffset dy="0.5"/>
<feGaussianBlur stdDeviation="1.25"/>
<feComposite in2="hardAlpha" operator="arithmetic" k2="-1" k3="1"/>
<feColorMatrix type="matrix" values="0 0 0 0 0 0 0 0 0 0 0 0 0 0 0 0 0 0 0.1 0"/>
<feBlend mode="normal" in2="shape" result="effect1_innerShadow_2118_586"/>
</filter>
<linearGradient id="paint0_linear_2118_586" x1="4.28712" y1="3.34061" x2="42.1474" y2="51" gradientUnits="userSpaceOnUse">
<stop stop-color="#FBFBFC"/>
<stop offset="1" stop-color="#DBDDE8"/>
</linearGradient>
<linearGradient id="paint1_linear_2118_586" x1="25.4488" y1="5.45714" x2="25.4488" y2="46.2399" gradientUnits="userSpaceOnUse">
<stop stop-color="#FCA759"/>
<stop offset="0.19" stop-color="#E82D56"/>
<stop offset="0.74" stop-color="#A22DB4"/>
<stop offset="1" stop-color="#643DCE"/>
</linearGradient>
<clipPath id="clip0_2118_586">
<rect width="22.95" height="22.95" fill="white" transform="translate(13.77 13.7695)"/>
</clipPath>
</defs>
</svg>
