<svg width="13" height="13" viewBox="0 0 13 13" fill="none" xmlns="http://www.w3.org/2000/svg">
<path d="M10.4841 2.41895C11.1522 2.41895 11.6941 2.9608 11.6941 3.62891V9.27441C11.6939 9.94232 11.1521 10.4834 10.4841 10.4834H2.41968C1.75171 10.4834 1.20995 9.94232 1.20972 9.27441V3.62891C1.20972 2.9608 1.75157 2.41895 2.41968 2.41895H10.4841ZM2.41968 3.22559C2.19698 3.22559 2.01636 3.4062 2.01636 3.62891V9.27441C2.01659 9.49692 2.19712 9.67676 2.41968 9.67676H10.4841C10.7067 9.67676 10.8872 9.49692 10.8875 9.27441V3.62891C10.8875 3.4062 10.7068 3.22559 10.4841 3.22559H2.41968Z" fill="url(#paint0_linear_2104_1149)"/>
<path d="M6.69374 7.1775C6.5647 7.27428 6.39212 7.28396 6.25437 7.20654L6.20985 7.1775L2.98395 4.75808C2.80579 4.62446 2.76968 4.37171 2.9033 4.19355C3.02665 4.02909 3.25149 3.98567 3.42549 4.08506L3.46784 4.1129L6.45179 6.35127L9.43575 4.1129C9.60021 3.98956 9.82822 4.01083 9.96742 4.15497L10.0003 4.19355C10.1236 4.358 10.1024 4.58601 9.95822 4.72522L9.91964 4.75808L6.69374 7.1775Z" fill="url(#paint1_linear_2104_1149)"/>
<defs>
<linearGradient id="paint0_linear_2104_1149" x1="-4.03247" y1="6.45117" x2="3.76206" y2="16.5846" gradientUnits="userSpaceOnUse">
<stop stop-color="#A300FF"/>
<stop offset="0.511423" stop-color="#2C00FF"/>
<stop offset="1" stop-color="#00AFFF"/>
</linearGradient>
<linearGradient id="paint1_linear_2104_1149" x1="-0.806531" y1="5.64519" x2="1.58797" y2="11.0328" gradientUnits="userSpaceOnUse">
<stop stop-color="#A300FF"/>
<stop offset="0.511423" stop-color="#2C00FF"/>
<stop offset="1" stop-color="#00AFFF"/>
</linearGradient>
</defs>
</svg>
