<svg width="116" height="50" viewBox="0 0 116 50" fill="none" xmlns="http://www.w3.org/2000/svg">
<path d="M12.5245 21.6979C13.4736 21.6422 14.1847 21.2637 14.6565 20.5623C15.131 19.861 15.3411 18.9564 15.2855 17.8459C15.2298 16.7368 14.8513 15.5748 14.1499 14.3613C14.168 14.3252 14.1903 14.2876 14.2167 14.25C14.246 14.2097 14.2696 14.1609 14.2891 14.1053C14.8972 14.1804 15.5652 14.2987 16.293 14.4615C17.0236 14.6216 17.725 14.7927 18.3971 14.9736C19.072 15.1518 19.6273 15.3076 20.0615 15.4412C20.4984 15.5748 20.7183 15.6416 20.7183 15.6416C20.6988 16.9108 20.3913 18.0449 19.7943 19.0427C19.1959 20.0377 18.2997 20.8156 17.1057 21.375C15.9103 21.9317 14.4032 22.21 12.5858 22.21C10.8783 22.21 9.38508 21.8983 8.10481 21.2748C6.82453 20.6486 5.77248 19.8136 4.94865 18.7699C4.12482 17.7276 3.51808 16.5656 3.12843 15.2854C2.73878 14.0051 2.57318 12.7025 2.63302 11.3777C2.70677 9.6118 3.13121 8.03233 3.90773 6.64072C4.68703 5.24633 5.71681 4.108 6.99709 3.22851C8.27736 2.34623 9.7135 1.79098 11.3055 1.56415C12.8975 1.33871 14.5563 1.50013 16.2819 2.04843C17.7584 2.54245 18.8619 3.3287 19.5939 4.40859C20.3245 5.48847 20.6988 6.73953 20.7183 8.16035C20.7183 8.16035 20.5082 8.22437 20.0893 8.34961C19.6732 8.47207 19.143 8.62515 18.4973 8.80606C17.8544 8.98418 17.1725 9.15535 16.4489 9.31817C15.728 9.4782 15.0656 9.5951 14.4617 9.66885C14.406 9.57283 14.367 9.49629 14.3448 9.44063C14.3253 9.38496 14.2974 9.31817 14.2613 9.24024C14.907 8.02676 15.2479 6.88008 15.2855 5.80019C15.3217 4.72031 15.1032 3.82968 14.6286 3.12831C14.1569 2.42694 13.4555 2.05817 12.5245 2.02059C11.8454 1.98441 11.2498 2.22655 10.7377 2.7498C10.2256 3.27026 9.79282 3.98972 9.44075 4.90957C9.09145 5.82663 8.82566 6.86338 8.64475 8.02119C8.46662 9.17622 8.36643 10.3591 8.34416 11.5726C8.32468 12.8459 8.40122 14.0942 8.57238 15.3188C8.74216 16.5406 9.00239 17.6386 9.35168 18.6141C9.70376 19.591 10.1449 20.3592 10.6765 20.9186C11.2067 21.4752 11.8232 21.7355 12.5245 21.6979Z" fill="white"/>
<path d="M35.9605 20.8741L37.2964 21.7814V22.21C37.2964 22.21 36.968 22.2044 36.3112 22.1933C35.6571 22.185 34.715 22.1822 33.4834 22.1822C32.2505 22.1822 31.2972 22.185 30.6223 22.1933C29.9501 22.2044 29.6148 22.21 29.6148 22.21L29.5869 21.7814L31.0954 20.8741C31.0954 20.4775 31.0954 19.9194 31.0954 19.1986C31.0954 18.4749 31.0982 17.6734 31.1066 16.7939C31.1177 15.9116 31.1177 15.0112 31.1066 14.0942C31.0982 13.1743 31.0899 12.3213 31.0787 11.5336C31.0704 10.7474 31.0579 10.0891 31.0398 9.55754C31.0203 9.02734 30.9924 8.70448 30.9563 8.58898C30.8408 8.26613 30.5944 8.03512 30.2159 7.89318C29.8374 7.74845 29.4199 7.7067 28.9635 7.76515C28.507 7.82082 28.0896 7.98224 27.711 8.24943C27.3325 8.51383 27.0848 8.88261 26.9707 9.35715C26.9707 10.7237 26.9707 12.0833 26.9707 13.4373C26.9707 14.7928 26.9707 16.0341 26.9707 17.1613C26.9707 18.2899 26.9707 19.1916 26.9707 19.8665C26.9707 20.5387 26.9707 20.8741 26.9707 20.8741L28.3067 21.7814V22.21C28.3067 22.21 27.9838 22.2044 27.3381 22.1933C26.6952 22.185 25.7586 22.1822 24.5271 22.1822C23.2941 22.1822 22.3408 22.185 21.6659 22.1933C20.9938 22.2044 20.6584 22.21 20.6584 22.21L20.6306 21.7814L22.1391 20.8741V1.30811L20.831 0.428614V0.0278321C20.831 0.0278321 21.0383 0.0250491 21.4544 0.0166993C21.8733 0.00556642 22.3701 0 22.9462 0C23.5251 0 24.0511 0 24.5271 0C24.8123 0 25.0809 0 25.3342 0C25.5902 0 25.8143 0 26.0077 0C26.3083 0.0194823 26.5477 0.109937 26.7258 0.272754C26.9067 0.432789 26.9888 0.673536 26.9707 0.996389C26.9707 1.08963 26.9707 1.48623 26.9707 2.1876C26.9707 2.88897 26.9707 3.77681 26.9707 4.84835C26.9707 5.92128 26.9707 7.09162 26.9707 8.36076C27.3117 7.81247 27.8057 7.35741 28.4514 6.99699C29.0971 6.63795 29.7985 6.39025 30.5555 6.25665C31.3125 6.12306 32.0501 6.12306 32.7709 6.25665C33.4946 6.39025 34.1249 6.66718 34.6635 7.08605C35.2048 7.50214 35.5611 8.088 35.7323 8.84504C35.7879 9.08996 35.8297 9.33766 35.8603 9.58537C35.8895 9.83029 35.9132 10.181 35.9326 10.6374C35.9507 11.0911 35.9605 11.7257 35.9605 12.5411C35.9605 13.358 35.9605 14.4337 35.9605 15.7697C35.9605 17.1056 35.9605 18.8075 35.9605 20.8741Z" fill="white"/>
<path d="M50.6629 21.7535V22.1821C50.6629 22.1821 50.2245 22.1793 49.3492 22.1709C48.4767 22.1598 47.4246 22.1542 46.193 22.1542C45.6434 22.1542 45.1132 22.1598 44.601 22.1709C44.0889 22.1793 43.8329 22.1821 43.8329 22.1821V20.5901C43.2651 21.3471 42.5971 21.869 41.829 22.1542C41.0608 22.4395 40.3107 22.5008 39.5801 22.3379C38.8523 22.1793 38.2456 21.7966 37.7599 21.1913C37.277 20.5831 37.0363 19.7663 37.0363 18.742C37.0363 17.8111 37.2311 17.0665 37.6208 16.5099C38.0104 15.9505 38.503 15.4996 39.1014 15.1573C39.6984 14.8163 40.3149 14.5324 40.9495 14.3056C41.5841 14.0802 42.1657 13.8478 42.6973 13.6098C43.2275 13.3732 43.6158 13.0643 43.8607 12.6858C43.883 11.2427 43.883 10.1364 43.8607 9.36819C43.8412 8.60002 43.8078 8.04199 43.7605 7.6927C43.716 7.34062 43.6353 7.06926 43.5212 6.88C43.4098 6.67265 43.1872 6.53488 42.8532 6.46808C42.522 6.40129 42.181 6.44443 41.829 6.59611C41.4797 6.74919 41.2083 7.04421 41.0163 7.48117C40.827 7.91535 40.802 8.52209 40.9439 9.30139C41.0886 10.0779 41.4839 11.0715 42.1296 12.285C42.0141 12.4005 41.9013 12.4951 41.79 12.5689C41.2779 12.4951 40.7226 12.3908 40.1256 12.2572C39.5273 12.1236 38.9762 11.9872 38.4724 11.8452C37.9714 11.7047 37.5874 11.5948 37.3202 11.5168C37.2269 11.4806 37.156 11.4055 37.1087 11.2942C37.0599 11.1801 37.0363 11.0826 37.0363 11.0047C37.1142 9.9624 37.412 9.09961 37.9325 8.41633C38.4557 7.73444 39.1014 7.20285 39.8696 6.82434C40.6378 6.44582 41.4616 6.21064 42.3411 6.1174C43.2234 6.02138 44.0722 6.04921 44.8849 6.2009C45.7004 6.35397 46.4115 6.61838 47.0169 6.99689C47.625 7.37541 48.0327 7.84021 48.2415 8.3885C48.4488 8.86443 48.5769 9.45168 48.6256 10.1531C48.6729 10.8544 48.6979 11.6783 48.6979 12.6245C48.6979 12.8917 48.6979 13.3398 48.6979 13.966C48.6979 14.5895 48.6979 15.2909 48.6979 16.0702C48.6979 16.8467 48.6924 17.5995 48.6812 18.3301C48.6729 19.0579 48.6701 19.6591 48.6701 20.1336C48.6701 20.6096 48.6701 20.8461 48.6701 20.8461L50.6629 21.7535ZM41.4449 17.8013C41.4449 18.6738 41.5854 19.3042 41.8679 19.6939C42.1532 20.0835 42.4858 20.3034 42.8643 20.3507C43.2456 20.3953 43.5685 20.3326 43.8329 20.1615C43.8329 20.1615 43.8329 19.9597 43.8329 19.5547C43.8329 19.147 43.8357 18.6349 43.844 18.0184C43.8552 17.3991 43.8607 16.759 43.8607 16.098C43.8607 15.4342 43.8607 14.833 43.8607 14.2945C43.8607 13.7531 43.8607 13.3677 43.8607 13.1367C43.5601 13.5569 43.2178 13.9549 42.8365 14.3334C42.458 14.7119 42.131 15.167 41.8568 15.6972C41.5813 16.2288 41.4449 16.9302 41.4449 17.8013Z" fill="white"/>
<path d="M56.5194 6.79651C57.2569 6.38181 58.0529 6.12158 58.9074 6.01721C59.7604 5.91006 60.4896 5.93233 61.095 6.08401C61.095 6.10349 61.0894 6.27049 61.0783 6.58499C61.0699 6.89671 61.0672 7.28079 61.0672 7.73724C61.0672 8.1909 61.0616 8.64456 61.0505 9.10101C61.0421 9.55467 61.0393 9.93875 61.0393 10.2533C61.0393 10.565 61.0393 10.7306 61.0393 10.7487C60.9419 10.7125 60.7847 10.5566 60.5662 10.2811C60.3505 10.0069 60.1 9.67157 59.8147 9.27357C59.5322 8.87279 59.2483 8.48314 58.963 8.10462C58.6764 7.7261 58.4148 7.40882 58.1782 7.15276C57.9444 6.89671 57.751 6.76868 57.5993 6.76868C57.0872 6.84383 56.7267 7.15694 56.5194 7.7094C56.5194 8.19925 56.5194 8.86722 56.5194 9.71331C56.5194 10.5566 56.5194 11.4709 56.5194 12.4576C56.5194 13.4414 56.5222 14.4267 56.5305 15.4133C56.5417 16.4014 56.5472 17.3059 56.5472 18.1297C56.5472 18.9536 56.5472 19.6188 56.5472 20.1225C56.5472 20.6235 56.5472 20.874 56.5472 20.874L57.8553 21.7813V22.2099H50.2015L50.1737 21.7813L51.6822 20.874V7.25296L50.3741 6.4013V5.97268C50.3741 5.97268 50.5355 5.97268 50.8583 5.97268C51.1812 5.97268 51.5875 5.97268 52.0774 5.97268C52.57 5.97268 53.0682 5.97268 53.5692 5.97268C54.073 5.97268 54.5155 5.97268 54.894 5.97268C55.2753 5.97268 55.5035 5.97268 55.5787 5.97268C56.1645 5.97268 56.4776 6.24822 56.5194 6.79651Z" fill="white"/>
<path d="M68.1768 21.7814V22.1822C68.1768 22.1822 67.854 22.1822 67.2083 22.1822C66.5626 22.1822 65.6232 22.1822 64.3916 22.1822C63.1587 22.1822 62.2013 22.1822 61.5194 22.1822C60.8361 22.1822 60.4952 22.1822 60.4952 22.1822V21.7814L62.0037 20.8741V1.30811L60.6956 0.428614V0.0278321C60.6956 0.0278321 60.9029 0.0250491 61.319 0.0166993C61.7379 0.00556642 62.2374 0 62.8164 0C63.3953 0 63.9199 0 64.3916 0C64.6769 0 64.9483 0 65.2043 0C65.4604 0 65.6831 0 65.8723 0C66.1757 0.0194823 66.4178 0.109937 66.596 0.272754C66.7769 0.432789 66.859 0.673536 66.8409 0.996389C66.8409 1.10772 66.8409 1.55303 66.8409 2.33233C66.8409 3.10884 66.8409 4.0941 66.8409 5.2881C66.8409 6.48348 66.8409 7.77907 66.8409 9.17346C66.8409 10.5651 66.8409 11.9497 66.8409 13.326C66.8409 14.6995 66.8409 15.9561 66.8409 17.0945C66.8409 18.23 66.8409 19.1457 66.8409 19.8387C66.8409 20.5289 66.8409 20.8741 66.8409 20.8741L68.1768 21.7814Z" fill="white"/>
<path d="M75.2302 6.36789C77.7685 6.36789 79.5525 7.047 80.5851 8.4052C81.6205 9.76062 82.1381 11.7089 82.1381 14.2499C82.1381 15.8976 81.9183 17.3101 81.4813 18.486C81.0471 19.6633 80.3263 20.565 79.3215 21.1913C78.3196 21.8147 76.9558 22.1264 75.2302 22.1264C72.973 22.1264 71.2474 21.5113 70.0534 20.2784C68.858 19.0468 68.2694 16.9803 68.2889 14.0774C68.3251 11.5544 68.8747 9.63955 69.9365 8.33284C70.9969 7.02334 72.7615 6.36789 75.2302 6.36789ZM75.2302 6.94123C74.8475 6.94123 74.5344 7.14023 74.2895 7.53684C74.0446 7.93484 73.8456 8.44695 73.6939 9.07317C73.5408 9.69661 73.4323 10.359 73.3655 11.0604C73.2987 11.7618 73.2597 12.4269 73.2486 13.0532C73.2402 13.6808 73.2374 14.1831 73.2374 14.5617C73.2374 14.9221 73.2458 15.3911 73.2653 15.97C73.2834 16.5489 73.3293 17.1612 73.4044 17.8069C73.4823 18.4498 73.5909 19.0538 73.7328 19.6215C73.8776 20.1893 74.0724 20.6555 74.3173 21.0187C74.565 21.3791 74.8698 21.5586 75.2302 21.5586C75.6087 21.5586 75.9163 21.3694 76.1542 20.9909C76.3908 20.6096 76.5842 20.1197 76.7331 19.5213C76.8848 18.9243 76.9975 18.2898 77.0727 17.6176C77.1506 16.9469 77.1979 16.3081 77.2174 15.7028C77.2355 15.0946 77.2452 14.6104 77.2452 14.2499C77.2452 13.8909 77.2355 13.408 77.2174 12.8027C77.1979 12.1945 77.1506 11.5544 77.0727 10.8823C76.9975 10.2073 76.8848 9.57137 76.7331 8.97298C76.5842 8.37598 76.3908 7.88753 76.1542 7.50901C75.9163 7.13049 75.6087 6.94123 75.2302 6.94123Z" fill="white"/>
<path d="M90.7822 5.94485V6.45696H88.6781C88.6781 7.57442 88.6808 8.85469 88.6892 10.2978C88.7003 11.7381 88.7059 13.2257 88.7059 14.7621C88.7059 16.2956 88.7059 17.793 88.7059 19.2542C88.7059 19.3877 88.7087 19.6021 88.717 19.8943C88.7281 20.1879 88.7365 20.4621 88.7449 20.7181C88.756 20.9742 88.7616 21.1022 88.7616 21.1022L91.2108 19.4824L91.6617 19.8219C90.7891 20.4871 90.0446 21.0507 89.4295 21.5141C88.813 21.9789 88.1353 22.2099 87.3978 22.2099C86.2984 22.2099 85.4885 22.0123 84.9652 21.6143C84.4448 21.2177 84.1094 20.6499 83.9577 19.911C83.8047 19.1693 83.7476 18.2912 83.7852 17.2781C83.8255 16.2622 83.8464 15.1378 83.8464 13.9048C83.8464 13.0142 83.8464 11.9872 83.8464 10.821C83.8464 9.65625 83.8464 8.20203 83.8464 6.45696H82.7331V5.94485H83.8464C83.8464 5.56633 83.8464 5.11823 83.8464 4.59777C83.8464 4.07453 83.8464 3.60417 83.8464 3.1839L82.5327 2.33224V1.90363C82.5327 1.90363 82.7456 1.90084 83.1729 1.89249C83.5987 1.88136 84.1025 1.8758 84.6814 1.8758C85.2603 1.8758 85.7779 1.8758 86.2344 1.8758C86.5155 1.8758 86.7855 1.8758 87.0415 1.8758C87.2976 1.8758 87.5286 1.88554 87.7373 1.90363C88.383 1.90363 88.7059 2.22648 88.7059 2.87218C88.6864 2.9696 88.6781 3.31611 88.6781 3.9131C88.6781 4.50732 88.6781 5.18503 88.6781 5.94485H90.7822Z" fill="white"/>
<path d="M100.251 5.94485V6.45696H98.1472C98.1472 7.57442 98.15 8.85469 98.1583 10.2978C98.1694 11.7381 98.175 13.2257 98.175 14.7621C98.175 16.2956 98.175 17.793 98.175 19.2542C98.175 19.3877 98.1778 19.6021 98.1861 19.8943C98.1973 20.1879 98.2056 20.4621 98.214 20.7181C98.2251 20.9742 98.2307 21.1022 98.2307 21.1022L100.68 19.4824L101.131 19.8219C100.258 20.4871 99.5137 21.0507 98.8986 21.5141C98.2822 21.9789 97.6045 22.2099 96.8669 22.2099C95.7675 22.2099 94.9576 22.0123 94.4344 21.6143C93.9139 21.2177 93.5785 20.6499 93.4269 19.911C93.2738 19.1693 93.2167 18.2912 93.2543 17.2781C93.2947 16.2622 93.3155 15.1378 93.3155 13.9048C93.3155 13.0142 93.3155 11.9872 93.3155 10.821C93.3155 9.65625 93.3155 8.20203 93.3155 6.45696H92.2022V5.94485H93.3155C93.3155 5.56633 93.3155 5.11823 93.3155 4.59777C93.3155 4.07453 93.3155 3.60417 93.3155 3.1839L92.0019 2.33224V1.90363C92.0019 1.90363 92.2148 1.90084 92.642 1.89249C93.0678 1.88136 93.5716 1.8758 94.1505 1.8758C94.7294 1.8758 95.2471 1.8758 95.7035 1.8758C95.9846 1.8758 96.2546 1.8758 96.5107 1.8758C96.7667 1.8758 96.9977 1.88554 97.2065 1.90363C97.8522 1.90363 98.175 2.22648 98.175 2.87218C98.1555 2.9696 98.1472 3.31611 98.1472 3.9131C98.1472 4.50732 98.1472 5.18503 98.1472 5.94485H100.251Z" fill="white"/>
<path d="M115.125 10.8044C115.125 10.8824 115.1 10.9798 115.053 11.0939C115.004 11.2052 114.933 11.2804 114.841 11.3165C114.688 11.3583 114.37 11.5058 113.884 11.7619C113.401 12.0179 112.818 12.3324 112.136 12.7026C111.453 13.07 110.756 13.4429 110.043 13.8214C109.334 14.1999 108.666 14.5325 108.039 14.8178C107.416 15.1003 106.923 15.2896 106.564 15.3856C106.772 16.5991 107.184 17.5008 107.8 18.0909C108.415 18.6781 109.111 18.9982 109.887 19.0539C110.667 19.1095 111.425 18.9578 112.164 18.5974C112.906 18.2384 113.513 17.7263 113.984 17.0611L114.329 17.2058C113.929 18.5529 113.329 19.6202 112.531 20.4065C111.737 21.1941 110.842 21.7202 109.848 21.9874C108.853 22.2504 107.853 22.2726 106.848 22.0542C105.842 21.8357 104.907 21.3848 104.043 20.7015C103.181 20.0196 102.485 19.1248 101.955 18.0185C101.424 16.9094 101.159 15.6055 101.159 14.1053C101.159 12.5328 101.406 11.1969 101.9 10.0975C102.392 8.99534 103.027 8.1242 103.803 7.48128C104.619 6.77991 105.519 6.29841 106.503 6.03401C107.49 5.76682 108.471 5.68611 109.448 5.78908C110.427 5.89346 111.332 6.16482 112.164 6.60178C112.999 7.03596 113.681 7.6093 114.212 8.32181C114.743 9.03152 115.047 9.85814 115.125 10.8044ZM111.769 7.99339C111.883 7.5926 111.836 7.2614 111.624 6.997C111.415 6.72981 111.113 6.55447 110.717 6.46819C110.319 6.3833 109.896 6.40417 109.448 6.52942C109.002 6.65188 108.61 6.90237 108.273 7.28088C107.779 7.83057 107.346 8.63631 106.976 9.69671C106.605 10.7585 106.42 12.0847 106.42 13.6767C106.42 13.8479 106.425 14.019 106.436 14.1888C106.447 14.36 106.461 14.5214 106.481 14.6731C108.28 12.8737 109.567 11.4487 110.344 10.3981C111.123 9.34463 111.598 8.54307 111.769 7.99339Z" fill="white"/>
<path d="M14.5752 39.1296C15.4464 39.8686 16.067 40.7133 16.4344 41.6624C16.8046 42.6087 16.9145 43.5522 16.7628 44.4901C16.6098 45.4294 16.1742 46.2686 15.4547 47.0061C15.0011 47.4626 14.3762 47.8522 13.5788 48.1751C12.7801 48.4951 11.8783 48.7359 10.8736 48.8987C9.87161 49.0587 8.83904 49.1325 7.77864 49.1214C6.71684 49.113 5.69262 49.0156 4.70597 48.8263C3.71793 48.6371 2.84122 48.3532 2.07306 47.9747C1.30489 47.5934 0.72181 47.1091 0.325203 46.5218C0.0427073 46.0877 -0.0560963 45.6145 0.030183 45.1024C0.115071 44.5903 0.298763 44.0698 0.581258 43.5382C0.866537 43.008 1.17408 42.4918 1.50528 41.9908C1.83927 41.487 2.10924 41.0361 2.31798 40.6381C2.40983 40.6381 2.49332 40.6381 2.56847 40.6381C2.6464 40.6381 2.70345 40.6381 2.74103 40.6381C2.95255 42.5906 3.31437 44.1547 3.82648 45.3306C4.33859 46.5038 4.92446 47.3457 5.58547 47.8578C6.24926 48.3699 6.89497 48.6259 7.52258 48.6259C8.07087 48.6259 8.62056 48.4645 9.17024 48.1417C9.71853 47.8188 10.168 47.3832 10.5173 46.8336C10.8694 46.2853 11.0364 45.6688 11.0183 44.9855C10.9988 44.3036 10.7066 43.6023 10.1388 42.8814C9.93006 42.6184 9.58911 42.3498 9.11458 42.0743C8.63865 41.796 8.13628 41.5204 7.60608 41.2449C7.07448 40.9707 6.59299 40.6924 6.15881 40.4099C5.49362 39.9535 4.81452 39.5221 4.1215 39.1129C3.43126 38.7052 2.78695 38.2752 2.18995 37.8215C1.59156 37.3651 1.11285 36.853 0.753817 36.2852C0.393392 35.7174 0.213875 35.0439 0.213875 34.2646C0.213875 33.3002 0.525594 32.4486 1.14903 31.7096C1.77525 30.9679 2.60465 30.3458 3.63722 29.8449C4.67257 29.3411 5.79699 28.9751 7.01047 28.7483C8.22395 28.5228 9.43186 28.4574 10.6342 28.5534C11.8393 28.6467 12.9345 28.9125 13.9184 29.3494C14.905 29.7836 15.6635 30.4182 16.1951 31.2532C16.4803 31.6693 16.5805 32.1327 16.4956 32.6448C16.4094 33.1569 16.2243 33.6843 15.939 34.2256C15.6523 34.7642 15.349 35.286 15.0261 35.7898C14.706 36.2908 14.4416 36.7403 14.2301 37.1369C14.1744 37.1369 14.1035 37.1369 14.0186 37.1369C13.9323 37.1369 13.8627 37.1369 13.8071 37.1369C13.5399 34.5401 12.9276 32.5487 11.9701 31.1641C11.0127 29.7808 9.94675 29.06 8.77502 29.0043C8.31858 28.9862 7.81899 29.1379 7.27766 29.4608C6.73911 29.7836 6.2757 30.2067 5.88605 30.7299C5.4964 31.2504 5.30158 31.7931 5.30158 32.3609C5.30158 32.9287 5.49919 33.4324 5.89719 33.8694C6.29797 34.3036 6.83374 34.7071 7.50588 35.0773C8.18081 35.4447 8.92532 35.8232 9.73801 36.2128C10.5535 36.6025 11.3801 37.0297 12.2151 37.4931C13.05 37.9579 13.8363 38.5034 14.5752 39.1296Z" fill="white"/>
<path d="M25.1794 32.8732V33.3853H23.0753C23.0753 34.5027 23.0781 35.783 23.0864 37.2261C23.0976 38.6664 23.1031 40.154 23.1031 41.6904C23.1031 43.2239 23.1031 44.7213 23.1031 46.1825C23.1031 46.3161 23.1059 46.5304 23.1143 46.8226C23.1254 47.1162 23.1338 47.3904 23.1421 47.6464C23.1532 47.9025 23.1588 48.0305 23.1588 48.0305L25.608 46.4107L26.0589 46.7502C25.1864 47.4154 24.4419 47.979 23.8268 48.4424C23.2103 48.9072 22.5326 49.1382 21.795 49.1382C20.6957 49.1382 19.8858 48.9406 19.3625 48.5426C18.8421 48.146 18.5067 47.5783 18.355 46.8393C18.2019 46.0976 18.1449 45.2195 18.1824 44.2064C18.2228 43.1905 18.2437 42.0661 18.2437 40.8331C18.2437 39.9425 18.2437 38.9155 18.2437 37.7493C18.2437 36.5846 18.2437 35.1304 18.2437 33.3853H17.1304V32.8732H18.2437C18.2437 32.4947 18.2437 32.0466 18.2437 31.5261C18.2437 31.0029 18.2437 30.5325 18.2437 30.1122L16.93 29.2606V28.8319C16.93 28.8319 17.1429 28.8292 17.5701 28.8208C17.996 28.8097 18.4997 28.8041 19.0786 28.8041C19.6575 28.8041 20.1752 28.8041 20.6317 28.8041C20.9128 28.8041 21.1827 28.8041 21.4388 28.8041C21.6948 28.8041 21.9258 28.8139 22.1346 28.8319C22.7803 28.8319 23.1031 29.1548 23.1031 29.8005C23.0837 29.8979 23.0753 30.2444 23.0753 30.8414C23.0753 31.4356 23.0753 32.1134 23.0753 32.8732H25.1794Z" fill="white"/>
<path d="M40.0535 37.7325C40.0535 37.8104 40.0285 37.9078 39.9812 38.0219C39.9325 38.1333 39.8615 38.2084 39.7696 38.2446C39.6166 38.2863 39.2979 38.4339 38.8122 38.6899C38.3293 38.946 37.7463 39.2605 37.0644 39.6306C36.3811 39.998 35.6839 40.371 34.9714 40.7495C34.2617 41.128 33.5937 41.4606 32.9675 41.7459C32.344 42.0284 31.8514 42.2176 31.4924 42.3137C31.6997 43.5271 32.1116 44.4289 32.7281 45.0189C33.3432 45.6062 34.039 45.9263 34.8155 45.9819C35.5948 46.0376 36.3533 45.8859 37.0922 45.5255C37.8339 45.1664 38.4407 44.6543 38.9124 43.9891L39.2575 44.1339C38.8568 45.4809 38.257 46.5483 37.4596 47.3346C36.665 48.1222 35.7702 48.6482 34.7766 48.9154C33.7816 49.1784 32.781 49.2007 31.7763 48.9822C30.7701 48.7637 29.835 48.3129 28.9708 47.6296C28.1094 46.9477 27.4136 46.0529 26.8834 44.9466C26.3518 43.8375 26.0874 42.5335 26.0874 41.0334C26.0874 39.4609 26.3337 38.1249 26.8277 37.0256C27.3204 35.9234 27.9549 35.0523 28.7314 34.4093C29.5469 33.708 30.4473 33.2265 31.4312 32.9621C32.4178 32.6949 33.3989 32.6142 34.3758 32.7171C35.3555 32.8215 36.26 33.0929 37.0922 33.5298C37.9272 33.964 38.609 34.5374 39.1406 35.2499C39.6708 35.9596 39.9756 36.7862 40.0535 37.7325ZM36.697 34.9214C36.8111 34.5207 36.7638 34.1895 36.5523 33.9251C36.3435 33.6579 36.0415 33.4825 35.6449 33.3962C35.2469 33.3114 34.8239 33.3322 34.3758 33.4575C33.9305 33.5799 33.538 33.8304 33.2013 34.2089C32.7073 34.7586 32.2745 35.5644 31.9043 36.6248C31.5327 37.6866 31.3477 39.0128 31.3477 40.6048C31.3477 40.7759 31.3532 40.9471 31.3644 41.1169C31.3755 41.288 31.3894 41.4495 31.4089 41.6011C33.2082 39.8018 34.4955 38.3768 35.272 37.3261C36.0513 36.2727 36.5258 35.4711 36.697 34.9214Z" fill="white"/>
<path d="M53.619 48.6818V49.1104C53.619 49.1104 53.1807 49.1076 52.3053 49.0993C51.4328 49.0881 50.3808 49.0826 49.1492 49.0826C48.5995 49.0826 48.0693 49.0881 47.5572 49.0993C47.0451 49.1076 46.789 49.1104 46.789 49.1104V47.5184C46.2213 48.2754 45.5533 48.7973 44.7851 49.0826C44.0169 49.3679 43.2669 49.4291 42.5363 49.2663C41.8085 49.1076 41.2017 48.7249 40.7161 48.1196C40.2332 47.5114 39.9924 46.6946 39.9924 45.6704C39.9924 44.7394 40.1873 43.9949 40.5769 43.4382C40.9666 42.8788 41.4592 42.4279 42.0576 42.0856C42.6546 41.7446 43.271 41.4608 43.9056 41.2339C44.5402 41.0085 45.1219 40.7761 45.6535 40.5381C46.1837 40.3015 46.5719 39.9926 46.8169 39.6141C46.8391 38.171 46.8391 37.0647 46.8169 36.2965C46.7974 35.5283 46.764 34.9703 46.7167 34.621C46.6721 34.2689 46.5914 33.9976 46.4773 33.8083C46.366 33.601 46.1433 33.4632 45.8093 33.3964C45.4781 33.3296 45.1372 33.3727 44.7851 33.5244C44.4358 33.6775 44.1645 33.9725 43.9724 34.4095C43.7832 34.8437 43.7581 35.4504 43.9001 36.2297C44.0448 37.0062 44.44 37.9998 45.0857 39.2133C44.9702 39.3288 44.8575 39.4234 44.7461 39.4972C44.234 39.4234 43.6788 39.3191 43.0818 39.1855C42.4834 39.0519 41.9323 38.9155 41.4286 38.7736C40.9276 38.633 40.5435 38.5231 40.2763 38.4451C40.1831 38.409 40.1121 38.3338 40.0648 38.2225C40.0161 38.1084 39.9924 38.011 39.9924 37.933C40.0704 36.8907 40.3682 36.0279 40.8886 35.3447C41.4119 34.6628 42.0576 34.1312 42.8257 33.7527C43.5939 33.3741 44.4177 33.139 45.2972 33.0457C46.1795 32.9497 47.0284 32.9775 47.8411 33.1292C48.6566 33.2823 49.3677 33.5467 49.973 33.9252C50.5811 34.3037 50.9889 34.7685 51.1976 35.3168C51.405 35.7928 51.533 36.38 51.5817 37.0814C51.629 37.7827 51.6541 38.6066 51.6541 39.5529C51.6541 39.8201 51.6541 40.2682 51.6541 40.8944C51.6541 41.5178 51.6541 42.2192 51.6541 42.9985C51.6541 43.775 51.6485 44.5279 51.6374 45.2584C51.629 45.9863 51.6262 46.5874 51.6262 47.062C51.6262 47.5379 51.6262 47.7745 51.6262 47.7745L53.619 48.6818ZM44.401 44.7296C44.401 45.6022 44.5416 46.2326 44.8241 46.6222C45.1094 47.0119 45.442 47.2317 45.8205 47.2791C46.2018 47.3236 46.5246 47.261 46.789 47.0898C46.789 47.0898 46.789 46.888 46.789 46.4831C46.789 46.0753 46.7918 45.5632 46.8002 44.9467C46.8113 44.3275 46.8169 43.6873 46.8169 43.0263C46.8169 42.3625 46.8169 41.7613 46.8169 41.2228C46.8169 40.6815 46.8169 40.296 46.8169 40.065C46.5163 40.4852 46.1739 40.8832 45.7926 41.2618C45.4141 41.6403 45.0871 42.0953 44.8129 42.6255C44.5374 43.1571 44.401 43.8585 44.401 44.7296Z" fill="white"/>
<path d="M77.5051 47.8021L78.8411 48.7095V49.1381H71.1594L71.1316 48.7095L72.6401 47.8021C72.6401 45.6799 72.6401 43.9933 72.6401 42.7423C72.6401 41.4884 72.6401 40.5435 72.6401 39.909C72.6401 39.2744 72.6401 38.8291 72.6401 38.573C72.6401 38.317 72.6401 38.1138 72.6401 37.9607C72.6401 37.2788 72.6401 36.7862 72.6401 36.4856C72.6401 36.1822 72.6304 35.9735 72.6123 35.8622C72.5928 35.7481 72.5566 35.6325 72.5009 35.517C72.3854 35.1761 72.1182 34.9381 71.6994 34.8045C71.2833 34.671 70.8282 34.6431 70.3356 34.7211C69.8416 34.7962 69.4088 34.9994 69.0386 35.3334C68.6712 35.6646 68.4778 36.1335 68.4597 36.7417C68.4778 37.0242 68.4903 37.4027 68.4987 37.8772C68.5098 38.3531 68.5154 39.0016 68.5154 39.8255C68.5154 40.6493 68.5154 41.7069 68.5154 42.9983C68.5154 44.2869 68.5154 45.8873 68.5154 47.8021L69.8513 48.7095V49.1381H62.1752L62.1474 48.7095L63.6559 47.8021C63.6559 47.4055 63.6559 46.8475 63.6559 46.1266C63.6559 45.403 63.6587 44.6014 63.667 43.7219C63.6782 42.8397 63.6782 41.9393 63.667 41.0222C63.6587 40.1024 63.6503 39.2493 63.6392 38.4617C63.6309 37.6754 63.6169 37.0172 63.5947 36.4856C63.5752 35.9554 63.5474 35.6325 63.5112 35.517C63.3957 35.1942 63.1521 34.9632 62.782 34.8212C62.4146 34.6765 62.0027 34.6348 61.5462 34.6932C61.0926 34.7489 60.6779 34.9047 60.2994 35.1608C59.9208 35.4169 59.6648 35.7731 59.5312 36.2295C59.5312 37.084 59.534 38.0219 59.5423 39.0462C59.5535 40.0676 59.559 41.0946 59.559 42.13C59.559 43.1625 59.559 44.1046 59.559 44.9577C59.559 45.8121 59.559 46.4996 59.559 47.0228C59.559 47.5433 59.559 47.8021 59.559 47.8021L60.895 48.7095V49.1381H53.2189L53.191 48.7095L54.694 47.8021V34.1533L53.3859 33.296V32.873C53.3859 32.873 53.5473 32.873 53.8701 32.873C54.193 32.873 54.6007 32.873 55.0947 32.873C55.5874 32.873 56.0856 32.873 56.5866 32.873C57.0875 32.873 57.5273 32.873 57.9058 32.873C58.2871 32.873 58.5153 32.873 58.5905 32.873C59.2362 32.873 59.559 33.1945 59.559 33.836C59.559 34.0294 59.559 34.1588 59.559 34.2256C59.559 34.2896 59.5535 34.3843 59.5423 34.5095C59.534 34.632 59.5312 34.8825 59.5312 35.261C60.0614 34.4455 60.7391 33.8861 61.5629 33.5855C62.3868 33.2821 63.283 33.1291 64.2515 33.1291C65.2757 33.1291 66.1413 33.31 66.851 33.669C67.5635 34.0294 68.0422 34.7127 68.2872 35.7174C68.4013 35.3167 68.6629 34.9187 69.072 34.5207C69.4798 34.1241 70.0294 33.7942 70.7197 33.5298C71.4127 33.2626 72.2421 33.1291 73.2079 33.1291C74.2683 33.1291 75.1506 33.3155 75.8519 33.6857C76.5533 34.0531 77.0278 34.7489 77.2769 35.7731C77.3131 35.9624 77.3451 36.1767 77.3716 36.4132C77.4008 36.6512 77.4244 36.9977 77.4439 37.4542C77.4662 37.9078 77.4801 38.5452 77.4884 39.369C77.4996 40.1928 77.5051 41.288 77.5051 42.6532C77.5051 44.0197 77.5051 45.7356 77.5051 47.8021Z" fill="white"/>
<path d="M92.5748 37.7325C92.5748 37.8104 92.5497 37.9078 92.5024 38.0219C92.4537 38.1333 92.3827 38.2084 92.2909 38.2446C92.1378 38.2863 91.8191 38.4339 91.3334 38.6899C90.8506 38.946 90.2675 39.2605 89.5856 39.6306C88.9023 39.998 88.2051 40.371 87.4926 40.7495C86.7829 41.128 86.1149 41.4606 85.4887 41.7459C84.8653 42.0284 84.3726 42.2176 84.0136 42.3137C84.221 43.5271 84.6329 44.4289 85.2494 45.0189C85.8644 45.6062 86.5602 45.9263 87.3368 45.9819C88.1161 46.0376 88.8745 45.8859 89.6134 45.5255C90.3551 45.1664 90.9619 44.6543 91.4336 43.9891L91.7788 44.1339C91.378 45.4809 90.7782 46.5483 89.9808 47.3346C89.1862 48.1222 88.2914 48.6482 87.2978 48.9154C86.3028 49.1784 85.3022 49.2007 84.2975 48.9822C83.2914 48.7637 82.3562 48.3129 81.492 47.6296C80.6306 46.9477 79.9348 46.0529 79.4046 44.9466C78.873 43.8375 78.6086 42.5335 78.6086 41.0334C78.6086 39.4609 78.8549 38.1249 79.3489 37.0256C79.8416 35.9234 80.4761 35.0523 81.2527 34.4093C82.0681 33.708 82.9685 33.2265 83.9524 32.9621C84.939 32.6949 85.9201 32.6142 86.897 32.7171C87.8767 32.8215 88.7812 33.0929 89.6134 33.5298C90.4484 33.964 91.1303 34.5374 91.6619 35.2499C92.1921 35.9596 92.4968 36.7862 92.5748 37.7325ZM89.2182 34.9214C89.3323 34.5207 89.285 34.1895 89.0735 33.9251C88.8647 33.6579 88.5628 33.4825 88.1661 33.3962C87.7682 33.3114 87.3451 33.3322 86.897 33.4575C86.4517 33.5799 86.0593 33.8304 85.7225 34.2089C85.2285 34.7586 84.7957 35.5644 84.4255 36.6248C84.054 37.6866 83.8689 39.0128 83.8689 40.6048C83.8689 40.7759 83.8744 40.9471 83.8856 41.1169C83.8967 41.288 83.9106 41.4495 83.9301 41.6011C85.7295 39.8018 87.0167 38.3768 87.7932 37.3261C88.5725 36.2727 89.047 35.4711 89.2182 34.9214Z" fill="white"/>
<path d="M98.8594 33.7248C99.5969 33.3101 100.393 33.0499 101.247 32.9455C102.1 32.8384 102.83 32.8606 103.435 33.0123C103.435 33.0318 103.429 33.1988 103.418 33.5133C103.41 33.825 103.407 34.2091 103.407 34.6656C103.407 35.1192 103.402 35.5729 103.39 36.0293C103.382 36.483 103.379 36.8671 103.379 37.1816C103.379 37.4933 103.379 37.6589 103.379 37.677C103.282 37.6408 103.125 37.485 102.906 37.2094C102.69 36.9353 102.44 36.5999 102.155 36.2019C101.872 35.8011 101.588 35.4115 101.303 35.0329C101.016 34.6544 100.755 34.3371 100.518 34.0811C100.284 33.825 100.091 33.697 99.9392 33.697C99.4271 33.7722 99.0667 34.0853 98.8594 34.6377C98.8594 35.1276 98.8594 35.7955 98.8594 36.6416C98.8594 37.485 98.8594 38.3992 98.8594 39.3859C98.8594 40.3697 98.8621 41.355 98.8705 42.3417C98.8816 43.3297 98.8872 44.2342 98.8872 45.0581C98.8872 45.8819 98.8872 46.5471 98.8872 47.0508C98.8872 47.5518 98.8872 47.8023 98.8872 47.8023L100.195 48.7096V49.1382H92.5415L92.5136 48.7096L94.0221 47.8023V34.1813L92.714 33.3296V32.901C92.714 32.901 92.8755 32.901 93.1983 32.901C93.5212 32.901 93.9275 32.901 94.4174 32.901C94.91 32.901 95.4082 32.901 95.9092 32.901C96.4129 32.901 96.8554 32.901 97.234 32.901C97.6153 32.901 97.8435 32.901 97.9186 32.901C98.5045 32.901 98.8176 33.1765 98.8594 33.7248Z" fill="white"/>
<path d="M108.869 37.2205C109.284 37.7521 109.818 38.3157 110.472 38.9127C111.125 39.5111 111.778 40.1318 112.432 40.7775C113.088 41.4232 113.634 42.0884 114.068 42.7703C114.505 43.4535 114.733 44.1646 114.753 44.9022C114.771 45.6411 114.459 46.3996 113.818 47.1789C113.228 47.8802 112.5 48.3687 111.636 48.6428C110.774 48.9184 109.874 49.0547 108.936 49.0547C107.997 49.0547 107.1 48.9754 106.247 48.8154C105.397 48.6526 104.683 48.4814 104.104 48.3033C103.525 48.1224 103.187 48.0027 103.091 47.947C103.091 47.9248 103.152 47.7438 103.275 47.4015C103.4 47.0606 103.543 46.6584 103.703 46.1936C103.866 45.7302 104.018 45.2751 104.16 44.8298C104.3 44.3845 104.41 44.0491 104.488 43.8223H105C105.19 44.2384 105.359 44.7074 105.513 45.2306C105.664 45.7511 105.848 46.2534 106.064 46.7391C106.282 47.222 106.572 47.6339 106.932 47.9748C107.291 48.3172 107.767 48.5245 108.357 48.5983C108.754 48.654 109.108 48.608 109.42 48.4591C109.732 48.3074 109.924 48.0333 109.999 47.6353C110.077 47.2345 109.966 46.7113 109.665 46.0656C109.264 45.2348 108.749 44.5265 108.123 43.9392C107.5 43.3492 106.855 42.78 106.192 42.2303C105.526 41.6778 104.941 41.0614 104.433 40.3823C103.616 39.3399 103.165 38.3923 103.08 37.5378C102.994 36.6848 103.177 35.9403 103.631 35.3057C104.088 34.6683 104.728 34.1507 105.552 33.7527C106.378 33.356 107.313 33.1014 108.357 32.9901C109.399 32.8759 110.461 32.9177 111.541 33.1181C112.621 33.3157 113.634 33.6886 114.58 34.2369C114.58 34.2564 114.513 34.4415 114.38 34.7936C114.249 35.1429 114.09 35.5603 113.901 36.046C113.712 36.5289 113.531 36.9895 113.361 37.4265C113.19 37.8607 113.075 38.1821 113.016 38.3895H112.565C112.45 38.0666 112.306 37.6157 112.137 37.0368C111.965 36.4579 111.766 35.8762 111.541 35.289C111.292 34.6433 110.945 34.1646 110.5 33.8528C110.055 33.5411 109.609 33.3908 109.164 33.402C108.719 33.4103 108.358 33.5606 108.084 33.8528C107.809 34.1465 107.714 34.5793 107.8 35.1498C107.885 35.7176 108.242 36.4078 108.869 37.2205Z" fill="white"/>
<path d="M12.5245 21.6979C13.4736 21.6422 14.1847 21.2637 14.6565 20.5623C15.131 19.861 15.3411 18.9564 15.2855 17.8459C15.2298 16.7368 14.8513 15.5748 14.1499 14.3613C14.168 14.3252 14.1903 14.2876 14.2167 14.25C14.246 14.2097 14.2696 14.1609 14.2891 14.1053C14.8972 14.1804 15.5652 14.2987 16.293 14.4615C17.0236 14.6216 17.725 14.7927 18.3971 14.9736C19.072 15.1518 19.6273 15.3076 20.0615 15.4412C20.4984 15.5748 20.7183 15.6416 20.7183 15.6416C20.6988 16.9108 20.3913 18.0449 19.7943 19.0427C19.1959 20.0377 18.2997 20.8156 17.1057 21.375C15.9103 21.9317 14.4032 22.21 12.5858 22.21C10.8783 22.21 9.38508 21.8983 8.10481 21.2748C6.82453 20.6486 5.77248 19.8136 4.94865 18.7699C4.12482 17.7276 3.51808 16.5656 3.12843 15.2854C2.73878 14.0051 2.57318 12.7025 2.63302 11.3777C2.70677 9.6118 3.13121 8.03233 3.90773 6.64072C4.68703 5.24633 5.71681 4.108 6.99709 3.22851C8.27736 2.34623 9.7135 1.79098 11.3055 1.56415C12.8975 1.33871 14.5563 1.50013 16.2819 2.04843C17.7584 2.54245 18.8619 3.3287 19.5939 4.40859C20.3245 5.48847 20.6988 6.73953 20.7183 8.16035C20.7183 8.16035 20.5082 8.22437 20.0893 8.34961C19.6732 8.47207 19.143 8.62515 18.4973 8.80606C17.8544 8.98418 17.1725 9.15535 16.4489 9.31817C15.728 9.4782 15.0656 9.5951 14.4617 9.66885C14.406 9.57283 14.367 9.49629 14.3448 9.44063C14.3253 9.38496 14.2974 9.31817 14.2613 9.24024C14.907 8.02676 15.2479 6.88008 15.2855 5.80019C15.3217 4.72031 15.1032 3.82968 14.6286 3.12831C14.1569 2.42694 13.4555 2.05817 12.5245 2.02059C11.8454 1.98441 11.2498 2.22655 10.7377 2.7498C10.2256 3.27026 9.79282 3.98972 9.44075 4.90957C9.09145 5.82663 8.82566 6.86338 8.64475 8.02119C8.46662 9.17622 8.36643 10.3591 8.34416 11.5726C8.32468 12.8459 8.40122 14.0942 8.57238 15.3188C8.74216 16.5406 9.00239 17.6386 9.35168 18.6141C9.70376 19.591 10.1449 20.3592 10.6765 20.9186C11.2067 21.4752 11.8232 21.7355 12.5245 21.6979Z" fill="white"/>
<path d="M35.9605 20.8741L37.2964 21.7814V22.21C37.2964 22.21 36.968 22.2044 36.3112 22.1933C35.6571 22.185 34.715 22.1822 33.4834 22.1822C32.2505 22.1822 31.2972 22.185 30.6223 22.1933C29.9501 22.2044 29.6148 22.21 29.6148 22.21L29.5869 21.7814L31.0954 20.8741C31.0954 20.4775 31.0954 19.9194 31.0954 19.1986C31.0954 18.4749 31.0982 17.6734 31.1066 16.7939C31.1177 15.9116 31.1177 15.0112 31.1066 14.0942C31.0982 13.1743 31.0899 12.3213 31.0787 11.5336C31.0704 10.7474 31.0579 10.0891 31.0398 9.55754C31.0203 9.02734 30.9924 8.70448 30.9563 8.58898C30.8408 8.26613 30.5944 8.03512 30.2159 7.89318C29.8374 7.74845 29.4199 7.7067 28.9635 7.76515C28.507 7.82082 28.0896 7.98224 27.711 8.24943C27.3325 8.51383 27.0848 8.88261 26.9707 9.35715C26.9707 10.7237 26.9707 12.0833 26.9707 13.4373C26.9707 14.7928 26.9707 16.0341 26.9707 17.1613C26.9707 18.2899 26.9707 19.1916 26.9707 19.8665C26.9707 20.5387 26.9707 20.8741 26.9707 20.8741L28.3067 21.7814V22.21C28.3067 22.21 27.9838 22.2044 27.3381 22.1933C26.6952 22.185 25.7586 22.1822 24.5271 22.1822C23.2941 22.1822 22.3408 22.185 21.6659 22.1933C20.9938 22.2044 20.6584 22.21 20.6584 22.21L20.6306 21.7814L22.1391 20.8741V1.30811L20.831 0.428614V0.0278321C20.831 0.0278321 21.0383 0.0250491 21.4544 0.0166993C21.8733 0.00556642 22.3701 0 22.9462 0C23.5251 0 24.0511 0 24.5271 0C24.8123 0 25.0809 0 25.3342 0C25.5902 0 25.8143 0 26.0077 0C26.3083 0.0194823 26.5477 0.109937 26.7258 0.272754C26.9067 0.432789 26.9888 0.673536 26.9707 0.996389C26.9707 1.08963 26.9707 1.48623 26.9707 2.1876C26.9707 2.88897 26.9707 3.77681 26.9707 4.84835C26.9707 5.92128 26.9707 7.09162 26.9707 8.36076C27.3117 7.81247 27.8057 7.35741 28.4514 6.99699C29.0971 6.63795 29.7985 6.39025 30.5555 6.25665C31.3125 6.12306 32.0501 6.12306 32.7709 6.25665C33.4946 6.39025 34.1249 6.66718 34.6635 7.08605C35.2048 7.50214 35.5611 8.088 35.7323 8.84504C35.7879 9.08996 35.8297 9.33766 35.8603 9.58537C35.8895 9.83029 35.9132 10.181 35.9326 10.6374C35.9507 11.0911 35.9605 11.7257 35.9605 12.5411C35.9605 13.358 35.9605 14.4337 35.9605 15.7697C35.9605 17.1056 35.9605 18.8075 35.9605 20.8741Z" fill="white"/>
<path d="M50.6629 21.7535V22.1821C50.6629 22.1821 50.2245 22.1793 49.3492 22.1709C48.4767 22.1598 47.4246 22.1542 46.193 22.1542C45.6434 22.1542 45.1132 22.1598 44.601 22.1709C44.0889 22.1793 43.8329 22.1821 43.8329 22.1821V20.5901C43.2651 21.3471 42.5971 21.869 41.829 22.1542C41.0608 22.4395 40.3107 22.5008 39.5801 22.3379C38.8523 22.1793 38.2456 21.7966 37.7599 21.1913C37.277 20.5831 37.0363 19.7663 37.0363 18.742C37.0363 17.8111 37.2311 17.0665 37.6208 16.5099C38.0104 15.9505 38.503 15.4996 39.1014 15.1573C39.6984 14.8163 40.3149 14.5324 40.9495 14.3056C41.5841 14.0802 42.1657 13.8478 42.6973 13.6098C43.2275 13.3732 43.6158 13.0643 43.8607 12.6858C43.883 11.2427 43.883 10.1364 43.8607 9.36819C43.8412 8.60002 43.8078 8.04199 43.7605 7.6927C43.716 7.34062 43.6353 7.06926 43.5212 6.88C43.4098 6.67265 43.1872 6.53488 42.8532 6.46808C42.522 6.40129 42.181 6.44443 41.829 6.59611C41.4797 6.74919 41.2083 7.04421 41.0163 7.48117C40.827 7.91535 40.802 8.52209 40.9439 9.30139C41.0886 10.0779 41.4839 11.0715 42.1296 12.285C42.0141 12.4005 41.9013 12.4951 41.79 12.5689C41.2779 12.4951 40.7226 12.3908 40.1256 12.2572C39.5273 12.1236 38.9762 11.9872 38.4724 11.8452C37.9714 11.7047 37.5874 11.5948 37.3202 11.5168C37.2269 11.4806 37.156 11.4055 37.1087 11.2942C37.0599 11.1801 37.0363 11.0826 37.0363 11.0047C37.1142 9.9624 37.412 9.09961 37.9325 8.41633C38.4557 7.73444 39.1014 7.20285 39.8696 6.82434C40.6378 6.44582 41.4616 6.21064 42.3411 6.1174C43.2234 6.02138 44.0722 6.04921 44.8849 6.2009C45.7004 6.35397 46.4115 6.61838 47.0169 6.99689C47.625 7.37541 48.0327 7.84021 48.2415 8.3885C48.4488 8.86443 48.5769 9.45168 48.6256 10.1531C48.6729 10.8544 48.6979 11.6783 48.6979 12.6245C48.6979 12.8917 48.6979 13.3398 48.6979 13.966C48.6979 14.5895 48.6979 15.2909 48.6979 16.0702C48.6979 16.8467 48.6924 17.5995 48.6812 18.3301C48.6729 19.0579 48.6701 19.6591 48.6701 20.1336C48.6701 20.6096 48.6701 20.8461 48.6701 20.8461L50.6629 21.7535ZM41.4449 17.8013C41.4449 18.6738 41.5854 19.3042 41.8679 19.6939C42.1532 20.0835 42.4858 20.3034 42.8643 20.3507C43.2456 20.3953 43.5685 20.3326 43.8329 20.1615C43.8329 20.1615 43.8329 19.9597 43.8329 19.5547C43.8329 19.147 43.8357 18.6349 43.844 18.0184C43.8552 17.3991 43.8607 16.759 43.8607 16.098C43.8607 15.4342 43.8607 14.833 43.8607 14.2945C43.8607 13.7531 43.8607 13.3677 43.8607 13.1367C43.5601 13.5569 43.2178 13.9549 42.8365 14.3334C42.458 14.7119 42.131 15.167 41.8568 15.6972C41.5813 16.2288 41.4449 16.9302 41.4449 17.8013Z" fill="white"/>
<path d="M56.5194 6.79651C57.2569 6.38181 58.0529 6.12158 58.9074 6.01721C59.7604 5.91006 60.4896 5.93233 61.095 6.08401C61.095 6.10349 61.0894 6.27049 61.0783 6.58499C61.0699 6.89671 61.0672 7.28079 61.0672 7.73724C61.0672 8.1909 61.0616 8.64456 61.0505 9.10101C61.0421 9.55467 61.0393 9.93875 61.0393 10.2533C61.0393 10.565 61.0393 10.7306 61.0393 10.7487C60.9419 10.7125 60.7847 10.5566 60.5662 10.2811C60.3505 10.0069 60.1 9.67157 59.8147 9.27357C59.5322 8.87279 59.2483 8.48314 58.963 8.10462C58.6764 7.7261 58.4148 7.40882 58.1782 7.15276C57.9444 6.89671 57.751 6.76868 57.5993 6.76868C57.0872 6.84383 56.7267 7.15694 56.5194 7.7094C56.5194 8.19925 56.5194 8.86722 56.5194 9.71331C56.5194 10.5566 56.5194 11.4709 56.5194 12.4576C56.5194 13.4414 56.5222 14.4267 56.5305 15.4133C56.5417 16.4014 56.5472 17.3059 56.5472 18.1297C56.5472 18.9536 56.5472 19.6188 56.5472 20.1225C56.5472 20.6235 56.5472 20.874 56.5472 20.874L57.8553 21.7813V22.2099H50.2015L50.1737 21.7813L51.6822 20.874V7.25296L50.3741 6.4013V5.97268C50.3741 5.97268 50.5355 5.97268 50.8583 5.97268C51.1812 5.97268 51.5875 5.97268 52.0774 5.97268C52.57 5.97268 53.0682 5.97268 53.5692 5.97268C54.073 5.97268 54.5155 5.97268 54.894 5.97268C55.2753 5.97268 55.5035 5.97268 55.5787 5.97268C56.1645 5.97268 56.4776 6.24822 56.5194 6.79651Z" fill="white"/>
<path d="M68.1768 21.7814V22.1822C68.1768 22.1822 67.854 22.1822 67.2083 22.1822C66.5626 22.1822 65.6232 22.1822 64.3916 22.1822C63.1587 22.1822 62.2013 22.1822 61.5194 22.1822C60.8361 22.1822 60.4952 22.1822 60.4952 22.1822V21.7814L62.0037 20.8741V1.30811L60.6956 0.428614V0.0278321C60.6956 0.0278321 60.9029 0.0250491 61.319 0.0166993C61.7379 0.00556642 62.2374 0 62.8164 0C63.3953 0 63.9199 0 64.3916 0C64.6769 0 64.9483 0 65.2043 0C65.4604 0 65.6831 0 65.8723 0C66.1757 0.0194823 66.4178 0.109937 66.596 0.272754C66.7769 0.432789 66.859 0.673536 66.8409 0.996389C66.8409 1.10772 66.8409 1.55303 66.8409 2.33233C66.8409 3.10884 66.8409 4.0941 66.8409 5.2881C66.8409 6.48348 66.8409 7.77907 66.8409 9.17346C66.8409 10.5651 66.8409 11.9497 66.8409 13.326C66.8409 14.6995 66.8409 15.9561 66.8409 17.0945C66.8409 18.23 66.8409 19.1457 66.8409 19.8387C66.8409 20.5289 66.8409 20.8741 66.8409 20.8741L68.1768 21.7814Z" fill="white"/>
<path d="M75.2302 6.36789C77.7685 6.36789 79.5525 7.047 80.5851 8.4052C81.6205 9.76062 82.1381 11.7089 82.1381 14.2499C82.1381 15.8976 81.9183 17.3101 81.4813 18.486C81.0471 19.6633 80.3263 20.565 79.3215 21.1913C78.3196 21.8147 76.9558 22.1264 75.2302 22.1264C72.973 22.1264 71.2474 21.5113 70.0534 20.2784C68.858 19.0468 68.2694 16.9803 68.2889 14.0774C68.3251 11.5544 68.8747 9.63955 69.9365 8.33284C70.9969 7.02334 72.7615 6.36789 75.2302 6.36789ZM75.2302 6.94123C74.8475 6.94123 74.5344 7.14023 74.2895 7.53684C74.0446 7.93484 73.8456 8.44695 73.6939 9.07317C73.5408 9.69661 73.4323 10.359 73.3655 11.0604C73.2987 11.7618 73.2597 12.4269 73.2486 13.0532C73.2402 13.6808 73.2374 14.1831 73.2374 14.5617C73.2374 14.9221 73.2458 15.3911 73.2653 15.97C73.2834 16.5489 73.3293 17.1612 73.4044 17.8069C73.4823 18.4498 73.5909 19.0538 73.7328 19.6215C73.8776 20.1893 74.0724 20.6555 74.3173 21.0187C74.565 21.3791 74.8698 21.5586 75.2302 21.5586C75.6087 21.5586 75.9163 21.3694 76.1542 20.9909C76.3908 20.6096 76.5842 20.1197 76.7331 19.5213C76.8848 18.9243 76.9975 18.2898 77.0727 17.6176C77.1506 16.9469 77.1979 16.3081 77.2174 15.7028C77.2355 15.0946 77.2452 14.6104 77.2452 14.2499C77.2452 13.8909 77.2355 13.408 77.2174 12.8027C77.1979 12.1945 77.1506 11.5544 77.0727 10.8823C76.9975 10.2073 76.8848 9.57137 76.7331 8.97298C76.5842 8.37598 76.3908 7.88753 76.1542 7.50901C75.9163 7.13049 75.6087 6.94123 75.2302 6.94123Z" fill="white"/>
<path d="M90.7822 5.94485V6.45696H88.6781C88.6781 7.57442 88.6808 8.85469 88.6892 10.2978C88.7003 11.7381 88.7059 13.2257 88.7059 14.7621C88.7059 16.2956 88.7059 17.793 88.7059 19.2542C88.7059 19.3877 88.7087 19.6021 88.717 19.8943C88.7281 20.1879 88.7365 20.4621 88.7449 20.7181C88.756 20.9742 88.7616 21.1022 88.7616 21.1022L91.2108 19.4824L91.6617 19.8219C90.7891 20.4871 90.0446 21.0507 89.4295 21.5141C88.813 21.9789 88.1353 22.2099 87.3978 22.2099C86.2984 22.2099 85.4885 22.0123 84.9652 21.6143C84.4448 21.2177 84.1094 20.6499 83.9577 19.911C83.8047 19.1693 83.7476 18.2912 83.7852 17.2781C83.8255 16.2622 83.8464 15.1378 83.8464 13.9048C83.8464 13.0142 83.8464 11.9872 83.8464 10.821C83.8464 9.65625 83.8464 8.20203 83.8464 6.45696H82.7331V5.94485H83.8464C83.8464 5.56633 83.8464 5.11823 83.8464 4.59777C83.8464 4.07453 83.8464 3.60417 83.8464 3.1839L82.5327 2.33224V1.90363C82.5327 1.90363 82.7456 1.90084 83.1729 1.89249C83.5987 1.88136 84.1025 1.8758 84.6814 1.8758C85.2603 1.8758 85.7779 1.8758 86.2344 1.8758C86.5155 1.8758 86.7855 1.8758 87.0415 1.8758C87.2976 1.8758 87.5286 1.88554 87.7373 1.90363C88.383 1.90363 88.7059 2.22648 88.7059 2.87218C88.6864 2.9696 88.6781 3.31611 88.6781 3.9131C88.6781 4.50732 88.6781 5.18503 88.6781 5.94485H90.7822Z" fill="white"/>
<path d="M100.251 5.94485V6.45696H98.1472C98.1472 7.57442 98.15 8.85469 98.1583 10.2978C98.1694 11.7381 98.175 13.2257 98.175 14.7621C98.175 16.2956 98.175 17.793 98.175 19.2542C98.175 19.3877 98.1778 19.6021 98.1861 19.8943C98.1973 20.1879 98.2056 20.4621 98.214 20.7181C98.2251 20.9742 98.2307 21.1022 98.2307 21.1022L100.68 19.4824L101.131 19.8219C100.258 20.4871 99.5137 21.0507 98.8986 21.5141C98.2822 21.9789 97.6045 22.2099 96.8669 22.2099C95.7675 22.2099 94.9576 22.0123 94.4344 21.6143C93.9139 21.2177 93.5785 20.6499 93.4269 19.911C93.2738 19.1693 93.2167 18.2912 93.2543 17.2781C93.2947 16.2622 93.3155 15.1378 93.3155 13.9048C93.3155 13.0142 93.3155 11.9872 93.3155 10.821C93.3155 9.65625 93.3155 8.20203 93.3155 6.45696H92.2022V5.94485H93.3155C93.3155 5.56633 93.3155 5.11823 93.3155 4.59777C93.3155 4.07453 93.3155 3.60417 93.3155 3.1839L92.0019 2.33224V1.90363C92.0019 1.90363 92.2148 1.90084 92.642 1.89249C93.0678 1.88136 93.5716 1.8758 94.1505 1.8758C94.7294 1.8758 95.2471 1.8758 95.7035 1.8758C95.9846 1.8758 96.2546 1.8758 96.5107 1.8758C96.7667 1.8758 96.9977 1.88554 97.2065 1.90363C97.8522 1.90363 98.175 2.22648 98.175 2.87218C98.1555 2.9696 98.1472 3.31611 98.1472 3.9131C98.1472 4.50732 98.1472 5.18503 98.1472 5.94485H100.251Z" fill="white"/>
<path d="M115.125 10.8044C115.125 10.8824 115.1 10.9798 115.053 11.0939C115.004 11.2052 114.933 11.2804 114.841 11.3165C114.688 11.3583 114.37 11.5058 113.884 11.7619C113.401 12.0179 112.818 12.3324 112.136 12.7026C111.453 13.07 110.756 13.4429 110.043 13.8214C109.334 14.1999 108.666 14.5325 108.039 14.8178C107.416 15.1003 106.923 15.2896 106.564 15.3856C106.772 16.5991 107.184 17.5008 107.8 18.0909C108.415 18.6781 109.111 18.9982 109.887 19.0539C110.667 19.1095 111.425 18.9578 112.164 18.5974C112.906 18.2384 113.513 17.7263 113.984 17.0611L114.329 17.2058C113.929 18.5529 113.329 19.6202 112.531 20.4065C111.737 21.1941 110.842 21.7202 109.848 21.9874C108.853 22.2504 107.853 22.2726 106.848 22.0542C105.842 21.8357 104.907 21.3848 104.043 20.7015C103.181 20.0196 102.485 19.1248 101.955 18.0185C101.424 16.9094 101.159 15.6055 101.159 14.1053C101.159 12.5328 101.406 11.1969 101.9 10.0975C102.392 8.99534 103.027 8.1242 103.803 7.48128C104.619 6.77991 105.519 6.29841 106.503 6.03401C107.49 5.76682 108.471 5.68611 109.448 5.78908C110.427 5.89346 111.332 6.16482 112.164 6.60178C112.999 7.03596 113.681 7.6093 114.212 8.32181C114.743 9.03152 115.047 9.85814 115.125 10.8044ZM111.769 7.99339C111.883 7.5926 111.836 7.2614 111.624 6.997C111.415 6.72981 111.113 6.55447 110.717 6.46819C110.319 6.3833 109.896 6.40417 109.448 6.52942C109.002 6.65188 108.61 6.90237 108.273 7.28088C107.779 7.83057 107.346 8.63631 106.976 9.69671C106.605 10.7585 106.42 12.0847 106.42 13.6767C106.42 13.8479 106.425 14.019 106.436 14.1888C106.447 14.36 106.461 14.5214 106.481 14.6731C108.28 12.8737 109.567 11.4487 110.344 10.3981C111.123 9.34463 111.598 8.54307 111.769 7.99339Z" fill="white"/>
<path d="M14.5752 39.1296C15.4464 39.8686 16.067 40.7133 16.4344 41.6624C16.8046 42.6087 16.9145 43.5522 16.7628 44.4901C16.6098 45.4294 16.1742 46.2686 15.4547 47.0061C15.0011 47.4626 14.3762 47.8522 13.5788 48.1751C12.7801 48.4951 11.8783 48.7359 10.8736 48.8987C9.87161 49.0587 8.83904 49.1325 7.77864 49.1214C6.71684 49.113 5.69262 49.0156 4.70597 48.8263C3.71793 48.6371 2.84122 48.3532 2.07306 47.9747C1.30489 47.5934 0.72181 47.1091 0.325203 46.5218C0.0427073 46.0877 -0.0560963 45.6145 0.030183 45.1024C0.115071 44.5903 0.298763 44.0698 0.581258 43.5382C0.866537 43.008 1.17408 42.4918 1.50528 41.9908C1.83927 41.487 2.10924 41.0361 2.31798 40.6381C2.40983 40.6381 2.49332 40.6381 2.56847 40.6381C2.6464 40.6381 2.70345 40.6381 2.74103 40.6381C2.95255 42.5906 3.31437 44.1547 3.82648 45.3306C4.33859 46.5038 4.92446 47.3457 5.58547 47.8578C6.24926 48.3699 6.89497 48.6259 7.52258 48.6259C8.07087 48.6259 8.62056 48.4645 9.17024 48.1417C9.71853 47.8188 10.168 47.3832 10.5173 46.8336C10.8694 46.2853 11.0364 45.6688 11.0183 44.9855C10.9988 44.3036 10.7066 43.6023 10.1388 42.8814C9.93006 42.6184 9.58911 42.3498 9.11458 42.0743C8.63865 41.796 8.13628 41.5204 7.60608 41.2449C7.07448 40.9707 6.59299 40.6924 6.15881 40.4099C5.49362 39.9535 4.81452 39.5221 4.1215 39.1129C3.43126 38.7052 2.78695 38.2752 2.18995 37.8215C1.59156 37.3651 1.11285 36.853 0.753817 36.2852C0.393392 35.7174 0.213875 35.0439 0.213875 34.2646C0.213875 33.3002 0.525594 32.4486 1.14903 31.7096C1.77525 30.9679 2.60465 30.3458 3.63722 29.8449C4.67257 29.3411 5.79699 28.9751 7.01047 28.7483C8.22395 28.5228 9.43186 28.4574 10.6342 28.5534C11.8393 28.6467 12.9345 28.9125 13.9184 29.3494C14.905 29.7836 15.6635 30.4182 16.1951 31.2532C16.4803 31.6693 16.5805 32.1327 16.4956 32.6448C16.4094 33.1569 16.2243 33.6843 15.939 34.2256C15.6523 34.7642 15.349 35.286 15.0261 35.7898C14.706 36.2908 14.4416 36.7403 14.2301 37.1369C14.1744 37.1369 14.1035 37.1369 14.0186 37.1369C13.9323 37.1369 13.8627 37.1369 13.8071 37.1369C13.5399 34.5401 12.9276 32.5487 11.9701 31.1641C11.0127 29.7808 9.94675 29.06 8.77502 29.0043C8.31858 28.9862 7.81899 29.1379 7.27766 29.4608C6.73911 29.7836 6.2757 30.2067 5.88605 30.7299C5.4964 31.2504 5.30158 31.7931 5.30158 32.3609C5.30158 32.9287 5.49919 33.4324 5.89719 33.8694C6.29797 34.3036 6.83374 34.7071 7.50588 35.0773C8.18081 35.4447 8.92532 35.8232 9.73801 36.2128C10.5535 36.6025 11.3801 37.0297 12.2151 37.4931C13.05 37.9579 13.8363 38.5034 14.5752 39.1296Z" fill="white"/>
<path d="M25.1794 32.8732V33.3853H23.0753C23.0753 34.5027 23.0781 35.783 23.0864 37.2261C23.0976 38.6664 23.1031 40.154 23.1031 41.6904C23.1031 43.2239 23.1031 44.7213 23.1031 46.1825C23.1031 46.3161 23.1059 46.5304 23.1143 46.8226C23.1254 47.1162 23.1338 47.3904 23.1421 47.6464C23.1532 47.9025 23.1588 48.0305 23.1588 48.0305L25.608 46.4107L26.0589 46.7502C25.1864 47.4154 24.4419 47.979 23.8268 48.4424C23.2103 48.9072 22.5326 49.1382 21.795 49.1382C20.6957 49.1382 19.8858 48.9406 19.3625 48.5426C18.8421 48.146 18.5067 47.5783 18.355 46.8393C18.2019 46.0976 18.1449 45.2195 18.1824 44.2064C18.2228 43.1905 18.2437 42.0661 18.2437 40.8331C18.2437 39.9425 18.2437 38.9155 18.2437 37.7493C18.2437 36.5846 18.2437 35.1304 18.2437 33.3853H17.1304V32.8732H18.2437C18.2437 32.4947 18.2437 32.0466 18.2437 31.5261C18.2437 31.0029 18.2437 30.5325 18.2437 30.1122L16.93 29.2606V28.8319C16.93 28.8319 17.1429 28.8292 17.5701 28.8208C17.996 28.8097 18.4997 28.8041 19.0786 28.8041C19.6575 28.8041 20.1752 28.8041 20.6317 28.8041C20.9128 28.8041 21.1827 28.8041 21.4388 28.8041C21.6948 28.8041 21.9258 28.8139 22.1346 28.8319C22.7803 28.8319 23.1031 29.1548 23.1031 29.8005C23.0837 29.8979 23.0753 30.2444 23.0753 30.8414C23.0753 31.4356 23.0753 32.1134 23.0753 32.8732H25.1794Z" fill="white"/>
<path d="M40.0535 37.7325C40.0535 37.8104 40.0285 37.9078 39.9812 38.0219C39.9325 38.1333 39.8615 38.2084 39.7696 38.2446C39.6166 38.2863 39.2979 38.4339 38.8122 38.6899C38.3293 38.946 37.7463 39.2605 37.0644 39.6306C36.3811 39.998 35.6839 40.371 34.9714 40.7495C34.2617 41.128 33.5937 41.4606 32.9675 41.7459C32.344 42.0284 31.8514 42.2176 31.4924 42.3137C31.6997 43.5271 32.1116 44.4289 32.7281 45.0189C33.3432 45.6062 34.039 45.9263 34.8155 45.9819C35.5948 46.0376 36.3533 45.8859 37.0922 45.5255C37.8339 45.1664 38.4407 44.6543 38.9124 43.9891L39.2575 44.1339C38.8568 45.4809 38.257 46.5483 37.4596 47.3346C36.665 48.1222 35.7702 48.6482 34.7766 48.9154C33.7816 49.1784 32.781 49.2007 31.7763 48.9822C30.7701 48.7637 29.835 48.3129 28.9708 47.6296C28.1094 46.9477 27.4136 46.0529 26.8834 44.9466C26.3518 43.8375 26.0874 42.5335 26.0874 41.0334C26.0874 39.4609 26.3337 38.1249 26.8277 37.0256C27.3204 35.9234 27.9549 35.0523 28.7314 34.4093C29.5469 33.708 30.4473 33.2265 31.4312 32.9621C32.4178 32.6949 33.3989 32.6142 34.3758 32.7171C35.3555 32.8215 36.26 33.0929 37.0922 33.5298C37.9272 33.964 38.609 34.5374 39.1406 35.2499C39.6708 35.9596 39.9756 36.7862 40.0535 37.7325ZM36.697 34.9214C36.8111 34.5207 36.7638 34.1895 36.5523 33.9251C36.3435 33.6579 36.0415 33.4825 35.6449 33.3962C35.2469 33.3114 34.8239 33.3322 34.3758 33.4575C33.9305 33.5799 33.538 33.8304 33.2013 34.2089C32.7073 34.7586 32.2745 35.5644 31.9043 36.6248C31.5327 37.6866 31.3477 39.0128 31.3477 40.6048C31.3477 40.7759 31.3532 40.9471 31.3644 41.1169C31.3755 41.288 31.3894 41.4495 31.4089 41.6011C33.2082 39.8018 34.4955 38.3768 35.272 37.3261C36.0513 36.2727 36.5258 35.4711 36.697 34.9214Z" fill="white"/>
<path d="M53.619 48.6818V49.1104C53.619 49.1104 53.1807 49.1076 52.3053 49.0993C51.4328 49.0881 50.3808 49.0826 49.1492 49.0826C48.5995 49.0826 48.0693 49.0881 47.5572 49.0993C47.0451 49.1076 46.789 49.1104 46.789 49.1104V47.5184C46.2213 48.2754 45.5533 48.7973 44.7851 49.0826C44.0169 49.3679 43.2669 49.4291 42.5363 49.2663C41.8085 49.1076 41.2017 48.7249 40.7161 48.1196C40.2332 47.5114 39.9924 46.6946 39.9924 45.6704C39.9924 44.7394 40.1873 43.9949 40.5769 43.4382C40.9666 42.8788 41.4592 42.4279 42.0576 42.0856C42.6546 41.7446 43.271 41.4608 43.9056 41.2339C44.5402 41.0085 45.1219 40.7761 45.6535 40.5381C46.1837 40.3015 46.5719 39.9926 46.8169 39.6141C46.8391 38.171 46.8391 37.0647 46.8169 36.2965C46.7974 35.5283 46.764 34.9703 46.7167 34.621C46.6721 34.2689 46.5914 33.9976 46.4773 33.8083C46.366 33.601 46.1433 33.4632 45.8093 33.3964C45.4781 33.3296 45.1372 33.3727 44.7851 33.5244C44.4358 33.6775 44.1645 33.9725 43.9724 34.4095C43.7832 34.8437 43.7581 35.4504 43.9001 36.2297C44.0448 37.0062 44.44 37.9998 45.0857 39.2133C44.9702 39.3288 44.8575 39.4234 44.7461 39.4972C44.234 39.4234 43.6788 39.3191 43.0818 39.1855C42.4834 39.0519 41.9323 38.9155 41.4286 38.7736C40.9276 38.633 40.5435 38.5231 40.2763 38.4451C40.1831 38.409 40.1121 38.3338 40.0648 38.2225C40.0161 38.1084 39.9924 38.011 39.9924 37.933C40.0704 36.8907 40.3682 36.0279 40.8886 35.3447C41.4119 34.6628 42.0576 34.1312 42.8257 33.7527C43.5939 33.3741 44.4177 33.139 45.2972 33.0457C46.1795 32.9497 47.0284 32.9775 47.8411 33.1292C48.6566 33.2823 49.3677 33.5467 49.973 33.9252C50.5811 34.3037 50.9889 34.7685 51.1976 35.3168C51.405 35.7928 51.533 36.38 51.5817 37.0814C51.629 37.7827 51.6541 38.6066 51.6541 39.5529C51.6541 39.8201 51.6541 40.2682 51.6541 40.8944C51.6541 41.5178 51.6541 42.2192 51.6541 42.9985C51.6541 43.775 51.6485 44.5279 51.6374 45.2584C51.629 45.9863 51.6262 46.5874 51.6262 47.062C51.6262 47.5379 51.6262 47.7745 51.6262 47.7745L53.619 48.6818ZM44.401 44.7296C44.401 45.6022 44.5416 46.2326 44.8241 46.6222C45.1094 47.0119 45.442 47.2317 45.8205 47.2791C46.2018 47.3236 46.5246 47.261 46.789 47.0898C46.789 47.0898 46.789 46.888 46.789 46.4831C46.789 46.0753 46.7918 45.5632 46.8002 44.9467C46.8113 44.3275 46.8169 43.6873 46.8169 43.0263C46.8169 42.3625 46.8169 41.7613 46.8169 41.2228C46.8169 40.6815 46.8169 40.296 46.8169 40.065C46.5163 40.4852 46.1739 40.8832 45.7926 41.2618C45.4141 41.6403 45.0871 42.0953 44.8129 42.6255C44.5374 43.1571 44.401 43.8585 44.401 44.7296Z" fill="white"/>
<path d="M77.5051 47.8021L78.8411 48.7095V49.1381H71.1594L71.1316 48.7095L72.6401 47.8021C72.6401 45.6799 72.6401 43.9933 72.6401 42.7423C72.6401 41.4884 72.6401 40.5435 72.6401 39.909C72.6401 39.2744 72.6401 38.8291 72.6401 38.573C72.6401 38.317 72.6401 38.1138 72.6401 37.9607C72.6401 37.2788 72.6401 36.7862 72.6401 36.4856C72.6401 36.1822 72.6304 35.9735 72.6123 35.8622C72.5928 35.7481 72.5566 35.6325 72.5009 35.517C72.3854 35.1761 72.1182 34.9381 71.6994 34.8045C71.2833 34.671 70.8282 34.6431 70.3356 34.7211C69.8416 34.7962 69.4088 34.9994 69.0386 35.3334C68.6712 35.6646 68.4778 36.1335 68.4597 36.7417C68.4778 37.0242 68.4903 37.4027 68.4987 37.8772C68.5098 38.3531 68.5154 39.0016 68.5154 39.8255C68.5154 40.6493 68.5154 41.7069 68.5154 42.9983C68.5154 44.2869 68.5154 45.8873 68.5154 47.8021L69.8513 48.7095V49.1381H62.1752L62.1474 48.7095L63.6559 47.8021C63.6559 47.4055 63.6559 46.8475 63.6559 46.1266C63.6559 45.403 63.6587 44.6014 63.667 43.7219C63.6782 42.8397 63.6782 41.9393 63.667 41.0222C63.6587 40.1024 63.6503 39.2493 63.6392 38.4617C63.6309 37.6754 63.6169 37.0172 63.5947 36.4856C63.5752 35.9554 63.5474 35.6325 63.5112 35.517C63.3957 35.1942 63.1521 34.9632 62.782 34.8212C62.4146 34.6765 62.0027 34.6348 61.5462 34.6932C61.0926 34.7489 60.6779 34.9047 60.2994 35.1608C59.9208 35.4169 59.6648 35.7731 59.5312 36.2295C59.5312 37.084 59.534 38.0219 59.5423 39.0462C59.5535 40.0676 59.559 41.0946 59.559 42.13C59.559 43.1625 59.559 44.1046 59.559 44.9577C59.559 45.8121 59.559 46.4996 59.559 47.0228C59.559 47.5433 59.559 47.8021 59.559 47.8021L60.895 48.7095V49.1381H53.2189L53.191 48.7095L54.694 47.8021V34.1533L53.3859 33.296V32.873C53.3859 32.873 53.5473 32.873 53.8701 32.873C54.193 32.873 54.6007 32.873 55.0947 32.873C55.5874 32.873 56.0856 32.873 56.5866 32.873C57.0875 32.873 57.5273 32.873 57.9058 32.873C58.2871 32.873 58.5153 32.873 58.5905 32.873C59.2362 32.873 59.559 33.1945 59.559 33.836C59.559 34.0294 59.559 34.1588 59.559 34.2256C59.559 34.2896 59.5535 34.3843 59.5423 34.5095C59.534 34.632 59.5312 34.8825 59.5312 35.261C60.0614 34.4455 60.7391 33.8861 61.5629 33.5855C62.3868 33.2821 63.283 33.1291 64.2515 33.1291C65.2757 33.1291 66.1413 33.31 66.851 33.669C67.5635 34.0294 68.0422 34.7127 68.2872 35.7174C68.4013 35.3167 68.6629 34.9187 69.072 34.5207C69.4798 34.1241 70.0294 33.7942 70.7197 33.5298C71.4127 33.2626 72.2421 33.1291 73.2079 33.1291C74.2683 33.1291 75.1506 33.3155 75.8519 33.6857C76.5533 34.0531 77.0278 34.7489 77.2769 35.7731C77.3131 35.9624 77.3451 36.1767 77.3716 36.4132C77.4008 36.6512 77.4244 36.9977 77.4439 37.4542C77.4662 37.9078 77.4801 38.5452 77.4884 39.369C77.4996 40.1928 77.5051 41.288 77.5051 42.6532C77.5051 44.0197 77.5051 45.7356 77.5051 47.8021Z" fill="white"/>
<path d="M92.5748 37.7325C92.5748 37.8104 92.5497 37.9078 92.5024 38.0219C92.4537 38.1333 92.3827 38.2084 92.2909 38.2446C92.1378 38.2863 91.8191 38.4339 91.3334 38.6899C90.8506 38.946 90.2675 39.2605 89.5856 39.6306C88.9023 39.998 88.2051 40.371 87.4926 40.7495C86.7829 41.128 86.1149 41.4606 85.4887 41.7459C84.8653 42.0284 84.3726 42.2176 84.0136 42.3137C84.221 43.5271 84.6329 44.4289 85.2494 45.0189C85.8644 45.6062 86.5602 45.9263 87.3368 45.9819C88.1161 46.0376 88.8745 45.8859 89.6134 45.5255C90.3551 45.1664 90.9619 44.6543 91.4336 43.9891L91.7788 44.1339C91.378 45.4809 90.7782 46.5483 89.9808 47.3346C89.1862 48.1222 88.2914 48.6482 87.2978 48.9154C86.3028 49.1784 85.3022 49.2007 84.2975 48.9822C83.2914 48.7637 82.3562 48.3129 81.492 47.6296C80.6306 46.9477 79.9348 46.0529 79.4046 44.9466C78.873 43.8375 78.6086 42.5335 78.6086 41.0334C78.6086 39.4609 78.8549 38.1249 79.3489 37.0256C79.8416 35.9234 80.4761 35.0523 81.2527 34.4093C82.0681 33.708 82.9685 33.2265 83.9524 32.9621C84.939 32.6949 85.9201 32.6142 86.897 32.7171C87.8767 32.8215 88.7812 33.0929 89.6134 33.5298C90.4484 33.964 91.1303 34.5374 91.6619 35.2499C92.1921 35.9596 92.4968 36.7862 92.5748 37.7325ZM89.2182 34.9214C89.3323 34.5207 89.285 34.1895 89.0735 33.9251C88.8647 33.6579 88.5628 33.4825 88.1661 33.3962C87.7682 33.3114 87.3451 33.3322 86.897 33.4575C86.4517 33.5799 86.0593 33.8304 85.7225 34.2089C85.2285 34.7586 84.7957 35.5644 84.4255 36.6248C84.054 37.6866 83.8689 39.0128 83.8689 40.6048C83.8689 40.7759 83.8744 40.9471 83.8856 41.1169C83.8967 41.288 83.9106 41.4495 83.9301 41.6011C85.7295 39.8018 87.0167 38.3768 87.7932 37.3261C88.5725 36.2727 89.047 35.4711 89.2182 34.9214Z" fill="white"/>
<path d="M98.8594 33.7248C99.5969 33.3101 100.393 33.0499 101.247 32.9455C102.1 32.8384 102.83 32.8606 103.435 33.0123C103.435 33.0318 103.429 33.1988 103.418 33.5133C103.41 33.825 103.407 34.2091 103.407 34.6656C103.407 35.1192 103.402 35.5729 103.39 36.0293C103.382 36.483 103.379 36.8671 103.379 37.1816C103.379 37.4933 103.379 37.6589 103.379 37.677C103.282 37.6408 103.125 37.485 102.906 37.2094C102.69 36.9353 102.44 36.5999 102.155 36.2019C101.872 35.8011 101.588 35.4115 101.303 35.0329C101.016 34.6544 100.755 34.3371 100.518 34.0811C100.284 33.825 100.091 33.697 99.9392 33.697C99.4271 33.7722 99.0667 34.0853 98.8594 34.6377C98.8594 35.1276 98.8594 35.7955 98.8594 36.6416C98.8594 37.485 98.8594 38.3992 98.8594 39.3859C98.8594 40.3697 98.8621 41.355 98.8705 42.3417C98.8816 43.3297 98.8872 44.2342 98.8872 45.0581C98.8872 45.8819 98.8872 46.5471 98.8872 47.0508C98.8872 47.5518 98.8872 47.8023 98.8872 47.8023L100.195 48.7096V49.1382H92.5415L92.5136 48.7096L94.0221 47.8023V34.1813L92.714 33.3296V32.901C92.714 32.901 92.8755 32.901 93.1983 32.901C93.5212 32.901 93.9275 32.901 94.4174 32.901C94.91 32.901 95.4082 32.901 95.9092 32.901C96.4129 32.901 96.8554 32.901 97.234 32.901C97.6153 32.901 97.8435 32.901 97.9186 32.901C98.5045 32.901 98.8176 33.1765 98.8594 33.7248Z" fill="white"/>
<path d="M108.869 37.2205C109.284 37.7521 109.818 38.3157 110.472 38.9127C111.125 39.5111 111.778 40.1318 112.432 40.7775C113.088 41.4232 113.634 42.0884 114.068 42.7703C114.505 43.4535 114.733 44.1646 114.753 44.9022C114.771 45.6411 114.459 46.3996 113.818 47.1789C113.228 47.8802 112.5 48.3687 111.636 48.6428C110.774 48.9184 109.874 49.0547 108.936 49.0547C107.997 49.0547 107.1 48.9754 106.247 48.8154C105.397 48.6526 104.683 48.4814 104.104 48.3033C103.525 48.1224 103.187 48.0027 103.091 47.947C103.091 47.9248 103.152 47.7438 103.275 47.4015C103.4 47.0606 103.543 46.6584 103.703 46.1936C103.866 45.7302 104.018 45.2751 104.16 44.8298C104.3 44.3845 104.41 44.0491 104.488 43.8223H105C105.19 44.2384 105.359 44.7074 105.513 45.2306C105.664 45.7511 105.848 46.2534 106.064 46.7391C106.282 47.222 106.572 47.6339 106.932 47.9748C107.291 48.3172 107.767 48.5245 108.357 48.5983C108.754 48.654 109.108 48.608 109.42 48.4591C109.732 48.3074 109.924 48.0333 109.999 47.6353C110.077 47.2345 109.966 46.7113 109.665 46.0656C109.264 45.2348 108.749 44.5265 108.123 43.9392C107.5 43.3492 106.855 42.78 106.192 42.2303C105.526 41.6778 104.941 41.0614 104.433 40.3823C103.616 39.3399 103.165 38.3923 103.08 37.5378C102.994 36.6848 103.177 35.9403 103.631 35.3057C104.088 34.6683 104.728 34.1507 105.552 33.7527C106.378 33.356 107.313 33.1014 108.357 32.9901C109.399 32.8759 110.461 32.9177 111.541 33.1181C112.621 33.3157 113.634 33.6886 114.58 34.2369C114.58 34.2564 114.513 34.4415 114.38 34.7936C114.249 35.1429 114.09 35.5603 113.901 36.046C113.712 36.5289 113.531 36.9895 113.361 37.4265C113.19 37.8607 113.075 38.1821 113.016 38.3895H112.565C112.45 38.0666 112.306 37.6157 112.137 37.0368C111.965 36.4579 111.766 35.8762 111.541 35.289C111.292 34.6433 110.945 34.1646 110.5 33.8528C110.055 33.5411 109.609 33.3908 109.164 33.402C108.719 33.4103 108.358 33.5606 108.084 33.8528C107.809 34.1465 107.714 34.5793 107.8 35.1498C107.885 35.7176 108.242 36.4078 108.869 37.2205Z" fill="white"/>
</svg>
