<svg width="171" height="73" viewBox="0 0 171 73" fill="none" xmlns="http://www.w3.org/2000/svg">
<path d="M18.6032 32.0929C20.0129 32.0106 21.0691 31.4507 21.7698 30.4133C22.4747 29.376 22.7868 28.0381 22.7041 26.3955C22.6214 24.7551 22.0592 23.0364 21.0174 21.2416C21.0443 21.1881 21.0774 21.1325 21.1166 21.0769C21.16 21.0172 21.1952 20.9452 21.2241 20.8628C22.1274 20.974 23.1196 21.149 24.2006 21.3898C25.2858 21.6265 26.3275 21.8796 27.3259 22.1472C28.3284 22.4107 29.1531 22.6412 29.798 22.8388C30.4471 23.0364 30.7737 23.1352 30.7737 23.1352C30.7447 25.0124 30.2879 26.6899 29.4012 28.1657C28.5124 29.6374 27.1812 30.7879 25.4077 31.6154C23.6322 32.4387 21.3936 32.8504 18.6941 32.8504C16.1579 32.8504 13.94 32.3893 12.0384 31.4672C10.1367 30.5409 8.57407 29.306 7.35041 27.7623C6.12674 26.2206 5.22553 24.5019 4.64677 22.6083C4.06801 20.7147 3.82204 18.7881 3.91092 16.8286C4.02047 14.2166 4.6509 11.8805 5.80429 9.82216C6.96181 7.75975 8.49139 6.07606 10.393 4.77522C12.2947 3.47026 14.4278 2.649 16.7925 2.3135C19.1571 1.98006 21.621 2.21882 24.1841 3.02979C26.3772 3.76048 28.0163 4.92342 29.1035 6.52065C30.1887 8.11789 30.7447 9.9683 30.7737 12.0698C30.7737 12.0698 30.4616 12.1645 29.8394 12.3497C29.2214 12.5309 28.4338 12.7573 27.4747 13.0249C26.5198 13.2883 25.507 13.5415 24.4321 13.7823C23.3614 14.019 22.3775 14.1919 21.4804 14.301C21.3978 14.159 21.3399 14.0458 21.3068 13.9634C21.2779 13.8811 21.2365 13.7823 21.1828 13.6671C22.1419 11.8722 22.6483 10.1762 22.7041 8.57895C22.7578 6.98171 22.4333 5.6644 21.7285 4.62702C21.0278 3.58964 19.986 3.0442 18.6032 2.98862C17.5945 2.93511 16.7098 3.29325 15.9491 4.06717C15.1885 4.83697 14.5456 5.90111 14.0227 7.26164C13.5039 8.61806 13.1091 10.1515 12.8404 11.864C12.5758 13.5724 12.427 15.3219 12.3939 17.1168C12.365 19.0001 12.4786 20.8464 12.7329 22.6577C12.9851 24.4649 13.3716 26.0889 13.8904 27.5317C14.4134 28.9766 15.0686 30.1128 15.8582 30.9403C16.6457 31.7636 17.5614 32.1485 18.6032 32.0929Z" fill="#004AAD"/>
<path d="M53.4134 30.8744L55.3977 32.2164V32.8504C55.3977 32.8504 54.9099 32.8421 53.9343 32.8257C52.9628 32.8133 51.5635 32.8092 49.7342 32.8092C47.9028 32.8092 46.4869 32.8133 45.4844 32.8257C44.486 32.8421 43.9879 32.8504 43.9879 32.8504L43.9466 32.2164L46.1872 30.8744C46.1872 30.2878 46.1872 29.4624 46.1872 28.3962C46.1872 27.3259 46.1913 26.1403 46.2037 24.8395C46.2203 23.5345 46.2203 22.2028 46.2037 20.8464C46.1913 19.4859 46.1789 18.2241 46.1624 17.0591C46.15 15.8962 46.1314 14.9226 46.1045 14.1364C46.0756 13.3522 46.0342 12.8746 45.9805 12.7038C45.8089 12.2263 45.4431 11.8846 44.8808 11.6746C44.3186 11.4606 43.6985 11.3988 43.0205 11.4853C42.3426 11.5676 41.7225 11.8064 41.1602 12.2016C40.598 12.5926 40.2301 13.1381 40.0606 13.84C40.0606 15.8612 40.0606 17.8722 40.0606 19.8749C40.0606 21.8797 40.0606 23.7157 40.0606 25.3829C40.0606 27.0522 40.0606 28.3859 40.0606 29.3842C40.0606 30.3784 40.0606 30.8744 40.0606 30.8744L42.0449 32.2164V32.8504C42.0449 32.8504 41.5654 32.8421 40.6063 32.8257C39.6513 32.8133 38.2602 32.8092 36.4309 32.8092C34.5996 32.8092 33.1837 32.8133 32.1812 32.8257C31.1828 32.8421 30.6847 32.8504 30.6847 32.8504L30.6433 32.2164L32.884 30.8744V1.9348L30.941 0.633955V0.0411659C30.941 0.0411659 31.249 0.0370496 31.867 0.0246995C32.4892 0.00823318 33.2271 0 34.0828 0C34.9427 0 35.724 0 36.4309 0C36.8547 0 37.2536 0 37.6298 0C38.0101 0 38.3429 0 38.6302 0C39.0767 0.0288159 39.4322 0.162605 39.6968 0.403426C39.9655 0.64013 40.0875 0.996214 40.0606 1.47374C40.0606 1.61164 40.0606 2.19826 40.0606 3.23564C40.0606 4.27302 40.0606 5.58621 40.0606 7.1711C40.0606 8.75804 40.0606 10.4891 40.0606 12.3662C40.567 11.5553 41.3008 10.8822 42.2599 10.3491C43.219 9.81806 44.2607 9.45169 45.3852 9.25409C46.5096 9.05649 47.6052 9.05649 48.6759 9.25409C49.7507 9.45169 50.6871 9.86129 51.487 10.4808C52.291 11.0963 52.8202 11.9628 53.0744 13.0825C53.1571 13.4448 53.2191 13.8112 53.2646 14.1775C53.308 14.5398 53.3431 15.0585 53.3721 15.7336C53.399 16.4046 53.4134 17.3432 53.4134 18.5493C53.4134 19.7576 53.4134 21.3486 53.4134 23.3246C53.4134 25.3006 53.4134 27.8178 53.4134 30.8744Z" fill="#004AAD"/>
<path d="M75.2515 32.1751V32.8091C75.2515 32.8091 74.6003 32.805 73.3002 32.7926C72.0042 32.7761 70.4415 32.7679 68.6122 32.7679C67.7958 32.7679 67.0082 32.7761 66.2476 32.7926C65.4869 32.805 65.1066 32.8091 65.1066 32.8091V30.4544C64.2633 31.5741 63.2711 32.346 62.1301 32.7679C60.9891 33.1899 59.875 33.2804 58.7899 33.0396C57.7088 32.805 56.8076 32.2389 56.0862 31.3436C55.369 30.4441 55.0114 29.2359 55.0114 27.721C55.0114 26.344 55.3008 25.2428 55.8795 24.4195C56.4583 23.592 57.19 22.9251 58.0788 22.4188C58.9655 21.9145 59.8812 21.4946 60.8238 21.1591C61.7663 20.8257 62.6303 20.4819 63.4199 20.13C64.2075 19.7801 64.7842 19.3231 65.1479 18.7633C65.181 16.6288 65.181 14.9925 65.1479 13.8563C65.119 12.7201 65.0694 11.8947 64.9991 11.3781C64.933 10.8574 64.8131 10.456 64.6436 10.1761C64.4782 9.86938 64.1475 9.66561 63.6514 9.56681C63.1595 9.46802 62.6531 9.53182 62.1301 9.75618C61.6113 9.98259 61.2082 10.4189 60.923 11.0653C60.6419 11.7074 60.6047 12.6049 60.8155 13.7575C61.0305 14.906 61.6175 16.3757 62.5766 18.1705C62.405 18.3413 62.2376 18.4813 62.0723 18.5904C61.3116 18.4813 60.4869 18.3269 59.6001 18.1293C58.7113 17.9317 57.8928 17.73 57.1445 17.5201C56.4004 17.3122 55.8299 17.1496 55.433 17.0343C55.2946 16.9808 55.1891 16.8696 55.1189 16.705C55.0465 16.5362 55.0114 16.3921 55.0114 16.2769C55.1271 14.7352 55.5695 13.459 56.3425 12.4484C57.1197 11.4399 58.0788 10.6536 59.2198 10.0937C60.3608 9.53388 61.5844 9.18603 62.8908 9.04812C64.2013 8.9061 65.4621 8.94727 66.6693 9.17162C67.8805 9.39803 68.9368 9.78911 69.8359 10.349C70.7392 10.9088 71.3448 11.5963 71.6549 12.4073C71.9629 13.1112 72.153 13.9798 72.2254 15.0172C72.2956 16.0546 72.3328 17.2731 72.3328 18.6727C72.3328 19.0679 72.3328 19.7307 72.3328 20.6569C72.3328 21.579 72.3328 22.6164 72.3328 23.769C72.3328 24.9176 72.3246 26.0311 72.308 27.1117C72.2956 28.1882 72.2915 29.0774 72.2915 29.7793C72.2915 30.4832 72.2915 30.8331 72.2915 30.8331L75.2515 32.1751ZM61.5596 26.3296C61.5596 27.6201 61.7684 28.5525 62.188 29.1288C62.6117 29.7052 63.1057 30.0304 63.668 30.1004C64.2343 30.1662 64.7139 30.0736 65.1066 29.8204C65.1066 29.8204 65.1066 29.522 65.1066 28.923C65.1066 28.3199 65.1107 27.5625 65.1231 26.6507C65.1397 25.7347 65.1479 24.7879 65.1479 23.8102C65.1479 22.8284 65.1479 21.9392 65.1479 21.1427C65.1479 20.342 65.1479 19.7718 65.1479 19.4302C64.7015 20.0518 64.193 20.6404 63.6266 21.2003C63.0644 21.7601 62.5787 22.4332 62.1715 23.2174C61.7622 24.0037 61.5596 25.0411 61.5596 26.3296Z" fill="#004AAD"/>
<path d="M83.9503 10.0526C85.0459 9.43921 86.2282 9.05431 87.4973 8.89994C88.7644 8.74145 89.8475 8.77438 90.7466 8.99874C90.7466 9.02755 90.7384 9.27455 90.7218 9.73972C90.7094 10.2008 90.7053 10.7689 90.7053 11.444C90.7053 12.115 90.697 12.786 90.6805 13.4611C90.6681 14.1321 90.664 14.7002 90.664 15.1654C90.664 15.6264 90.664 15.8714 90.664 15.8981C90.5193 15.8446 90.2857 15.6141 89.9612 15.2066C89.6408 14.8011 89.2687 14.305 88.845 13.7163C88.4254 13.1236 88.0037 12.5472 87.58 11.9874C87.1542 11.4275 86.7656 10.9582 86.4142 10.5795C86.067 10.2008 85.7796 10.0114 85.5543 10.0114C84.7937 10.1226 84.2583 10.5857 83.9503 11.4028C83.9503 12.1273 83.9503 13.1153 83.9503 14.3668C83.9503 15.6141 83.9503 16.9664 83.9503 18.4257C83.9503 19.8809 83.9545 21.3382 83.9669 22.7975C83.9834 24.2589 83.9917 25.5968 83.9917 26.8153C83.9917 28.0338 83.9917 29.0177 83.9917 29.7628C83.9917 30.5038 83.9917 30.8743 83.9917 30.8743L85.9347 32.2163V32.8503H74.5662L74.5248 32.2163L76.7655 30.8743V10.7277L74.8225 9.46803V8.83408C74.8225 8.83408 75.0622 8.83408 75.5418 8.83408C76.0213 8.83408 76.6249 8.83408 77.3525 8.83408C78.0842 8.83408 78.8242 8.83408 79.5683 8.83408C80.3166 8.83408 80.9739 8.83408 81.5361 8.83408C82.1024 8.83408 82.4414 8.83408 82.5531 8.83408C83.4233 8.83408 83.8883 9.24162 83.9503 10.0526Z" fill="#004AAD"/>
<path d="M101.266 32.2164V32.8092C101.266 32.8092 100.786 32.8092 99.8269 32.8092C98.8678 32.8092 97.4726 32.8092 95.6433 32.8092C93.8119 32.8092 92.3898 32.8092 91.377 32.8092C90.3621 32.8092 89.8557 32.8092 89.8557 32.8092V32.2164L92.0963 30.8744V1.9348L90.1534 0.633955V0.0411659C90.1534 0.0411659 90.4613 0.0370496 91.0794 0.0246995C91.7015 0.00823318 92.4436 0 93.3035 0C94.1633 0 94.9426 0 95.6433 0C96.067 0 96.4701 0 96.8504 0C97.2308 0 97.5615 0 97.8426 0C98.2932 0.0288159 98.6529 0.162605 98.9174 0.403426C99.1861 0.64013 99.3081 0.996214 99.2812 1.47374C99.2812 1.6384 99.2812 2.29706 99.2812 3.4497C99.2812 4.59823 99.2812 6.0555 99.2812 7.82152C99.2812 9.58959 99.2812 11.5059 99.2812 13.5683C99.2812 15.6266 99.2812 17.6746 99.2812 19.7102C99.2812 21.7418 99.2812 23.6004 99.2812 25.2841C99.2812 26.9637 99.2812 28.318 99.2812 29.343C99.2812 30.364 99.2812 30.8744 99.2812 30.8744L101.266 32.2164Z" fill="#004AAD"/>
<path d="M111.742 9.41862C115.512 9.41862 118.162 10.4231 119.696 12.432C121.234 14.4367 122.003 17.3184 122.003 21.0768C122.003 23.5138 121.676 25.603 121.027 27.3422C120.382 29.0836 119.312 30.4173 117.819 31.3436C116.331 32.2657 114.305 32.7267 111.742 32.7267C108.39 32.7267 105.826 31.817 104.053 29.9933C102.277 28.1717 101.403 25.1152 101.432 20.8216C101.486 17.0899 102.302 14.2577 103.879 12.3249C105.454 10.3881 108.075 9.41862 111.742 9.41862ZM111.742 10.2666C111.174 10.2666 110.709 10.561 110.345 11.1476C109.981 11.7363 109.686 12.4937 109.46 13.4199C109.233 14.3421 109.072 15.3218 108.972 16.3592C108.873 17.3966 108.815 18.3804 108.799 19.3067C108.786 20.235 108.782 20.978 108.782 21.5379C108.782 22.071 108.795 22.7646 108.824 23.6209C108.85 24.4771 108.919 25.3828 109.03 26.3378C109.146 27.2887 109.307 28.182 109.518 29.0218C109.733 29.8616 110.022 30.5511 110.386 31.0883C110.754 31.6214 111.207 31.887 111.742 31.887C112.304 31.887 112.761 31.607 113.115 31.0472C113.466 30.4832 113.753 29.7587 113.975 28.8736C114.2 27.9906 114.367 27.052 114.479 26.0579C114.595 25.0658 114.665 24.121 114.694 23.2257C114.721 22.3262 114.735 21.6099 114.735 21.0768C114.735 20.5458 114.721 19.8315 114.694 18.9362C114.665 18.0367 114.595 17.0899 114.479 16.0957C114.367 15.0975 114.2 14.1568 113.975 13.2718C113.753 12.3887 113.466 11.6663 113.115 11.1064C112.761 10.5466 112.304 10.2666 111.742 10.2666Z" fill="#004AAD"/>
<path d="M134.842 8.7929V9.55036H131.717C131.717 11.2032 131.721 13.0968 131.733 15.2312C131.75 17.3616 131.758 19.5619 131.758 21.8343C131.758 24.1025 131.758 26.3172 131.758 28.4784C131.758 28.676 131.762 28.993 131.775 29.4252C131.791 29.8595 131.804 30.265 131.816 30.6438C131.833 31.0225 131.841 31.2118 131.841 31.2118L135.479 28.816L136.148 29.3182C134.852 30.3021 133.747 31.1357 132.833 31.8211C131.917 32.5086 130.911 32.8502 129.815 32.8502C128.182 32.8502 126.979 32.558 126.202 31.9693C125.429 31.3827 124.931 30.5429 124.706 29.4499C124.478 28.3529 124.393 27.0541 124.449 25.5557C124.509 24.0531 124.54 22.39 124.54 20.5663C124.54 19.249 124.54 17.73 124.54 16.0052C124.54 14.2824 124.54 12.1315 124.54 9.55036H122.887V8.7929H124.54C124.54 8.23305 124.54 7.57028 124.54 6.80048C124.54 6.02656 124.54 5.33085 124.54 4.70925L122.589 3.44957V2.81562C122.589 2.81562 122.905 2.8115 123.54 2.79915C124.172 2.78269 124.92 2.77445 125.78 2.77445C126.64 2.77445 127.409 2.77445 128.087 2.77445C128.505 2.77445 128.906 2.77445 129.286 2.77445C129.666 2.77445 130.009 2.78886 130.32 2.81562C131.279 2.81562 131.758 3.29314 131.758 4.24819C131.729 4.39227 131.717 4.90479 131.717 5.78779C131.717 6.66669 131.717 7.66908 131.717 8.7929H134.842Z" fill="#004AAD"/>
<path d="M148.907 8.7929V9.55036H145.782C145.782 11.2032 145.786 13.0968 145.798 15.2312C145.815 17.3616 145.823 19.5619 145.823 21.8343C145.823 24.1025 145.823 26.3172 145.823 28.4784C145.823 28.676 145.827 28.993 145.84 29.4252C145.856 29.8595 145.868 30.265 145.881 30.6438C145.897 31.0225 145.906 31.2118 145.906 31.2118L149.544 28.816L150.213 29.3182C148.917 30.3021 147.811 31.1357 146.898 31.8211C145.982 32.5086 144.976 32.8502 143.88 32.8502C142.247 32.8502 141.044 32.558 140.267 31.9693C139.494 31.3827 138.996 30.5429 138.77 29.4499C138.543 28.3529 138.458 27.0541 138.514 25.5557C138.574 24.0531 138.605 22.39 138.605 20.5663C138.605 19.249 138.605 17.73 138.605 16.0052C138.605 14.2824 138.605 12.1315 138.605 9.55036H136.951V8.7929H138.605C138.605 8.23305 138.605 7.57028 138.605 6.80048C138.605 6.02656 138.605 5.33085 138.605 4.70925L136.654 3.44957V2.81562C136.654 2.81562 136.97 2.8115 137.605 2.79915C138.237 2.78269 138.985 2.77445 139.845 2.77445C140.705 2.77445 141.474 2.77445 142.152 2.77445C142.57 2.77445 142.971 2.77445 143.351 2.77445C143.731 2.77445 144.074 2.78886 144.384 2.81562C145.343 2.81562 145.823 3.29314 145.823 4.24819C145.794 4.39227 145.782 4.90479 145.782 5.78779C145.782 6.66669 145.782 7.66908 145.782 8.7929H148.907Z" fill="#004AAD"/>
<path d="M171 15.9806C171 16.0959 170.963 16.24 170.893 16.4087C170.82 16.5734 170.715 16.6845 170.578 16.7381C170.351 16.7998 169.878 17.018 169.156 17.3967C168.439 17.7754 167.573 18.2406 166.56 18.7881C165.545 19.3315 164.51 19.8831 163.451 20.443C162.397 21.0029 161.405 21.4948 160.475 21.9167C159.549 22.3346 158.817 22.6145 158.284 22.7565C158.592 24.5514 159.204 25.8851 160.119 26.7578C161.033 27.6264 162.066 28.0998 163.22 28.1822C164.377 28.2645 165.504 28.0402 166.601 27.5071C167.703 26.976 168.604 26.2186 169.305 25.2347L169.818 25.4488C169.222 27.4412 168.332 29.0199 167.147 30.1828C165.967 31.3478 164.638 32.1259 163.162 32.5211C161.684 32.9101 160.198 32.943 158.705 32.6199C157.211 32.2967 155.822 31.6298 154.538 30.6192C153.259 29.6106 152.225 28.2872 151.438 26.6508C150.648 25.0103 150.256 23.0817 150.256 20.8629C150.256 18.537 150.621 16.5611 151.355 14.935C152.087 13.3048 153.029 12.0163 154.183 11.0654C155.394 10.028 156.732 9.31586 158.193 8.92478C159.658 8.52959 161.116 8.41021 162.567 8.56252C164.022 8.71689 165.365 9.11826 166.601 9.76456C167.842 10.4068 168.854 11.2548 169.644 12.3086C170.432 13.3583 170.884 14.581 171 15.9806ZM166.014 11.8229C166.184 11.2301 166.114 10.7402 165.799 10.3491C165.489 9.95393 165.041 9.69458 164.452 9.56697C163.861 9.44141 163.232 9.47229 162.567 9.65753C161.905 9.83866 161.322 10.2092 160.822 10.769C160.088 11.582 159.445 12.7738 158.896 14.3422C158.344 15.9127 158.069 17.8742 158.069 20.2289C158.069 20.4821 158.077 20.7353 158.094 20.9864C158.11 21.2396 158.131 21.4783 158.16 21.7027C160.832 19.0413 162.744 16.9336 163.898 15.3796C165.055 13.8215 165.76 12.6359 166.014 11.8229Z" fill="#004AAD"/>
<path d="M21.6491 57.8759C22.9431 58.9688 23.865 60.2182 24.4106 61.622C24.9605 63.0216 25.1238 64.4171 24.8985 65.8044C24.6711 67.1938 24.0241 68.4349 22.9555 69.5258C22.2816 70.2009 21.3535 70.7773 20.1692 71.2548C18.9827 71.7282 17.6433 72.0843 16.1509 72.3251C14.6627 72.5618 13.129 72.6709 11.5539 72.6544C9.97677 72.6421 8.45546 72.498 6.98996 72.2181C5.52239 71.9381 4.22017 71.5183 3.07919 70.9584C1.93821 70.3944 1.07213 69.6781 0.483036 68.8095C0.0634348 68.1673 -0.083322 67.4675 0.0448319 66.7101C0.170919 65.9526 0.443763 65.1828 0.863364 64.3966C1.2871 63.6123 1.74391 62.8487 2.23585 62.1077C2.73193 61.3626 3.13293 60.6957 3.44298 60.1071C3.5794 60.1071 3.70342 60.1071 3.81504 60.1071C3.93079 60.1071 4.01554 60.1071 4.07135 60.1071C4.38553 62.9949 4.92296 65.3084 5.68361 67.0476C6.44427 68.7828 7.31448 70.028 8.2963 70.7855C9.28226 71.543 10.2413 71.9217 11.1736 71.9217C11.988 71.9217 12.8044 71.6829 13.6209 71.2054C14.4353 70.7279 15.1029 70.0836 15.6218 69.2706C16.1447 68.4596 16.3927 67.5478 16.3659 66.5372C16.3369 65.5286 15.9029 64.4912 15.0595 63.425C14.7495 63.036 14.2431 62.6388 13.5382 62.2312C12.8313 61.8196 12.0851 61.412 11.2976 61.0045C10.508 60.599 9.79281 60.1873 9.14791 59.7695C8.15988 59.0944 7.15118 58.4563 6.12182 57.8512C5.09658 57.2481 4.13956 56.6121 3.25282 55.9411C2.36401 55.266 1.65296 54.5085 1.11967 53.6687C0.584319 52.8289 0.317676 51.8327 0.317676 50.6801C0.317676 49.2537 0.780684 47.994 1.7067 46.9011C2.63685 45.804 3.86878 44.8839 5.4025 44.1429C6.94035 43.3978 8.61049 42.8565 10.4129 42.521C12.2153 42.1876 14.0095 42.0908 15.7954 42.2328C17.5854 42.3707 19.2121 42.7639 20.6735 43.4102C22.139 44.0524 23.2655 44.991 24.0551 46.2259C24.4789 46.8414 24.6277 47.5268 24.5016 48.2842C24.3734 49.0417 24.0985 49.8218 23.6748 50.6224C23.249 51.419 22.7984 52.1909 22.3188 52.936C21.8434 53.677 21.4507 54.3418 21.1365 54.9284C21.0538 54.9284 20.9484 54.9284 20.8223 54.9284C20.6942 54.9284 20.5908 54.9284 20.5081 54.9284C20.1113 51.0876 19.2018 48.1422 17.7797 46.0942C16.3576 44.0483 14.7743 42.9821 13.0339 42.8997C12.3559 42.873 11.6138 43.0973 10.8098 43.5748C10.0098 44.0524 9.32153 44.6781 8.74277 45.452C8.16401 46.2218 7.87463 47.0245 7.87463 47.8643C7.87463 48.7041 8.16815 49.4492 8.75931 50.0955C9.35461 50.7377 10.1504 51.3346 11.1488 51.8821C12.1513 52.4255 13.2571 52.9854 14.4642 53.5617C15.6755 54.138 16.9033 54.7699 18.1435 55.4553C19.3837 56.1428 20.5516 56.9496 21.6491 57.8759Z" fill="#004AAD"/>
<path d="M37.3999 48.622V49.3795H34.2746C34.2746 51.0323 34.2788 52.9259 34.2912 55.0604C34.3077 57.1907 34.316 59.391 34.316 61.6634C34.316 63.9316 34.316 66.1464 34.316 68.3076C34.316 68.5052 34.3201 68.8222 34.3325 69.2544C34.349 69.6887 34.3614 70.0942 34.3738 70.4729C34.3904 70.8516 34.3986 71.041 34.3986 71.041L38.0366 68.6451L38.7063 69.1474C37.4103 70.1312 36.3044 70.9648 35.3908 71.6502C34.4751 72.3377 33.4685 72.6794 32.373 72.6794C30.74 72.6794 29.5371 72.3871 28.7599 71.7984C27.9868 71.2118 27.4887 70.372 27.2633 69.2791C27.036 68.182 26.9512 66.8832 27.007 65.3848C27.067 63.8822 27.098 62.2191 27.098 60.3955C27.098 59.0782 27.098 57.5592 27.098 55.8343C27.098 54.1115 27.098 51.9606 27.098 49.3795H25.4444V48.622H27.098C27.098 48.0622 27.098 47.3994 27.098 46.6296C27.098 45.8557 27.098 45.16 27.098 44.5384L25.1467 43.2787V42.6448C25.1467 42.6448 25.463 42.6406 26.0976 42.6283C26.7301 42.6118 27.4783 42.6036 28.3382 42.6036C29.1981 42.6036 29.967 42.6036 30.645 42.6036C31.0625 42.6036 31.4635 42.6036 31.8438 42.6036C32.2241 42.6036 32.5673 42.618 32.8773 42.6448C33.8364 42.6448 34.316 43.1223 34.316 44.0773C34.287 44.2214 34.2746 44.7339 34.2746 45.6169C34.2746 46.4958 34.2746 47.4982 34.2746 48.622H37.3999Z" fill="#004AAD"/>
<path d="M59.493 55.8094C59.493 55.9246 59.4558 56.0687 59.3855 56.2375C59.3132 56.4022 59.2078 56.5133 59.0713 56.5668C58.844 56.6286 58.3706 56.8468 57.6492 57.2255C56.932 57.6042 56.0659 58.0694 55.0531 58.6169C54.0382 59.1603 53.0026 59.7119 51.9443 60.2718C50.8901 60.8316 49.898 61.3235 48.9678 61.7455C48.0418 62.1633 47.3101 62.4433 46.7768 62.5853C47.0848 64.3801 47.6966 65.7139 48.6123 66.5866C49.5259 67.4552 50.5594 67.9286 51.7128 68.0109C52.8703 68.0933 53.9968 67.8689 55.0944 67.3358C56.1961 66.8048 57.0973 66.0473 57.7981 65.0635L58.3107 65.2775C57.7154 67.27 56.8245 68.8487 55.6401 70.0116C54.4598 71.1766 53.1308 71.9546 51.6549 72.3498C50.177 72.7388 48.6908 72.7718 47.1985 72.4486C45.704 72.1255 44.315 71.4586 43.0314 70.448C41.7519 69.4394 40.7184 68.1159 39.9309 66.4796C39.1413 64.8391 38.7486 62.9105 38.7486 60.6916C38.7486 58.3658 39.1144 56.3898 39.8482 54.7638C40.5799 53.1336 41.5225 51.8451 42.6759 50.8942C43.8871 49.8568 45.2245 49.1446 46.6859 48.7535C48.1514 48.3583 49.6086 48.239 51.0596 48.3913C52.5148 48.5457 53.8583 48.947 55.0944 49.5933C56.3346 50.2355 57.3474 51.0835 58.137 52.1374C58.9246 53.1871 59.3772 54.4097 59.493 55.8094ZM54.5074 51.6516C54.6769 51.0588 54.6066 50.569 54.2924 50.1779C53.9824 49.7827 53.5338 49.5233 52.9447 49.3957C52.3536 49.2702 51.7252 49.301 51.0596 49.4863C50.3982 49.6674 49.8153 50.0379 49.3151 50.5978C48.5813 51.4108 47.9385 52.6026 47.3886 54.171C46.8367 55.7414 46.5618 57.703 46.5618 60.0577C46.5618 60.3109 46.5701 60.564 46.5866 60.8151C46.6032 61.0683 46.6238 61.3071 46.6528 61.5314C49.3254 58.8701 51.2374 56.7624 52.3908 55.2084C53.5483 53.6502 54.2531 52.4646 54.5074 51.6516Z" fill="#004AAD"/>
<path d="M79.6423 72.0043V72.6382C79.6423 72.6382 78.9912 72.6341 77.6911 72.6218C76.3951 72.6053 74.8324 72.5971 73.0031 72.5971C72.1866 72.5971 71.3991 72.6053 70.6385 72.6218C69.8778 72.6341 69.4975 72.6382 69.4975 72.6382V70.2835C68.6541 71.4032 67.662 72.1751 66.521 72.5971C65.38 73.019 64.2659 73.1096 63.1807 72.8688C62.0997 72.6341 61.1985 72.0681 60.4771 71.1727C59.7598 70.2732 59.4022 69.065 59.4022 67.5501C59.4022 66.1731 59.6916 65.0719 60.2704 64.2486C60.8491 63.4212 61.5809 62.7543 62.4697 62.248C63.3564 61.7437 64.2721 61.3238 65.2146 60.9883C66.1572 60.6548 67.0212 60.3111 67.8108 59.9591C68.5983 59.6092 69.175 59.1523 69.5388 58.5924C69.5719 56.458 69.5719 54.8216 69.5388 53.6854C69.5099 52.5493 69.4603 51.7239 69.39 51.2073C69.3238 50.6865 69.204 50.2851 69.0345 50.0052C68.8691 49.6985 68.5384 49.4948 68.0423 49.396C67.5504 49.2972 67.0439 49.361 66.521 49.5853C66.0022 49.8117 65.5991 50.2481 65.3139 50.8944C65.0328 51.5366 64.9955 52.434 65.2064 53.5866C65.4213 54.7352 66.0084 56.2048 66.9675 57.9996C66.7959 58.1705 66.6285 58.3104 66.4631 58.4195C65.7025 58.3104 64.8777 58.1561 63.991 57.9585C63.1022 57.7609 62.2836 57.5592 61.5354 57.3492C60.7913 57.1413 60.2208 56.9787 59.8239 56.8635C59.6854 56.8099 59.58 56.6988 59.5097 56.5341C59.4374 56.3654 59.4022 56.2213 59.4022 56.106C59.518 54.5643 59.9603 53.2882 60.7334 52.2776C61.5106 51.269 62.4697 50.4827 63.6107 49.9229C64.7516 49.363 65.9753 49.0152 67.2816 48.8773C68.5921 48.7353 69.853 48.7764 71.0601 49.0008C72.2714 49.2272 73.3276 49.6183 74.2268 50.1781C75.1301 50.738 75.7357 51.4254 76.0457 52.2364C76.3537 52.9403 76.5439 53.8089 76.6162 54.8463C76.6865 55.8837 76.7237 57.1022 76.7237 58.5019C76.7237 58.897 76.7237 59.5598 76.7237 60.4861C76.7237 61.4082 76.7237 62.4456 76.7237 63.5982C76.7237 64.7467 76.7154 65.8603 76.6989 66.9409C76.6865 68.0174 76.6824 68.9065 76.6824 69.6084C76.6824 70.3123 76.6824 70.6623 76.6824 70.6623L79.6423 72.0043ZM65.9505 66.1587C65.9505 67.4493 66.1593 68.3817 66.5789 68.958C67.0026 69.5343 67.4966 69.8595 68.0588 69.9295C68.6252 69.9954 69.1047 69.9028 69.4975 69.6496C69.4975 69.6496 69.4975 69.3511 69.4975 68.7522C69.4975 68.1491 69.5016 67.3916 69.514 66.4798C69.5305 65.5639 69.5388 64.617 69.5388 63.6394C69.5388 62.6576 69.5388 61.7684 69.5388 60.9718C69.5388 60.1711 69.5388 59.601 69.5388 59.2593C69.0923 59.8809 68.5839 60.4696 68.0175 61.0294C67.4553 61.5893 66.9695 62.2624 66.5623 63.0466C66.1531 63.8328 65.9505 64.8702 65.9505 66.1587Z" fill="#004AAD"/>
<path d="M115.121 70.7032L117.106 72.0452V72.6791H105.696L105.654 72.0452L107.895 70.7032C107.895 67.5643 107.895 65.0696 107.895 63.2192C107.895 61.3647 107.895 59.9671 107.895 59.0285C107.895 58.09 107.895 57.4313 107.895 57.0526C107.895 56.6738 107.895 56.3733 107.895 56.1469C107.895 55.1384 107.895 54.4097 107.895 53.9651C107.895 53.5164 107.881 53.2077 107.854 53.043C107.825 52.8742 107.771 52.7034 107.688 52.5326C107.517 52.0283 107.12 51.6763 106.498 51.4787C105.88 51.2811 105.204 51.2399 104.472 51.3552C103.738 51.4664 103.095 51.7669 102.546 52.2609C102 52.7507 101.713 53.4444 101.686 54.3439C101.713 54.7617 101.731 55.3215 101.744 56.0234C101.76 56.7274 101.768 57.6865 101.768 58.905C101.768 60.1235 101.768 61.6879 101.768 63.5979C101.768 65.5039 101.768 67.871 101.768 70.7032L103.753 72.0452V72.6791H92.3512L92.3098 72.0452L94.5505 70.7032C94.5505 70.1166 94.5505 69.2912 94.5505 68.225C94.5505 67.1547 94.5546 65.9691 94.567 64.6683C94.5835 63.3633 94.5835 62.0316 94.567 60.6752C94.5546 59.3146 94.5422 58.0529 94.5257 56.8879C94.5133 55.725 94.4926 54.7514 94.4595 53.9651C94.4306 53.1809 94.3892 52.7034 94.3355 52.5326C94.1639 52.055 93.8022 51.7134 93.2524 51.5034C92.7067 51.2893 92.0949 51.2276 91.4169 51.314C90.7431 51.3964 90.1271 51.6269 89.5649 52.0056C89.0026 52.3844 88.6223 52.9113 88.4239 53.5864C88.4239 54.8502 88.428 56.2375 88.4404 57.7524C88.457 59.2632 88.4652 60.7822 88.4652 62.3136C88.4652 63.8408 88.4652 65.2343 88.4652 66.496C88.4652 67.7598 88.4652 68.7766 88.4652 69.5505C88.4652 70.3203 88.4652 70.7032 88.4652 70.7032L90.4495 72.0452V72.6791H79.048L79.0066 72.0452L81.239 70.7032V50.5154L79.296 49.2475V48.6218C79.296 48.6218 79.5358 48.6218 80.0153 48.6218C80.4949 48.6218 81.1005 48.6218 81.8343 48.6218C82.566 48.6218 83.306 48.6218 84.0501 48.6218C84.7942 48.6218 85.4474 48.6218 86.0096 48.6218C86.576 48.6218 86.915 48.6218 87.0266 48.6218C87.9857 48.6218 88.4652 49.0973 88.4652 50.0461C88.4652 50.3322 88.4652 50.5237 88.4652 50.6225C88.4652 50.7171 88.457 50.8571 88.4404 51.0423C88.428 51.2235 88.4239 51.594 88.4239 52.1538C89.2114 50.9477 90.218 50.1202 91.4417 49.6756C92.6654 49.2269 93.9965 49.0005 95.4351 49.0005C96.9565 49.0005 98.2421 49.2681 99.2963 49.7991C100.355 50.3322 101.066 51.3429 101.429 52.829C101.599 52.2362 101.988 51.6475 102.595 51.0588C103.201 50.4722 104.017 49.9844 105.043 49.5933C106.072 49.1981 107.304 49.0005 108.738 49.0005C110.313 49.0005 111.624 49.2763 112.666 49.8238C113.707 50.3672 114.412 51.3964 114.782 52.9113C114.836 53.1912 114.884 53.5082 114.923 53.8581C114.966 54.2101 115.001 54.7226 115.03 55.3977C115.063 56.0687 115.084 57.0114 115.096 58.2299C115.113 59.4484 115.121 61.0683 115.121 63.0875C115.121 65.1087 115.121 67.6466 115.121 70.7032Z" fill="#004AAD"/>
<path d="M137.505 55.8094C137.505 55.9246 137.468 56.0687 137.397 56.2375C137.325 56.4022 137.219 56.5133 137.083 56.5668C136.856 56.6286 136.382 56.8468 135.661 57.2255C134.944 57.6042 134.078 58.0694 133.065 58.6169C132.05 59.1603 131.014 59.7119 129.956 60.2718C128.902 60.8316 127.91 61.3235 126.98 61.7455C126.054 62.1633 125.322 62.4433 124.789 62.5853C125.097 64.3801 125.708 65.7139 126.624 66.5866C127.538 67.4552 128.571 67.9286 129.725 68.0109C130.882 68.0933 132.009 67.8689 133.106 67.3358C134.208 66.8048 135.109 66.0473 135.81 65.0635L136.322 65.2775C135.727 67.27 134.836 68.8487 133.652 70.0116C132.472 71.1766 131.142 71.9546 129.667 72.3498C128.189 72.7388 126.703 72.7718 125.21 72.4486C123.716 72.1255 122.327 71.4586 121.043 70.448C119.764 69.4394 118.73 68.1159 117.943 66.4796C117.153 64.8391 116.76 62.9105 116.76 60.6916C116.76 58.3658 117.126 56.3898 117.86 54.7638C118.592 53.1336 119.534 51.8451 120.688 50.8942C121.899 49.8568 123.236 49.1446 124.698 48.7535C126.163 48.3583 127.62 48.239 129.071 48.3913C130.527 48.5457 131.87 48.947 133.106 49.5933C134.346 50.2355 135.359 51.0835 136.149 52.1374C136.936 53.1871 137.389 54.4097 137.505 55.8094ZM132.519 51.6516C132.689 51.0588 132.618 50.569 132.304 50.1779C131.994 49.7827 131.546 49.5233 130.956 49.3957C130.365 49.2702 129.737 49.301 129.071 49.4863C128.41 49.6674 127.827 50.0379 127.327 50.5978C126.593 51.4108 125.95 52.6026 125.4 54.171C124.848 55.7414 124.574 57.703 124.574 60.0577C124.574 60.3109 124.582 60.564 124.598 60.8151C124.615 61.0683 124.636 61.3071 124.665 61.5314C127.337 58.8701 129.249 56.7624 130.402 55.2084C131.56 53.6502 132.265 52.4646 132.519 51.6516Z" fill="#004AAD"/>
<path d="M146.839 49.8817C147.935 49.2684 149.117 48.8835 150.386 48.7291C151.654 48.5706 152.737 48.6035 153.636 48.8279C153.636 48.8567 153.628 49.1037 153.611 49.5689C153.599 50.0299 153.594 50.598 153.594 51.2731C153.594 51.9441 153.586 52.6152 153.57 53.2903C153.557 53.9613 153.553 54.5294 153.553 54.9945C153.553 55.4556 153.553 55.7005 153.553 55.7273C153.408 55.6738 153.175 55.4432 152.85 55.0357C152.53 54.6302 152.158 54.1342 151.734 53.5455C151.315 52.9527 150.893 52.3764 150.469 51.8165C150.043 51.2567 149.655 50.7874 149.303 50.4087C148.956 50.0299 148.669 49.8406 148.443 49.8406C147.683 49.9517 147.147 50.4148 146.839 51.232C146.839 51.9565 146.839 52.9445 146.839 54.1959C146.839 55.4432 146.839 56.7955 146.839 58.2549C146.839 59.7101 146.844 61.1674 146.856 62.6267C146.873 64.0881 146.881 65.426 146.881 66.6445C146.881 67.863 146.881 68.8469 146.881 69.592C146.881 70.3329 146.881 70.7034 146.881 70.7034L148.824 72.0454V72.6794H137.455L137.414 72.0454L139.655 70.7034V50.5569L137.712 49.2972V48.6632C137.712 48.6632 137.951 48.6632 138.431 48.6632C138.91 48.6632 139.514 48.6632 140.242 48.6632C140.973 48.6632 141.713 48.6632 142.457 48.6632C143.206 48.6632 143.863 48.6632 144.425 48.6632C144.992 48.6632 145.331 48.6632 145.442 48.6632C146.312 48.6632 146.777 49.0708 146.839 49.8817Z" fill="#004AAD"/>
<path d="M161.707 55.0521C162.323 55.8384 163.117 56.672 164.089 57.555C165.058 58.4401 166.027 59.3581 166.999 60.3131C167.974 61.2682 168.785 62.2521 169.43 63.2606C170.079 64.2712 170.418 65.323 170.447 66.4139C170.473 67.5069 170.01 68.6287 169.058 69.7813C168.181 70.8187 167.1 71.5411 165.817 71.9466C164.537 72.3542 163.2 72.5559 161.807 72.5559C160.411 72.5559 159.08 72.4386 157.813 72.2019C156.55 71.961 155.49 71.7079 154.63 71.4444C153.77 71.1768 153.268 70.9998 153.125 70.9175C153.125 70.8845 153.216 70.617 153.398 70.1106C153.584 69.6063 153.797 69.0115 154.035 68.324C154.276 67.6386 154.502 66.9656 154.713 66.3069C154.921 65.6482 155.085 65.1522 155.2 64.8167H155.961C156.242 65.4321 156.494 66.1258 156.722 66.8997C156.947 67.6695 157.22 68.4125 157.54 69.1309C157.865 69.8451 158.295 70.4544 158.83 70.9586C159.363 71.465 160.07 71.7717 160.947 71.8808C161.536 71.9631 162.063 71.8952 162.526 71.6749C162.989 71.4506 163.274 71.0451 163.386 70.4564C163.502 69.8636 163.336 69.0897 162.89 68.1347C162.294 66.9059 161.53 65.8582 160.599 64.9896C159.673 64.1169 158.716 63.275 157.73 62.462C156.742 61.6449 155.872 60.733 155.118 59.7286C153.904 58.1869 153.235 56.7852 153.109 55.5214C152.98 54.2597 153.253 53.1585 153.927 52.2199C154.605 51.2772 155.556 50.5115 156.78 49.9229C158.007 49.3363 159.396 48.9596 160.947 48.7949C162.495 48.6262 164.072 48.6879 165.676 48.9843C167.28 49.2766 168.785 49.8282 170.19 50.6392C170.19 50.668 170.091 50.9417 169.893 51.4625C169.698 51.9791 169.463 52.5966 169.182 53.3149C168.901 54.0292 168.632 54.7105 168.38 55.3568C168.125 55.999 167.954 56.4744 167.867 56.7811H167.197C167.026 56.3036 166.813 55.6367 166.561 54.7805C166.306 53.9242 166.011 53.0638 165.676 52.1952C165.306 51.2402 164.791 50.5321 164.13 50.0711C163.468 49.61 162.807 49.3877 162.146 49.4042C161.484 49.4165 160.949 49.6388 160.542 50.0711C160.132 50.5054 159.992 51.1455 160.12 51.9894C160.246 52.8292 160.775 53.8501 161.707 55.0521Z" fill="#004AAD"/>
<path d="M18.6032 32.0929C20.0129 32.0106 21.0691 31.4507 21.7698 30.4133C22.4747 29.376 22.7868 28.0381 22.7041 26.3955C22.6214 24.7551 22.0592 23.0364 21.0174 21.2416C21.0443 21.1881 21.0774 21.1325 21.1166 21.0769C21.16 21.0172 21.1952 20.9452 21.2241 20.8628C22.1274 20.974 23.1196 21.149 24.2006 21.3898C25.2858 21.6265 26.3275 21.8796 27.3259 22.1472C28.3284 22.4107 29.1531 22.6412 29.798 22.8388C30.4471 23.0364 30.7737 23.1352 30.7737 23.1352C30.7447 25.0124 30.2879 26.6899 29.4012 28.1657C28.5124 29.6374 27.1812 30.7879 25.4077 31.6154C23.6322 32.4387 21.3936 32.8504 18.6941 32.8504C16.1579 32.8504 13.94 32.3893 12.0384 31.4672C10.1367 30.5409 8.57407 29.306 7.35041 27.7623C6.12674 26.2206 5.22553 24.5019 4.64677 22.6083C4.06801 20.7147 3.82204 18.7881 3.91092 16.8286C4.02047 14.2166 4.6509 11.8805 5.80429 9.82216C6.96181 7.75975 8.49139 6.07606 10.393 4.77522C12.2947 3.47026 14.4278 2.649 16.7925 2.3135C19.1571 1.98006 21.621 2.21882 24.1841 3.02979C26.3772 3.76048 28.0163 4.92342 29.1035 6.52065C30.1887 8.11789 30.7447 9.9683 30.7737 12.0698C30.7737 12.0698 30.4616 12.1645 29.8394 12.3497C29.2214 12.5309 28.4338 12.7573 27.4747 13.0249C26.5198 13.2883 25.507 13.5415 24.4321 13.7823C23.3614 14.019 22.3775 14.1919 21.4804 14.301C21.3978 14.159 21.3399 14.0458 21.3068 13.9634C21.2779 13.8811 21.2365 13.7823 21.1828 13.6671C22.1419 11.8722 22.6483 10.1762 22.7041 8.57895C22.7578 6.98171 22.4333 5.6644 21.7285 4.62702C21.0278 3.58964 19.986 3.0442 18.6032 2.98862C17.5945 2.93511 16.7098 3.29325 15.9491 4.06717C15.1885 4.83697 14.5456 5.90111 14.0227 7.26164C13.5039 8.61806 13.1091 10.1515 12.8404 11.864C12.5758 13.5724 12.427 15.3219 12.3939 17.1168C12.365 19.0001 12.4786 20.8464 12.7329 22.6577C12.9851 24.4649 13.3716 26.0889 13.8904 27.5317C14.4134 28.9766 15.0686 30.1128 15.8582 30.9403C16.6457 31.7636 17.5614 32.1485 18.6032 32.0929Z" fill="#004AAD"/>
<path d="M53.4134 30.8744L55.3977 32.2164V32.8504C55.3977 32.8504 54.9099 32.8421 53.9343 32.8257C52.9628 32.8133 51.5635 32.8092 49.7342 32.8092C47.9028 32.8092 46.4869 32.8133 45.4844 32.8257C44.486 32.8421 43.9879 32.8504 43.9879 32.8504L43.9466 32.2164L46.1872 30.8744C46.1872 30.2878 46.1872 29.4624 46.1872 28.3962C46.1872 27.3259 46.1913 26.1403 46.2037 24.8395C46.2203 23.5345 46.2203 22.2028 46.2037 20.8464C46.1913 19.4859 46.1789 18.2241 46.1624 17.0591C46.15 15.8962 46.1314 14.9226 46.1045 14.1364C46.0756 13.3522 46.0342 12.8746 45.9805 12.7038C45.8089 12.2263 45.4431 11.8846 44.8808 11.6746C44.3186 11.4606 43.6985 11.3988 43.0205 11.4853C42.3426 11.5676 41.7225 11.8064 41.1602 12.2016C40.598 12.5926 40.2301 13.1381 40.0606 13.84C40.0606 15.8612 40.0606 17.8722 40.0606 19.8749C40.0606 21.8797 40.0606 23.7157 40.0606 25.3829C40.0606 27.0522 40.0606 28.3859 40.0606 29.3842C40.0606 30.3784 40.0606 30.8744 40.0606 30.8744L42.0449 32.2164V32.8504C42.0449 32.8504 41.5654 32.8421 40.6063 32.8257C39.6513 32.8133 38.2602 32.8092 36.4309 32.8092C34.5996 32.8092 33.1837 32.8133 32.1812 32.8257C31.1828 32.8421 30.6847 32.8504 30.6847 32.8504L30.6433 32.2164L32.884 30.8744V1.9348L30.941 0.633955V0.0411659C30.941 0.0411659 31.249 0.0370496 31.867 0.0246995C32.4892 0.00823318 33.2271 0 34.0828 0C34.9427 0 35.724 0 36.4309 0C36.8547 0 37.2536 0 37.6298 0C38.0101 0 38.3429 0 38.6302 0C39.0767 0.0288159 39.4322 0.162605 39.6968 0.403426C39.9655 0.64013 40.0875 0.996214 40.0606 1.47374C40.0606 1.61164 40.0606 2.19826 40.0606 3.23564C40.0606 4.27302 40.0606 5.58621 40.0606 7.1711C40.0606 8.75804 40.0606 10.4891 40.0606 12.3662C40.567 11.5553 41.3008 10.8822 42.2599 10.3491C43.219 9.81806 44.2607 9.45169 45.3852 9.25409C46.5096 9.05649 47.6052 9.05649 48.6759 9.25409C49.7507 9.45169 50.6871 9.86129 51.487 10.4808C52.291 11.0963 52.8202 11.9628 53.0744 13.0825C53.1571 13.4448 53.2191 13.8112 53.2646 14.1775C53.308 14.5398 53.3431 15.0585 53.3721 15.7336C53.399 16.4046 53.4134 17.3432 53.4134 18.5493C53.4134 19.7576 53.4134 21.3486 53.4134 23.3246C53.4134 25.3006 53.4134 27.8178 53.4134 30.8744Z" fill="#004AAD"/>
<path d="M75.2515 32.1751V32.8091C75.2515 32.8091 74.6003 32.805 73.3002 32.7926C72.0042 32.7761 70.4415 32.7679 68.6122 32.7679C67.7958 32.7679 67.0082 32.7761 66.2476 32.7926C65.4869 32.805 65.1066 32.8091 65.1066 32.8091V30.4544C64.2633 31.5741 63.2711 32.346 62.1301 32.7679C60.9891 33.1899 59.875 33.2804 58.7899 33.0396C57.7088 32.805 56.8076 32.2389 56.0862 31.3436C55.369 30.4441 55.0114 29.2359 55.0114 27.721C55.0114 26.344 55.3008 25.2428 55.8795 24.4195C56.4583 23.592 57.19 22.9251 58.0788 22.4188C58.9655 21.9145 59.8812 21.4946 60.8238 21.1591C61.7663 20.8257 62.6303 20.4819 63.4199 20.13C64.2075 19.7801 64.7842 19.3231 65.1479 18.7633C65.181 16.6288 65.181 14.9925 65.1479 13.8563C65.119 12.7201 65.0694 11.8947 64.9991 11.3781C64.933 10.8574 64.8131 10.456 64.6436 10.1761C64.4782 9.86938 64.1475 9.66561 63.6514 9.56681C63.1595 9.46802 62.6531 9.53182 62.1301 9.75618C61.6113 9.98259 61.2082 10.4189 60.923 11.0653C60.6419 11.7074 60.6047 12.6049 60.8155 13.7575C61.0305 14.906 61.6175 16.3757 62.5766 18.1705C62.405 18.3413 62.2376 18.4813 62.0723 18.5904C61.3116 18.4813 60.4869 18.3269 59.6001 18.1293C58.7113 17.9317 57.8928 17.73 57.1445 17.5201C56.4004 17.3122 55.8299 17.1496 55.433 17.0343C55.2946 16.9808 55.1891 16.8696 55.1189 16.705C55.0465 16.5362 55.0114 16.3921 55.0114 16.2769C55.1271 14.7352 55.5695 13.459 56.3425 12.4484C57.1197 11.4399 58.0788 10.6536 59.2198 10.0937C60.3608 9.53388 61.5844 9.18603 62.8908 9.04812C64.2013 8.9061 65.4621 8.94727 66.6693 9.17162C67.8805 9.39803 68.9368 9.78911 69.8359 10.349C70.7392 10.9088 71.3448 11.5963 71.6549 12.4073C71.9629 13.1112 72.153 13.9798 72.2254 15.0172C72.2956 16.0546 72.3328 17.2731 72.3328 18.6727C72.3328 19.0679 72.3328 19.7307 72.3328 20.6569C72.3328 21.579 72.3328 22.6164 72.3328 23.769C72.3328 24.9176 72.3246 26.0311 72.308 27.1117C72.2956 28.1882 72.2915 29.0774 72.2915 29.7793C72.2915 30.4832 72.2915 30.8331 72.2915 30.8331L75.2515 32.1751ZM61.5596 26.3296C61.5596 27.6201 61.7684 28.5525 62.188 29.1288C62.6117 29.7052 63.1057 30.0304 63.668 30.1004C64.2343 30.1662 64.7139 30.0736 65.1066 29.8204C65.1066 29.8204 65.1066 29.522 65.1066 28.923C65.1066 28.3199 65.1107 27.5625 65.1231 26.6507C65.1397 25.7347 65.1479 24.7879 65.1479 23.8102C65.1479 22.8284 65.1479 21.9392 65.1479 21.1427C65.1479 20.342 65.1479 19.7718 65.1479 19.4302C64.7015 20.0518 64.193 20.6404 63.6266 21.2003C63.0644 21.7601 62.5787 22.4332 62.1715 23.2174C61.7622 24.0037 61.5596 25.0411 61.5596 26.3296Z" fill="#004AAD"/>
<path d="M83.9503 10.0526C85.0459 9.43921 86.2282 9.05431 87.4973 8.89994C88.7644 8.74145 89.8475 8.77438 90.7466 8.99874C90.7466 9.02755 90.7384 9.27455 90.7218 9.73972C90.7094 10.2008 90.7053 10.7689 90.7053 11.444C90.7053 12.115 90.697 12.786 90.6805 13.4611C90.6681 14.1321 90.664 14.7002 90.664 15.1654C90.664 15.6264 90.664 15.8714 90.664 15.8981C90.5193 15.8446 90.2857 15.6141 89.9612 15.2066C89.6408 14.8011 89.2687 14.305 88.845 13.7163C88.4254 13.1236 88.0037 12.5472 87.58 11.9874C87.1542 11.4275 86.7656 10.9582 86.4142 10.5795C86.067 10.2008 85.7796 10.0114 85.5543 10.0114C84.7937 10.1226 84.2583 10.5857 83.9503 11.4028C83.9503 12.1273 83.9503 13.1153 83.9503 14.3668C83.9503 15.6141 83.9503 16.9664 83.9503 18.4257C83.9503 19.8809 83.9545 21.3382 83.9669 22.7975C83.9834 24.2589 83.9917 25.5968 83.9917 26.8153C83.9917 28.0338 83.9917 29.0177 83.9917 29.7628C83.9917 30.5038 83.9917 30.8743 83.9917 30.8743L85.9347 32.2163V32.8503H74.5662L74.5248 32.2163L76.7655 30.8743V10.7277L74.8225 9.46803V8.83408C74.8225 8.83408 75.0622 8.83408 75.5418 8.83408C76.0213 8.83408 76.6249 8.83408 77.3525 8.83408C78.0842 8.83408 78.8242 8.83408 79.5683 8.83408C80.3166 8.83408 80.9739 8.83408 81.5361 8.83408C82.1024 8.83408 82.4414 8.83408 82.5531 8.83408C83.4233 8.83408 83.8883 9.24162 83.9503 10.0526Z" fill="#004AAD"/>
<path d="M101.266 32.2164V32.8092C101.266 32.8092 100.786 32.8092 99.8269 32.8092C98.8678 32.8092 97.4726 32.8092 95.6433 32.8092C93.8119 32.8092 92.3898 32.8092 91.377 32.8092C90.3621 32.8092 89.8557 32.8092 89.8557 32.8092V32.2164L92.0963 30.8744V1.9348L90.1534 0.633955V0.0411659C90.1534 0.0411659 90.4613 0.0370496 91.0794 0.0246995C91.7015 0.00823318 92.4436 0 93.3035 0C94.1633 0 94.9426 0 95.6433 0C96.067 0 96.4701 0 96.8504 0C97.2308 0 97.5615 0 97.8426 0C98.2932 0.0288159 98.6529 0.162605 98.9174 0.403426C99.1861 0.64013 99.3081 0.996214 99.2812 1.47374C99.2812 1.6384 99.2812 2.29706 99.2812 3.4497C99.2812 4.59823 99.2812 6.0555 99.2812 7.82152C99.2812 9.58959 99.2812 11.5059 99.2812 13.5683C99.2812 15.6266 99.2812 17.6746 99.2812 19.7102C99.2812 21.7418 99.2812 23.6004 99.2812 25.2841C99.2812 26.9637 99.2812 28.318 99.2812 29.343C99.2812 30.364 99.2812 30.8744 99.2812 30.8744L101.266 32.2164Z" fill="#004AAD"/>
<path d="M111.742 9.41862C115.512 9.41862 118.162 10.4231 119.696 12.432C121.234 14.4367 122.003 17.3184 122.003 21.0768C122.003 23.5138 121.676 25.603 121.027 27.3422C120.382 29.0836 119.312 30.4173 117.819 31.3436C116.331 32.2657 114.305 32.7267 111.742 32.7267C108.39 32.7267 105.826 31.817 104.053 29.9933C102.277 28.1717 101.403 25.1152 101.432 20.8216C101.486 17.0899 102.302 14.2577 103.879 12.3249C105.454 10.3881 108.075 9.41862 111.742 9.41862ZM111.742 10.2666C111.174 10.2666 110.709 10.561 110.345 11.1476C109.981 11.7363 109.686 12.4937 109.46 13.4199C109.233 14.3421 109.072 15.3218 108.972 16.3592C108.873 17.3966 108.815 18.3804 108.799 19.3067C108.786 20.235 108.782 20.978 108.782 21.5379C108.782 22.071 108.795 22.7646 108.824 23.6209C108.85 24.4771 108.919 25.3828 109.03 26.3378C109.146 27.2887 109.307 28.182 109.518 29.0218C109.733 29.8616 110.022 30.5511 110.386 31.0883C110.754 31.6214 111.207 31.887 111.742 31.887C112.304 31.887 112.761 31.607 113.115 31.0472C113.466 30.4832 113.753 29.7587 113.975 28.8736C114.2 27.9906 114.367 27.052 114.479 26.0579C114.595 25.0658 114.665 24.121 114.694 23.2257C114.721 22.3262 114.735 21.6099 114.735 21.0768C114.735 20.5458 114.721 19.8315 114.694 18.9362C114.665 18.0367 114.595 17.0899 114.479 16.0957C114.367 15.0975 114.2 14.1568 113.975 13.2718C113.753 12.3887 113.466 11.6663 113.115 11.1064C112.761 10.5466 112.304 10.2666 111.742 10.2666Z" fill="#004AAD"/>
<path d="M134.842 8.7929V9.55036H131.717C131.717 11.2032 131.721 13.0968 131.733 15.2312C131.75 17.3616 131.758 19.5619 131.758 21.8343C131.758 24.1025 131.758 26.3172 131.758 28.4784C131.758 28.676 131.762 28.993 131.775 29.4252C131.791 29.8595 131.804 30.265 131.816 30.6438C131.833 31.0225 131.841 31.2118 131.841 31.2118L135.479 28.816L136.148 29.3182C134.852 30.3021 133.747 31.1357 132.833 31.8211C131.917 32.5086 130.911 32.8502 129.815 32.8502C128.182 32.8502 126.979 32.558 126.202 31.9693C125.429 31.3827 124.931 30.5429 124.706 29.4499C124.478 28.3529 124.393 27.0541 124.449 25.5557C124.509 24.0531 124.54 22.39 124.54 20.5663C124.54 19.249 124.54 17.73 124.54 16.0052C124.54 14.2824 124.54 12.1315 124.54 9.55036H122.887V8.7929H124.54C124.54 8.23305 124.54 7.57028 124.54 6.80048C124.54 6.02656 124.54 5.33085 124.54 4.70925L122.589 3.44957V2.81562C122.589 2.81562 122.905 2.8115 123.54 2.79915C124.172 2.78269 124.92 2.77445 125.78 2.77445C126.64 2.77445 127.409 2.77445 128.087 2.77445C128.505 2.77445 128.906 2.77445 129.286 2.77445C129.666 2.77445 130.009 2.78886 130.32 2.81562C131.279 2.81562 131.758 3.29314 131.758 4.24819C131.729 4.39227 131.717 4.90479 131.717 5.78779C131.717 6.66669 131.717 7.66908 131.717 8.7929H134.842Z" fill="#004AAD"/>
<path d="M148.907 8.7929V9.55036H145.782C145.782 11.2032 145.786 13.0968 145.798 15.2312C145.815 17.3616 145.823 19.5619 145.823 21.8343C145.823 24.1025 145.823 26.3172 145.823 28.4784C145.823 28.676 145.827 28.993 145.84 29.4252C145.856 29.8595 145.868 30.265 145.881 30.6438C145.897 31.0225 145.906 31.2118 145.906 31.2118L149.544 28.816L150.213 29.3182C148.917 30.3021 147.811 31.1357 146.898 31.8211C145.982 32.5086 144.976 32.8502 143.88 32.8502C142.247 32.8502 141.044 32.558 140.267 31.9693C139.494 31.3827 138.996 30.5429 138.77 29.4499C138.543 28.3529 138.458 27.0541 138.514 25.5557C138.574 24.0531 138.605 22.39 138.605 20.5663C138.605 19.249 138.605 17.73 138.605 16.0052C138.605 14.2824 138.605 12.1315 138.605 9.55036H136.951V8.7929H138.605C138.605 8.23305 138.605 7.57028 138.605 6.80048C138.605 6.02656 138.605 5.33085 138.605 4.70925L136.654 3.44957V2.81562C136.654 2.81562 136.97 2.8115 137.605 2.79915C138.237 2.78269 138.985 2.77445 139.845 2.77445C140.705 2.77445 141.474 2.77445 142.152 2.77445C142.57 2.77445 142.971 2.77445 143.351 2.77445C143.731 2.77445 144.074 2.78886 144.384 2.81562C145.343 2.81562 145.823 3.29314 145.823 4.24819C145.794 4.39227 145.782 4.90479 145.782 5.78779C145.782 6.66669 145.782 7.66908 145.782 8.7929H148.907Z" fill="#004AAD"/>
<path d="M171 15.9806C171 16.0959 170.963 16.24 170.893 16.4087C170.82 16.5734 170.715 16.6845 170.578 16.7381C170.351 16.7998 169.878 17.018 169.156 17.3967C168.439 17.7754 167.573 18.2406 166.56 18.7881C165.545 19.3315 164.51 19.8831 163.451 20.443C162.397 21.0029 161.405 21.4948 160.475 21.9167C159.549 22.3346 158.817 22.6145 158.284 22.7565C158.592 24.5514 159.204 25.8851 160.119 26.7578C161.033 27.6264 162.066 28.0998 163.22 28.1822C164.377 28.2645 165.504 28.0402 166.601 27.5071C167.703 26.976 168.604 26.2186 169.305 25.2347L169.818 25.4488C169.222 27.4412 168.332 29.0199 167.147 30.1828C165.967 31.3478 164.638 32.1259 163.162 32.5211C161.684 32.9101 160.198 32.943 158.705 32.6199C157.211 32.2967 155.822 31.6298 154.538 30.6192C153.259 29.6106 152.225 28.2872 151.438 26.6508C150.648 25.0103 150.256 23.0817 150.256 20.8629C150.256 18.537 150.621 16.5611 151.355 14.935C152.087 13.3048 153.029 12.0163 154.183 11.0654C155.394 10.028 156.732 9.31586 158.193 8.92478C159.658 8.52959 161.116 8.41021 162.567 8.56252C164.022 8.71689 165.365 9.11826 166.601 9.76456C167.842 10.4068 168.854 11.2548 169.644 12.3086C170.432 13.3583 170.884 14.581 171 15.9806ZM166.014 11.8229C166.184 11.2301 166.114 10.7402 165.799 10.3491C165.489 9.95393 165.041 9.69458 164.452 9.56697C163.861 9.44141 163.232 9.47229 162.567 9.65753C161.905 9.83866 161.322 10.2092 160.822 10.769C160.088 11.582 159.445 12.7738 158.896 14.3422C158.344 15.9127 158.069 17.8742 158.069 20.2289C158.069 20.4821 158.077 20.7353 158.094 20.9864C158.11 21.2396 158.131 21.4783 158.16 21.7027C160.832 19.0413 162.744 16.9336 163.898 15.3796C165.055 13.8215 165.76 12.6359 166.014 11.8229Z" fill="#004AAD"/>
<path d="M21.6491 57.8759C22.9431 58.9688 23.865 60.2182 24.4106 61.622C24.9605 63.0216 25.1238 64.4171 24.8985 65.8044C24.6711 67.1938 24.0241 68.4349 22.9555 69.5258C22.2816 70.2009 21.3535 70.7773 20.1692 71.2548C18.9827 71.7282 17.6433 72.0843 16.1509 72.3251C14.6627 72.5618 13.129 72.6709 11.5539 72.6544C9.97677 72.6421 8.45546 72.498 6.98996 72.2181C5.52239 71.9381 4.22017 71.5183 3.07919 70.9584C1.93821 70.3944 1.07213 69.6781 0.483036 68.8095C0.0634348 68.1673 -0.083322 67.4675 0.0448319 66.7101C0.170919 65.9526 0.443763 65.1828 0.863364 64.3966C1.2871 63.6123 1.74391 62.8487 2.23585 62.1077C2.73193 61.3626 3.13293 60.6957 3.44298 60.1071C3.5794 60.1071 3.70342 60.1071 3.81504 60.1071C3.93079 60.1071 4.01554 60.1071 4.07135 60.1071C4.38553 62.9949 4.92296 65.3084 5.68361 67.0476C6.44427 68.7828 7.31448 70.028 8.2963 70.7855C9.28226 71.543 10.2413 71.9217 11.1736 71.9217C11.988 71.9217 12.8044 71.6829 13.6209 71.2054C14.4353 70.7279 15.1029 70.0836 15.6218 69.2706C16.1447 68.4596 16.3927 67.5478 16.3659 66.5372C16.3369 65.5286 15.9029 64.4912 15.0595 63.425C14.7495 63.036 14.2431 62.6388 13.5382 62.2312C12.8313 61.8196 12.0851 61.412 11.2976 61.0045C10.508 60.599 9.79281 60.1873 9.14791 59.7695C8.15988 59.0944 7.15118 58.4563 6.12182 57.8512C5.09658 57.2481 4.13956 56.6121 3.25282 55.9411C2.36401 55.266 1.65296 54.5085 1.11967 53.6687C0.584319 52.8289 0.317676 51.8327 0.317676 50.6801C0.317676 49.2537 0.780684 47.994 1.7067 46.9011C2.63685 45.804 3.86878 44.8839 5.4025 44.1429C6.94035 43.3978 8.61049 42.8565 10.4129 42.521C12.2153 42.1876 14.0095 42.0908 15.7954 42.2328C17.5854 42.3707 19.2121 42.7639 20.6735 43.4102C22.139 44.0524 23.2655 44.991 24.0551 46.2259C24.4789 46.8414 24.6277 47.5268 24.5016 48.2842C24.3734 49.0417 24.0985 49.8218 23.6748 50.6224C23.249 51.419 22.7984 52.1909 22.3188 52.936C21.8434 53.677 21.4507 54.3418 21.1365 54.9284C21.0538 54.9284 20.9484 54.9284 20.8223 54.9284C20.6942 54.9284 20.5908 54.9284 20.5081 54.9284C20.1113 51.0876 19.2018 48.1422 17.7797 46.0942C16.3576 44.0483 14.7743 42.9821 13.0339 42.8997C12.3559 42.873 11.6138 43.0973 10.8098 43.5748C10.0098 44.0524 9.32153 44.6781 8.74277 45.452C8.16401 46.2218 7.87463 47.0245 7.87463 47.8643C7.87463 48.7041 8.16815 49.4492 8.75931 50.0955C9.35461 50.7377 10.1504 51.3346 11.1488 51.8821C12.1513 52.4255 13.2571 52.9854 14.4642 53.5617C15.6755 54.138 16.9033 54.7699 18.1435 55.4553C19.3837 56.1428 20.5516 56.9496 21.6491 57.8759Z" fill="#004AAD"/>
<path d="M37.3999 48.622V49.3795H34.2746C34.2746 51.0323 34.2788 52.9259 34.2912 55.0604C34.3077 57.1907 34.316 59.391 34.316 61.6634C34.316 63.9316 34.316 66.1464 34.316 68.3076C34.316 68.5052 34.3201 68.8222 34.3325 69.2544C34.349 69.6887 34.3614 70.0942 34.3738 70.4729C34.3904 70.8516 34.3986 71.041 34.3986 71.041L38.0366 68.6451L38.7063 69.1474C37.4103 70.1312 36.3044 70.9648 35.3908 71.6502C34.4751 72.3377 33.4685 72.6794 32.373 72.6794C30.74 72.6794 29.5371 72.3871 28.7599 71.7984C27.9868 71.2118 27.4887 70.372 27.2633 69.2791C27.036 68.182 26.9512 66.8832 27.007 65.3848C27.067 63.8822 27.098 62.2191 27.098 60.3955C27.098 59.0782 27.098 57.5592 27.098 55.8343C27.098 54.1115 27.098 51.9606 27.098 49.3795H25.4444V48.622H27.098C27.098 48.0622 27.098 47.3994 27.098 46.6296C27.098 45.8557 27.098 45.16 27.098 44.5384L25.1467 43.2787V42.6448C25.1467 42.6448 25.463 42.6406 26.0976 42.6283C26.7301 42.6118 27.4783 42.6036 28.3382 42.6036C29.1981 42.6036 29.967 42.6036 30.645 42.6036C31.0625 42.6036 31.4635 42.6036 31.8438 42.6036C32.2241 42.6036 32.5673 42.618 32.8773 42.6448C33.8364 42.6448 34.316 43.1223 34.316 44.0773C34.287 44.2214 34.2746 44.7339 34.2746 45.6169C34.2746 46.4958 34.2746 47.4982 34.2746 48.622H37.3999Z" fill="#004AAD"/>
<path d="M59.493 55.8094C59.493 55.9246 59.4558 56.0687 59.3855 56.2375C59.3132 56.4022 59.2078 56.5133 59.0713 56.5668C58.844 56.6286 58.3706 56.8468 57.6492 57.2255C56.932 57.6042 56.0659 58.0694 55.0531 58.6169C54.0382 59.1603 53.0026 59.7119 51.9443 60.2718C50.8901 60.8316 49.898 61.3235 48.9678 61.7455C48.0418 62.1633 47.3101 62.4433 46.7768 62.5853C47.0848 64.3801 47.6966 65.7139 48.6123 66.5866C49.5259 67.4552 50.5594 67.9286 51.7128 68.0109C52.8703 68.0933 53.9968 67.8689 55.0944 67.3358C56.1961 66.8048 57.0973 66.0473 57.7981 65.0635L58.3107 65.2775C57.7154 67.27 56.8245 68.8487 55.6401 70.0116C54.4598 71.1766 53.1308 71.9546 51.6549 72.3498C50.177 72.7388 48.6908 72.7718 47.1985 72.4486C45.704 72.1255 44.315 71.4586 43.0314 70.448C41.7519 69.4394 40.7184 68.1159 39.9309 66.4796C39.1413 64.8391 38.7486 62.9105 38.7486 60.6916C38.7486 58.3658 39.1144 56.3898 39.8482 54.7638C40.5799 53.1336 41.5225 51.8451 42.6759 50.8942C43.8871 49.8568 45.2245 49.1446 46.6859 48.7535C48.1514 48.3583 49.6086 48.239 51.0596 48.3913C52.5148 48.5457 53.8583 48.947 55.0944 49.5933C56.3346 50.2355 57.3474 51.0835 58.137 52.1374C58.9246 53.1871 59.3772 54.4097 59.493 55.8094ZM54.5074 51.6516C54.6769 51.0588 54.6066 50.569 54.2924 50.1779C53.9824 49.7827 53.5338 49.5233 52.9447 49.3957C52.3536 49.2702 51.7252 49.301 51.0596 49.4863C50.3982 49.6674 49.8153 50.0379 49.3151 50.5978C48.5813 51.4108 47.9385 52.6026 47.3886 54.171C46.8367 55.7414 46.5618 57.703 46.5618 60.0577C46.5618 60.3109 46.5701 60.564 46.5866 60.8151C46.6032 61.0683 46.6238 61.3071 46.6528 61.5314C49.3254 58.8701 51.2374 56.7624 52.3908 55.2084C53.5483 53.6502 54.2531 52.4646 54.5074 51.6516Z" fill="#004AAD"/>
<path d="M79.6423 72.0043V72.6382C79.6423 72.6382 78.9912 72.6341 77.6911 72.6218C76.3951 72.6053 74.8324 72.5971 73.0031 72.5971C72.1866 72.5971 71.3991 72.6053 70.6385 72.6218C69.8778 72.6341 69.4975 72.6382 69.4975 72.6382V70.2835C68.6541 71.4032 67.662 72.1751 66.521 72.5971C65.38 73.019 64.2659 73.1096 63.1807 72.8688C62.0997 72.6341 61.1985 72.0681 60.4771 71.1727C59.7598 70.2732 59.4022 69.065 59.4022 67.5501C59.4022 66.1731 59.6916 65.0719 60.2704 64.2486C60.8491 63.4212 61.5809 62.7543 62.4697 62.248C63.3564 61.7437 64.2721 61.3238 65.2146 60.9883C66.1572 60.6548 67.0212 60.3111 67.8108 59.9591C68.5983 59.6092 69.175 59.1523 69.5388 58.5924C69.5719 56.458 69.5719 54.8216 69.5388 53.6854C69.5099 52.5493 69.4603 51.7239 69.39 51.2073C69.3238 50.6865 69.204 50.2851 69.0345 50.0052C68.8691 49.6985 68.5384 49.4948 68.0423 49.396C67.5504 49.2972 67.0439 49.361 66.521 49.5853C66.0022 49.8117 65.5991 50.2481 65.3139 50.8944C65.0328 51.5366 64.9955 52.434 65.2064 53.5866C65.4213 54.7352 66.0084 56.2048 66.9675 57.9996C66.7959 58.1705 66.6285 58.3104 66.4631 58.4195C65.7025 58.3104 64.8777 58.1561 63.991 57.9585C63.1022 57.7609 62.2836 57.5592 61.5354 57.3492C60.7913 57.1413 60.2208 56.9787 59.8239 56.8635C59.6854 56.8099 59.58 56.6988 59.5097 56.5341C59.4374 56.3654 59.4022 56.2213 59.4022 56.106C59.518 54.5643 59.9603 53.2882 60.7334 52.2776C61.5106 51.269 62.4697 50.4827 63.6107 49.9229C64.7516 49.363 65.9753 49.0152 67.2816 48.8773C68.5921 48.7353 69.853 48.7764 71.0601 49.0008C72.2714 49.2272 73.3276 49.6183 74.2268 50.1781C75.1301 50.738 75.7357 51.4254 76.0457 52.2364C76.3537 52.9403 76.5439 53.8089 76.6162 54.8463C76.6865 55.8837 76.7237 57.1022 76.7237 58.5019C76.7237 58.897 76.7237 59.5598 76.7237 60.4861C76.7237 61.4082 76.7237 62.4456 76.7237 63.5982C76.7237 64.7467 76.7154 65.8603 76.6989 66.9409C76.6865 68.0174 76.6824 68.9065 76.6824 69.6084C76.6824 70.3123 76.6824 70.6623 76.6824 70.6623L79.6423 72.0043ZM65.9505 66.1587C65.9505 67.4493 66.1593 68.3817 66.5789 68.958C67.0026 69.5343 67.4966 69.8595 68.0588 69.9295C68.6252 69.9954 69.1047 69.9028 69.4975 69.6496C69.4975 69.6496 69.4975 69.3511 69.4975 68.7522C69.4975 68.1491 69.5016 67.3916 69.514 66.4798C69.5305 65.5639 69.5388 64.617 69.5388 63.6394C69.5388 62.6576 69.5388 61.7684 69.5388 60.9718C69.5388 60.1711 69.5388 59.601 69.5388 59.2593C69.0923 59.8809 68.5839 60.4696 68.0175 61.0294C67.4553 61.5893 66.9695 62.2624 66.5623 63.0466C66.1531 63.8328 65.9505 64.8702 65.9505 66.1587Z" fill="#004AAD"/>
<path d="M115.121 70.7032L117.106 72.0452V72.6791H105.696L105.654 72.0452L107.895 70.7032C107.895 67.5643 107.895 65.0696 107.895 63.2192C107.895 61.3647 107.895 59.9671 107.895 59.0285C107.895 58.09 107.895 57.4313 107.895 57.0526C107.895 56.6738 107.895 56.3733 107.895 56.1469C107.895 55.1384 107.895 54.4097 107.895 53.9651C107.895 53.5164 107.881 53.2077 107.854 53.043C107.825 52.8742 107.771 52.7034 107.688 52.5326C107.517 52.0283 107.12 51.6763 106.498 51.4787C105.88 51.2811 105.204 51.2399 104.472 51.3552C103.738 51.4664 103.095 51.7669 102.546 52.2609C102 52.7507 101.713 53.4444 101.686 54.3439C101.713 54.7617 101.731 55.3215 101.744 56.0234C101.76 56.7274 101.768 57.6865 101.768 58.905C101.768 60.1235 101.768 61.6879 101.768 63.5979C101.768 65.5039 101.768 67.871 101.768 70.7032L103.753 72.0452V72.6791H92.3512L92.3098 72.0452L94.5505 70.7032C94.5505 70.1166 94.5505 69.2912 94.5505 68.225C94.5505 67.1547 94.5546 65.9691 94.567 64.6683C94.5835 63.3633 94.5835 62.0316 94.567 60.6752C94.5546 59.3146 94.5422 58.0529 94.5257 56.8879C94.5133 55.725 94.4926 54.7514 94.4595 53.9651C94.4306 53.1809 94.3892 52.7034 94.3355 52.5326C94.1639 52.055 93.8022 51.7134 93.2524 51.5034C92.7067 51.2893 92.0949 51.2276 91.4169 51.314C90.7431 51.3964 90.1271 51.6269 89.5649 52.0056C89.0026 52.3844 88.6223 52.9113 88.4239 53.5864C88.4239 54.8502 88.428 56.2375 88.4404 57.7524C88.457 59.2632 88.4652 60.7822 88.4652 62.3136C88.4652 63.8408 88.4652 65.2343 88.4652 66.496C88.4652 67.7598 88.4652 68.7766 88.4652 69.5505C88.4652 70.3203 88.4652 70.7032 88.4652 70.7032L90.4495 72.0452V72.6791H79.048L79.0066 72.0452L81.239 70.7032V50.5154L79.296 49.2475V48.6218C79.296 48.6218 79.5358 48.6218 80.0153 48.6218C80.4949 48.6218 81.1005 48.6218 81.8343 48.6218C82.566 48.6218 83.306 48.6218 84.0501 48.6218C84.7942 48.6218 85.4474 48.6218 86.0096 48.6218C86.576 48.6218 86.915 48.6218 87.0266 48.6218C87.9857 48.6218 88.4652 49.0973 88.4652 50.0461C88.4652 50.3322 88.4652 50.5237 88.4652 50.6225C88.4652 50.7171 88.457 50.8571 88.4404 51.0423C88.428 51.2235 88.4239 51.594 88.4239 52.1538C89.2114 50.9477 90.218 50.1202 91.4417 49.6756C92.6654 49.2269 93.9965 49.0005 95.4351 49.0005C96.9565 49.0005 98.2421 49.2681 99.2963 49.7991C100.355 50.3322 101.066 51.3429 101.429 52.829C101.599 52.2362 101.988 51.6475 102.595 51.0588C103.201 50.4722 104.017 49.9844 105.043 49.5933C106.072 49.1981 107.304 49.0005 108.738 49.0005C110.313 49.0005 111.624 49.2763 112.666 49.8238C113.707 50.3672 114.412 51.3964 114.782 52.9113C114.836 53.1912 114.884 53.5082 114.923 53.8581C114.966 54.2101 115.001 54.7226 115.03 55.3977C115.063 56.0687 115.084 57.0114 115.096 58.2299C115.113 59.4484 115.121 61.0683 115.121 63.0875C115.121 65.1087 115.121 67.6466 115.121 70.7032Z" fill="#004AAD"/>
<path d="M137.505 55.8094C137.505 55.9246 137.468 56.0687 137.397 56.2375C137.325 56.4022 137.219 56.5133 137.083 56.5668C136.856 56.6286 136.382 56.8468 135.661 57.2255C134.944 57.6042 134.078 58.0694 133.065 58.6169C132.05 59.1603 131.014 59.7119 129.956 60.2718C128.902 60.8316 127.91 61.3235 126.98 61.7455C126.054 62.1633 125.322 62.4433 124.789 62.5853C125.097 64.3801 125.708 65.7139 126.624 66.5866C127.538 67.4552 128.571 67.9286 129.725 68.0109C130.882 68.0933 132.009 67.8689 133.106 67.3358C134.208 66.8048 135.109 66.0473 135.81 65.0635L136.322 65.2775C135.727 67.27 134.836 68.8487 133.652 70.0116C132.472 71.1766 131.142 71.9546 129.667 72.3498C128.189 72.7388 126.703 72.7718 125.21 72.4486C123.716 72.1255 122.327 71.4586 121.043 70.448C119.764 69.4394 118.73 68.1159 117.943 66.4796C117.153 64.8391 116.76 62.9105 116.76 60.6916C116.76 58.3658 117.126 56.3898 117.86 54.7638C118.592 53.1336 119.534 51.8451 120.688 50.8942C121.899 49.8568 123.236 49.1446 124.698 48.7535C126.163 48.3583 127.62 48.239 129.071 48.3913C130.527 48.5457 131.87 48.947 133.106 49.5933C134.346 50.2355 135.359 51.0835 136.149 52.1374C136.936 53.1871 137.389 54.4097 137.505 55.8094ZM132.519 51.6516C132.689 51.0588 132.618 50.569 132.304 50.1779C131.994 49.7827 131.546 49.5233 130.956 49.3957C130.365 49.2702 129.737 49.301 129.071 49.4863C128.41 49.6674 127.827 50.0379 127.327 50.5978C126.593 51.4108 125.95 52.6026 125.4 54.171C124.848 55.7414 124.574 57.703 124.574 60.0577C124.574 60.3109 124.582 60.564 124.598 60.8151C124.615 61.0683 124.636 61.3071 124.665 61.5314C127.337 58.8701 129.249 56.7624 130.402 55.2084C131.56 53.6502 132.265 52.4646 132.519 51.6516Z" fill="#004AAD"/>
<path d="M146.839 49.8817C147.935 49.2684 149.117 48.8835 150.386 48.7291C151.654 48.5706 152.737 48.6035 153.636 48.8279C153.636 48.8567 153.628 49.1037 153.611 49.5689C153.599 50.0299 153.594 50.598 153.594 51.2731C153.594 51.9441 153.586 52.6152 153.57 53.2903C153.557 53.9613 153.553 54.5294 153.553 54.9945C153.553 55.4556 153.553 55.7005 153.553 55.7273C153.408 55.6738 153.175 55.4432 152.85 55.0357C152.53 54.6302 152.158 54.1342 151.734 53.5455C151.315 52.9527 150.893 52.3764 150.469 51.8165C150.043 51.2567 149.655 50.7874 149.303 50.4087C148.956 50.0299 148.669 49.8406 148.443 49.8406C147.683 49.9517 147.147 50.4148 146.839 51.232C146.839 51.9565 146.839 52.9445 146.839 54.1959C146.839 55.4432 146.839 56.7955 146.839 58.2549C146.839 59.7101 146.844 61.1674 146.856 62.6267C146.873 64.0881 146.881 65.426 146.881 66.6445C146.881 67.863 146.881 68.8469 146.881 69.592C146.881 70.3329 146.881 70.7034 146.881 70.7034L148.824 72.0454V72.6794H137.455L137.414 72.0454L139.655 70.7034V50.5569L137.712 49.2972V48.6632C137.712 48.6632 137.951 48.6632 138.431 48.6632C138.91 48.6632 139.514 48.6632 140.242 48.6632C140.973 48.6632 141.713 48.6632 142.457 48.6632C143.206 48.6632 143.863 48.6632 144.425 48.6632C144.992 48.6632 145.331 48.6632 145.442 48.6632C146.312 48.6632 146.777 49.0708 146.839 49.8817Z" fill="#004AAD"/>
<path d="M161.707 55.0521C162.323 55.8384 163.117 56.672 164.089 57.555C165.058 58.4401 166.027 59.3581 166.999 60.3131C167.974 61.2682 168.785 62.2521 169.43 63.2606C170.079 64.2712 170.418 65.323 170.447 66.4139C170.473 67.5069 170.01 68.6287 169.058 69.7813C168.181 70.8187 167.1 71.5411 165.817 71.9466C164.537 72.3542 163.2 72.5559 161.807 72.5559C160.411 72.5559 159.08 72.4386 157.813 72.2019C156.55 71.961 155.49 71.7079 154.63 71.4444C153.77 71.1768 153.268 70.9998 153.125 70.9175C153.125 70.8845 153.216 70.617 153.398 70.1106C153.584 69.6063 153.797 69.0115 154.035 68.324C154.276 67.6386 154.502 66.9656 154.713 66.3069C154.921 65.6482 155.085 65.1522 155.2 64.8167H155.961C156.242 65.4321 156.494 66.1258 156.722 66.8997C156.947 67.6695 157.22 68.4125 157.54 69.1309C157.865 69.8451 158.295 70.4544 158.83 70.9586C159.363 71.465 160.07 71.7717 160.947 71.8808C161.536 71.9631 162.063 71.8952 162.526 71.6749C162.989 71.4506 163.274 71.0451 163.386 70.4564C163.502 69.8636 163.336 69.0897 162.89 68.1347C162.294 66.9059 161.53 65.8582 160.599 64.9896C159.673 64.1169 158.716 63.275 157.73 62.462C156.742 61.6449 155.872 60.733 155.118 59.7286C153.904 58.1869 153.235 56.7852 153.109 55.5214C152.98 54.2597 153.253 53.1585 153.927 52.2199C154.605 51.2772 155.556 50.5115 156.78 49.9229C158.007 49.3363 159.396 48.9596 160.947 48.7949C162.495 48.6262 164.072 48.6879 165.676 48.9843C167.28 49.2766 168.785 49.8282 170.19 50.6392C170.19 50.668 170.091 50.9417 169.893 51.4625C169.698 51.9791 169.463 52.5966 169.182 53.3149C168.901 54.0292 168.632 54.7105 168.38 55.3568C168.125 55.999 167.954 56.4744 167.867 56.7811H167.197C167.026 56.3036 166.813 55.6367 166.561 54.7805C166.306 53.9242 166.011 53.0638 165.676 52.1952C165.306 51.2402 164.791 50.5321 164.13 50.0711C163.468 49.61 162.807 49.3877 162.146 49.4042C161.484 49.4165 160.949 49.6388 160.542 50.0711C160.132 50.5054 159.992 51.1455 160.12 51.9894C160.246 52.8292 160.775 53.8501 161.707 55.0521Z" fill="#004AAD"/>
</svg>
