<svg width="96" height="13" viewBox="0 0 96 13" fill="none" xmlns="http://www.w3.org/2000/svg">
<path d="M6.38401 9.25212C6.13601 9.25212 5.84001 9.20012 5.49601 9.09612C5.15201 8.99212 4.79201 8.84812 4.41601 8.66412C4.04801 8.48012 3.68401 8.26812 3.32401 8.02812C2.97201 7.78812 2.65201 7.53212 2.36401 7.26012C2.07601 6.98012 1.84401 6.69212 1.66801 6.39612C1.50001 6.10012 1.41601 5.81612 1.41601 5.54412C1.41601 5.16012 1.50001 4.76812 1.66801 4.36812C1.84401 3.96812 2.07601 3.57212 2.36401 3.18012C2.65201 2.78012 2.98001 2.40412 3.34801 2.05212C3.72401 1.69212 4.11201 1.36812 4.51201 1.08012C4.75201 0.904117 4.95601 0.780117 5.12401 0.708117C5.29201 0.636117 5.45601 0.600117 5.61601 0.600117C5.83201 0.600117 6.00401 0.660117 6.13201 0.780117C6.26801 0.900117 6.33601 1.07212 6.33601 1.29612C6.33601 1.49612 6.26801 1.68012 6.13201 1.84812C5.99601 2.00812 5.78401 2.18812 5.49601 2.38812C5.11201 2.62812 4.76001 2.88412 4.44001 3.15612C4.12801 3.42012 3.85601 3.68812 3.62401 3.96012C3.40001 4.22412 3.22401 4.47212 3.09601 4.70412C2.97601 4.93612 2.91601 5.13212 2.91601 5.29212C2.91601 5.44412 3.00401 5.62812 3.18001 5.84412C3.36401 6.06012 3.61201 6.28412 3.92401 6.51612C4.23601 6.74812 4.59601 6.96812 5.00401 7.17612C5.42001 7.37612 5.85601 7.54012 6.31201 7.66812C6.61601 7.74812 6.82801 7.86012 6.94801 8.00412C7.06801 8.14012 7.12801 8.31612 7.12801 8.53212C7.12801 8.74812 7.07201 8.92412 6.96001 9.06012C6.84801 9.18812 6.65601 9.25212 6.38401 9.25212ZM1.03201 9.26412C0.768008 9.26412 0.560008 9.18812 0.408008 9.03612C0.264008 8.88412 0.160008 8.63212 0.0960078 8.28012C0.0320078 7.92812 7.80821e-06 7.46012 7.80821e-06 6.87612C7.80821e-06 6.25212 0.0240078 5.66812 0.0720079 5.12412C0.120008 4.57212 0.164008 4.08012 0.204008 3.64812C0.252008 3.21612 0.276008 2.86812 0.276008 2.60412C0.276008 2.34812 0.264008 2.14412 0.240008 1.99212C0.224008 1.83212 0.204008 1.69212 0.180008 1.57212C0.156008 1.45212 0.144008 1.32812 0.144008 1.20012C0.144008 1.00012 0.192008 0.848117 0.288008 0.744117C0.392008 0.640117 0.556008 0.588117 0.780008 0.588117C1.02001 0.588117 1.21201 0.652117 1.35601 0.780117C1.50001 0.900117 1.60801 1.05612 1.68001 1.24812C1.75201 1.44012 1.80001 1.64812 1.82401 1.87212C1.84801 2.09612 1.86001 2.30412 1.86001 2.49612C1.86001 2.84012 1.83601 3.24012 1.78801 3.69612C1.74001 4.14412 1.69201 4.62412 1.64401 5.13612C1.59601 5.64012 1.57201 6.14412 1.57201 6.64812C1.57201 6.94412 1.57601 7.18812 1.58401 7.38012C1.60001 7.57212 1.61601 7.73612 1.63201 7.87212C1.65601 8.00012 1.67201 8.12412 1.68001 8.24412C1.69601 8.35612 1.70401 8.48412 1.70401 8.62812C1.70401 8.82812 1.64401 8.98412 1.52401 9.09612C1.40401 9.20812 1.24001 9.26412 1.03201 9.26412ZM10.522 12.2521C9.89804 12.2521 9.39004 12.1921 8.99804 12.0721C8.60604 11.9521 8.31404 11.7841 8.12204 11.5681C7.93804 11.3521 7.84604 11.1041 7.84604 10.8241C7.84604 10.6321 7.89404 10.4841 7.99004 10.3801C8.09404 10.2761 8.24204 10.2241 8.43404 10.2241C8.56204 10.2241 8.67404 10.2441 8.77004 10.2841C8.87404 10.3321 8.99404 10.3841 9.13004 10.4401C9.26604 10.4961 9.43804 10.5441 9.64604 10.5841C9.85404 10.6321 10.126 10.6561 10.462 10.6561C10.782 10.6561 11.034 10.5961 11.218 10.4761C11.402 10.3561 11.534 10.1841 11.614 9.96012C11.694 9.74412 11.734 9.48412 11.734 9.18012C11.734 8.90812 11.726 8.65612 11.71 8.42412C11.694 8.19212 11.678 7.95612 11.662 7.71612C11.654 7.47612 11.642 7.21612 11.626 6.93612C11.61 6.64812 11.602 6.32012 11.602 5.95212L12.106 6.34812C11.946 6.77212 11.77 7.12412 11.578 7.40412C11.394 7.67612 11.198 7.88812 10.99 8.04012C10.79 8.18412 10.59 8.28412 10.39 8.34012C10.19 8.39612 10.006 8.42412 9.83804 8.42412C9.33404 8.42412 8.89804 8.30812 8.53004 8.07612C8.16204 7.83612 7.87804 7.46412 7.67804 6.96012C7.48604 6.45612 7.39004 5.80412 7.39004 5.00412C7.39004 4.42812 7.42604 3.99612 7.49804 3.70812C7.57004 3.42012 7.67004 3.22412 7.79804 3.12012C7.93404 3.01612 8.09004 2.96412 8.26604 2.96412C8.48204 2.96412 8.65404 3.00812 8.78204 3.09612C8.91804 3.17612 9.01404 3.29212 9.07004 3.44412C9.12604 3.58812 9.15404 3.76412 9.15404 3.97212C9.13804 4.31612 9.11804 4.66012 9.09404 5.00412C9.07804 5.34812 9.07804 5.66012 9.09404 5.94012C9.11804 6.21212 9.17804 6.43212 9.27404 6.60012C9.37004 6.76812 9.52604 6.85212 9.74204 6.85212C10.054 6.85212 10.326 6.70812 10.558 6.42012C10.79 6.13212 10.978 5.74412 11.122 5.25612C11.274 4.76012 11.382 4.22012 11.446 3.63612C11.478 3.39612 11.538 3.22812 11.626 3.13212C11.714 3.02812 11.862 2.97612 12.07 2.97612C12.206 2.97612 12.33 3.00412 12.442 3.06012C12.562 3.11612 12.666 3.19612 12.754 3.30012C12.85 3.40412 12.918 3.54012 12.958 3.70812C12.998 3.87612 13.006 4.08012 12.982 4.32012C12.934 4.72012 12.914 5.07612 12.922 5.38812C12.93 5.69212 12.95 5.98012 12.982 6.25212C13.014 6.51612 13.05 6.78812 13.09 7.06812C13.138 7.34012 13.178 7.64812 13.21 7.99212C13.242 8.32812 13.258 8.72412 13.258 9.18012C13.258 9.70812 13.19 10.1641 13.054 10.5481C12.918 10.9401 12.726 11.2601 12.478 11.5081C12.238 11.7561 11.95 11.9401 11.614 12.0601C11.278 12.1881 10.914 12.2521 10.522 12.2521ZM15.7544 9.26412C15.5864 9.26412 15.4384 9.21612 15.3104 9.12012C15.1904 9.01612 15.0944 8.87212 15.0224 8.68812C14.9504 8.50412 14.9144 8.29612 14.9144 8.06412C14.9144 7.52812 14.9024 7.02812 14.8784 6.56412C14.8544 6.10012 14.8144 5.68412 14.7584 5.31612C14.7104 4.94012 14.6384 4.62012 14.5424 4.35612C14.4784 4.15612 14.4344 4.00412 14.4104 3.90012C14.3944 3.79612 14.3864 3.69212 14.3864 3.58812C14.3864 3.42812 14.4344 3.30012 14.5304 3.20412C14.6344 3.10812 14.7944 3.06012 15.0104 3.06012C15.2104 3.06012 15.3864 3.11612 15.5384 3.22812C15.6984 3.33212 15.8344 3.51212 15.9464 3.76812C16.0584 4.02412 16.1464 4.38012 16.2104 4.83612C16.2744 5.29212 16.3144 5.86412 16.3304 6.55212L15.7304 6.51612C15.8504 5.90812 16.0184 5.38412 16.2344 4.94412C16.4584 4.49612 16.7144 4.12812 17.0024 3.84012C17.2984 3.55212 17.6064 3.34012 17.9264 3.20412C18.2464 3.06012 18.5584 2.98812 18.8624 2.98812C19.1424 2.98812 19.3424 3.06012 19.4624 3.20412C19.5904 3.34812 19.6544 3.54012 19.6544 3.78012C19.6544 3.94812 19.5984 4.10012 19.4864 4.23612C19.3744 4.36412 19.1904 4.48412 18.9344 4.59612C18.5104 4.75612 18.1544 4.95612 17.8664 5.19612C17.5864 5.43612 17.3544 5.71212 17.1704 6.02412C16.9944 6.33612 16.8584 6.67612 16.7624 7.04412C16.6744 7.41212 16.6104 7.80412 16.5704 8.22012C16.5384 8.50012 16.4864 8.71612 16.4144 8.86812C16.3504 9.02012 16.2624 9.12412 16.1504 9.18012C16.0464 9.23612 15.9144 9.26412 15.7544 9.26412ZM23.5299 12.2521C22.9059 12.2521 22.3979 12.1921 22.0059 12.0721C21.6139 11.9521 21.3219 11.7841 21.1299 11.5681C20.9459 11.3521 20.8539 11.1041 20.8539 10.8241C20.8539 10.6321 20.9019 10.4841 20.9979 10.3801C21.1019 10.2761 21.2499 10.2241 21.4419 10.2241C21.5699 10.2241 21.6819 10.2441 21.7779 10.2841C21.8819 10.3321 22.0019 10.3841 22.1379 10.4401C22.2739 10.4961 22.4459 10.5441 22.6539 10.5841C22.8619 10.6321 23.1339 10.6561 23.4699 10.6561C23.7899 10.6561 24.0419 10.5961 24.2259 10.4761C24.4099 10.3561 24.5419 10.1841 24.6219 9.96012C24.7019 9.74412 24.7419 9.48412 24.7419 9.18012C24.7419 8.90812 24.7339 8.65612 24.7179 8.42412C24.7019 8.19212 24.6859 7.95612 24.6699 7.71612C24.6619 7.47612 24.6499 7.21612 24.6339 6.93612C24.6179 6.64812 24.6099 6.32012 24.6099 5.95212L25.1139 6.34812C24.9539 6.77212 24.7779 7.12412 24.5859 7.40412C24.4019 7.67612 24.2059 7.88812 23.9979 8.04012C23.7979 8.18412 23.5979 8.28412 23.3979 8.34012C23.1979 8.39612 23.0139 8.42412 22.8459 8.42412C22.0859 8.42412 21.4859 8.15212 21.0459 7.60812C20.6139 7.06412 20.3979 6.19612 20.3979 5.00412C20.3979 4.42812 20.4339 3.99612 20.5059 3.70812C20.5779 3.42012 20.6779 3.22412 20.8059 3.12012C20.9419 3.01612 21.0979 2.96412 21.2739 2.96412C21.4899 2.96412 21.6619 3.00812 21.7899 3.09612C21.9259 3.17612 22.0219 3.29212 22.0779 3.44412C22.1339 3.58812 22.1619 3.76412 22.1619 3.97212C22.1459 4.31612 22.1259 4.66012 22.1019 5.00412C22.0859 5.34812 22.0859 5.66012 22.1019 5.94012C22.1259 6.21212 22.1859 6.43212 22.2819 6.60012C22.3779 6.76812 22.5339 6.85212 22.7499 6.85212C23.0619 6.85212 23.3339 6.70812 23.5659 6.42012C23.7979 6.13212 23.9859 5.74412 24.1299 5.25612C24.2819 4.76012 24.3899 4.22012 24.4539 3.63612C24.4859 3.39612 24.5459 3.22812 24.6339 3.13212C24.7219 3.02812 24.8699 2.97612 25.0779 2.97612C25.2539 2.97612 25.4179 3.02412 25.5699 3.12012C25.7219 3.21612 25.8379 3.36412 25.9179 3.56412C26.0059 3.75612 26.0299 4.00812 25.9899 4.32012C25.9419 4.72012 25.9219 5.07612 25.9299 5.38812C25.9379 5.69212 25.9579 5.98012 25.9899 6.25212C26.0219 6.51612 26.0579 6.78812 26.0979 7.06812C26.1459 7.34012 26.1859 7.64812 26.2179 7.99212C26.2499 8.32812 26.2659 8.72412 26.2659 9.18012C26.2659 9.70812 26.1979 10.1641 26.0619 10.5481C25.9259 10.9401 25.7339 11.2601 25.4859 11.5081C25.2459 11.7561 24.9579 11.9401 24.6219 12.0601C24.2859 12.1881 23.9219 12.2521 23.5299 12.2521ZM29.5043 9.25212C29.3363 9.25212 29.1603 9.22812 28.9763 9.18012C28.8003 9.13212 28.6283 9.03212 28.4603 8.88012C28.2923 8.72812 28.1403 8.50812 28.0043 8.22012C27.8763 7.93212 27.7723 7.55212 27.6923 7.08012C27.6203 6.60812 27.5843 6.02012 27.5843 5.31612C27.5843 4.68412 27.5963 4.11212 27.6203 3.60012C27.6523 3.08012 27.6923 2.59212 27.7403 2.13612C27.7963 1.68012 27.8603 1.23212 27.9323 0.792117C27.9883 0.504117 28.0723 0.300117 28.1843 0.180116C28.2963 0.0601165 28.4523 0.000116587 28.6523 0.000116587C28.9083 0.000116587 29.1083 0.100117 29.2523 0.300117C29.3963 0.492117 29.4683 0.812117 29.4683 1.26012C29.4683 1.49212 29.4523 1.74412 29.4203 2.01612C29.3963 2.28012 29.3643 2.58012 29.3243 2.91612C29.2843 3.25212 29.2483 3.63612 29.2163 4.06812C29.1923 4.49212 29.1803 4.98812 29.1803 5.55612C29.1803 6.02012 29.1923 6.39612 29.2163 6.68412C29.2483 6.96412 29.2883 7.18012 29.3363 7.33212C29.3843 7.48412 29.4403 7.58812 29.5043 7.64412C29.5683 7.69212 29.6363 7.71612 29.7083 7.71612C29.7883 7.71612 29.8523 7.71212 29.9003 7.70412C29.9483 7.68812 29.9923 7.67612 30.0323 7.66812C30.0723 7.65212 30.1163 7.64412 30.1643 7.64412C30.3563 7.64412 30.4883 7.70412 30.5603 7.82412C30.6323 7.93612 30.6683 8.08012 30.6683 8.25612C30.6683 8.45612 30.6163 8.63212 30.5123 8.78412C30.4083 8.93612 30.2683 9.05212 30.0923 9.13212C29.9163 9.21212 29.7203 9.25212 29.5043 9.25212ZM39.2459 9.26412C39.0859 9.26412 38.9379 9.23612 38.8019 9.18012C38.6659 9.12412 38.5299 9.02012 38.3939 8.86812C38.2659 8.70812 38.1219 8.48412 37.9619 8.19612C37.6899 7.71612 37.4659 7.25212 37.2899 6.80412C37.1139 6.35612 36.9659 5.92412 36.8459 5.50812C36.7259 5.09212 36.6179 4.70412 36.5219 4.34412C36.4339 3.97612 36.3339 3.64012 36.2219 3.33612C36.1099 3.02412 35.9739 2.74812 35.8139 2.50812C35.6619 2.27612 35.5339 2.07212 35.4299 1.89612C35.3259 1.71212 35.2739 1.52012 35.2739 1.32012C35.2739 1.12812 35.3339 0.960117 35.4539 0.816117C35.5739 0.672117 35.7579 0.600117 36.0059 0.600117C36.1899 0.600117 36.3659 0.652117 36.5339 0.756117C36.7019 0.852117 36.8739 1.02812 37.0499 1.28412C37.2579 1.58812 37.4379 1.93212 37.5899 2.31612C37.7419 2.69212 37.8779 3.09212 37.9979 3.51612C38.1259 3.93212 38.2459 4.35212 38.3579 4.77612C38.4779 5.19212 38.6059 5.58812 38.7419 5.96412C38.8859 6.34012 39.0579 6.67212 39.2579 6.96012L38.8019 7.41612C39.1059 6.27212 39.4659 5.21612 39.8819 4.24812C40.3059 3.28012 40.7899 2.36412 41.3339 1.50012C41.5019 1.24412 41.6499 1.05212 41.7779 0.924117C41.9059 0.796117 42.0219 0.712116 42.1259 0.672117C42.2299 0.624117 42.3379 0.600117 42.4499 0.600117C42.6659 0.600117 42.8339 0.676117 42.9539 0.828117C43.0739 0.980117 43.1339 1.15612 43.1339 1.35612C43.1339 1.51612 43.1139 1.66412 43.0739 1.80012C43.0419 1.92812 42.9899 2.06412 42.9179 2.20812C42.8459 2.34412 42.7499 2.51212 42.6299 2.71212C42.3419 3.20012 42.0779 3.66412 41.8379 4.10412C41.5979 4.53612 41.3779 4.97212 41.1779 5.41212C40.9779 5.84412 40.7859 6.30412 40.6019 6.79212C40.4259 7.27212 40.2539 7.80012 40.0859 8.37612C39.9899 8.70412 39.8739 8.93612 39.7379 9.07212C39.6099 9.20012 39.4459 9.26412 39.2459 9.26412ZM46.6392 12.2521C46.0152 12.2521 45.5072 12.1921 45.1152 12.0721C44.7232 11.9521 44.4312 11.7841 44.2392 11.5681C44.0552 11.3521 43.9632 11.1041 43.9632 10.8241C43.9632 10.6321 44.0112 10.4841 44.1072 10.3801C44.2112 10.2761 44.3592 10.2241 44.5512 10.2241C44.6792 10.2241 44.7912 10.2441 44.8872 10.2841C44.9912 10.3321 45.1112 10.3841 45.2472 10.4401C45.3832 10.4961 45.5552 10.5441 45.7632 10.5841C45.9712 10.6321 46.2432 10.6561 46.5792 10.6561C46.8992 10.6561 47.1512 10.5961 47.3352 10.4761C47.5192 10.3561 47.6512 10.1841 47.7312 9.96012C47.8112 9.74412 47.8512 9.48412 47.8512 9.18012C47.8512 8.90812 47.8432 8.65612 47.8272 8.42412C47.8112 8.19212 47.7952 7.95612 47.7792 7.71612C47.7712 7.47612 47.7592 7.21612 47.7432 6.93612C47.7272 6.64812 47.7192 6.32012 47.7192 5.95212L48.2232 6.34812C48.0632 6.77212 47.8872 7.12412 47.6952 7.40412C47.5112 7.67612 47.3152 7.88812 47.1072 8.04012C46.9072 8.18412 46.7072 8.28412 46.5072 8.34012C46.3072 8.39612 46.1232 8.42412 45.9552 8.42412C45.4512 8.42412 45.0152 8.30812 44.6472 8.07612C44.2792 7.83612 43.9952 7.46412 43.7952 6.96012C43.6032 6.45612 43.5072 5.80412 43.5072 5.00412C43.5072 4.42812 43.5432 3.99612 43.6152 3.70812C43.6872 3.42012 43.7872 3.22412 43.9152 3.12012C44.0512 3.01612 44.2072 2.96412 44.3832 2.96412C44.5992 2.96412 44.7712 3.00812 44.8992 3.09612C45.0352 3.17612 45.1312 3.29212 45.1872 3.44412C45.2432 3.58812 45.2712 3.76412 45.2712 3.97212C45.2552 4.31612 45.2352 4.66012 45.2112 5.00412C45.1952 5.34812 45.1952 5.66012 45.2112 5.94012C45.2352 6.21212 45.2952 6.43212 45.3912 6.60012C45.4872 6.76812 45.6432 6.85212 45.8592 6.85212C46.1712 6.85212 46.4432 6.70812 46.6752 6.42012C46.9072 6.13212 47.0952 5.74412 47.2392 5.25612C47.3912 4.76012 47.4992 4.22012 47.5632 3.63612C47.5952 3.39612 47.6552 3.22812 47.7432 3.13212C47.8312 3.02812 47.9792 2.97612 48.1872 2.97612C48.3232 2.97612 48.4472 3.00412 48.5592 3.06012C48.6792 3.11612 48.7832 3.19612 48.8712 3.30012C48.9672 3.40412 49.0352 3.54012 49.0752 3.70812C49.1152 3.87612 49.1232 4.08012 49.0992 4.32012C49.0512 4.72012 49.0312 5.07612 49.0392 5.38812C49.0472 5.69212 49.0672 5.98012 49.0992 6.25212C49.1312 6.51612 49.1672 6.78812 49.2072 7.06812C49.2552 7.34012 49.2952 7.64812 49.3272 7.99212C49.3592 8.32812 49.3752 8.72412 49.3752 9.18012C49.3752 9.70812 49.3072 10.1641 49.1712 10.5481C49.0352 10.9401 48.8432 11.2601 48.5952 11.5081C48.3552 11.7561 48.0672 11.9401 47.7312 12.0601C47.3952 12.1881 47.0312 12.2521 46.6392 12.2521ZM51.7608 9.21612C51.4568 9.21612 51.2128 9.08012 51.0288 8.80812C50.8448 8.53612 50.7528 8.16412 50.7528 7.69212C50.7528 6.90812 50.7888 6.20412 50.8608 5.58012C50.9328 4.95612 51.0088 4.39212 51.0888 3.88812C51.1688 3.37612 51.2208 2.90812 51.2448 2.48412C51.2528 2.19612 51.2488 1.94812 51.2328 1.74012C51.2248 1.53212 51.2088 1.34412 51.1848 1.17612C51.1688 1.00012 51.1648 0.824117 51.1728 0.648117C51.1808 0.480117 51.2368 0.332117 51.3408 0.204117C51.4448 0.0681167 51.6168 0.000116587 51.8568 0.000116587C52.0808 0.000116587 52.2688 0.0721166 52.4208 0.216117C52.5728 0.352117 52.6848 0.588117 52.7568 0.924117C52.8368 1.25212 52.8648 1.69612 52.8408 2.25612C52.8088 2.64812 52.7568 3.07612 52.6848 3.54012C52.6128 4.00412 52.5448 4.52812 52.4808 5.11212C52.4248 5.68812 52.4008 6.34012 52.4088 7.06812L52.0488 6.50412C52.3928 5.65612 52.7208 4.96812 53.0328 4.44012C53.3528 3.91212 53.6728 3.52812 53.9928 3.28812C54.3128 3.04012 54.6328 2.91612 54.9528 2.91612C55.3688 2.91612 55.6888 3.03612 55.9128 3.27612C56.1448 3.51612 56.3168 3.86012 56.4288 4.30812C56.5488 4.74812 56.6408 5.28412 56.7048 5.91612C56.7528 6.36412 56.8048 6.72412 56.8608 6.99612C56.9248 7.26012 56.9888 7.47212 57.0528 7.63212C57.1248 7.78412 57.1968 7.92412 57.2688 8.05212C57.3088 8.12412 57.3408 8.20412 57.3648 8.29212C57.3968 8.38012 57.4128 8.46812 57.4128 8.55612C57.4128 8.76412 57.3448 8.93212 57.2088 9.06012C57.0808 9.18812 56.9008 9.25212 56.6688 9.25212C56.3888 9.25212 56.1568 9.15612 55.9728 8.96412C55.7888 8.77212 55.6408 8.51212 55.5288 8.18412C55.4168 7.85612 55.3368 7.48812 55.2888 7.08012C55.2408 6.60812 55.1928 6.22412 55.1448 5.92812C55.0968 5.62412 55.0448 5.37612 54.9888 5.18412C54.9328 4.99212 54.8648 4.82012 54.7848 4.66812C54.6408 4.71612 54.4448 4.90412 54.1968 5.23212C53.9488 5.56012 53.6768 6.01612 53.3808 6.60012C53.0848 7.18412 52.7888 7.88012 52.4928 8.68812C52.4048 8.89612 52.3048 9.03612 52.1928 9.10812C52.0808 9.18012 51.9368 9.21612 51.7608 9.21612ZM61.6806 9.26412C61.0086 9.26412 60.4126 9.12812 59.8926 8.85612C59.3806 8.58412 58.9766 8.20812 58.6806 7.72812C58.3926 7.24012 58.2486 6.68812 58.2486 6.07212C58.2486 5.64812 58.3326 5.25212 58.5006 4.88412C58.6766 4.50812 58.9006 4.18012 59.1726 3.90012C59.4446 3.61212 59.7366 3.38812 60.0486 3.22812C60.3606 3.06812 60.6566 2.98812 60.9366 2.98812C61.0566 2.98812 61.1646 3.00812 61.2606 3.04812C61.3646 3.08012 61.4486 3.13612 61.5126 3.21612C61.5766 3.29612 61.6086 3.40412 61.6086 3.54012C61.6086 3.78012 61.5566 3.99612 61.4526 4.18812C61.3566 4.37212 61.1526 4.52412 60.8406 4.64412C60.6406 4.74812 60.4646 4.87212 60.3126 5.01612C60.1606 5.16012 60.0406 5.32412 59.9526 5.50812C59.8646 5.69212 59.8206 5.88412 59.8206 6.08412C59.8206 6.60412 59.9846 7.02412 60.3126 7.34412C60.6406 7.65612 61.0766 7.81212 61.6206 7.81212C62.0846 7.81212 62.4606 7.65212 62.7486 7.33212C63.0366 7.01212 63.1806 6.58412 63.1806 6.04812C63.1806 5.57612 63.0566 5.20412 62.8086 4.93212C62.5686 4.65212 62.2406 4.51212 61.8246 4.51212C61.6166 4.51212 61.4446 4.56012 61.3086 4.65612C61.1806 4.75212 61.0366 4.88012 60.8766 5.04012C60.7566 5.16012 60.6566 5.26012 60.5766 5.34012C60.5046 5.42012 60.4286 5.48012 60.3486 5.52012C60.2686 5.56012 60.1686 5.58012 60.0486 5.58012C59.9206 5.58012 59.8086 5.53212 59.7126 5.43612C59.6166 5.34012 59.5686 5.16012 59.5686 4.89612C59.5686 4.68012 59.6286 4.46412 59.7486 4.24812C59.8686 4.02412 60.0286 3.82412 60.2286 3.64812C60.4366 3.46412 60.6646 3.31612 60.9126 3.20412C61.1606 3.09212 61.4166 3.03612 61.6806 3.03612C62.3206 3.03612 62.8686 3.16012 63.3246 3.40812C63.7886 3.64812 64.1406 3.99212 64.3806 4.44012C64.6286 4.88012 64.7526 5.40812 64.7526 6.02412C64.7526 6.64012 64.6166 7.19212 64.3446 7.68012C64.0726 8.16812 63.7046 8.55612 63.2406 8.84412C62.7846 9.12412 62.2646 9.26412 61.6806 9.26412ZM68.5934 9.24012C68.3854 9.24012 68.2054 9.18412 68.0534 9.07212C67.9014 8.95212 67.7414 8.76412 67.5734 8.50812C67.4534 8.32412 67.3254 8.08812 67.1894 7.80012C67.0614 7.50412 66.9294 7.18812 66.7934 6.85212C66.6654 6.51612 66.5494 6.20812 66.4454 5.92812C66.2934 5.53612 66.1534 5.21612 66.0254 4.96812C65.9054 4.72012 65.8054 4.51612 65.7254 4.35612C65.6454 4.18812 65.5814 4.04412 65.5334 3.92412C65.4934 3.79612 65.4734 3.65612 65.4734 3.50412C65.4734 3.35212 65.5254 3.22412 65.6294 3.12012C65.7334 3.01612 65.8974 2.96412 66.1214 2.96412C66.3694 2.96412 66.5774 3.02812 66.7454 3.15612C66.9134 3.28412 67.0614 3.45612 67.1894 3.67212C67.3254 3.88812 67.4454 4.13612 67.5494 4.41612C67.6694 4.73612 67.7894 5.07212 67.9094 5.42412C68.0374 5.77612 68.1694 6.12412 68.3054 6.46812C68.4494 6.81212 68.5934 7.13212 68.7374 7.42812L68.2934 7.36812C68.4934 6.96812 68.6734 6.59212 68.8334 6.24012C69.0014 5.88012 69.1654 5.53612 69.3254 5.20812C69.4934 4.87212 69.6734 4.55212 69.8654 4.24812C70.0574 3.93612 70.2814 3.62812 70.5374 3.32412C70.6414 3.19612 70.7494 3.10412 70.8614 3.04812C70.9734 2.99212 71.1054 2.96412 71.2574 2.96412C71.3854 2.96412 71.4974 3.00012 71.5934 3.07212C71.6974 3.14412 71.7774 3.24012 71.8334 3.36012C71.8894 3.47212 71.9174 3.59212 71.9174 3.72012C71.9174 3.85612 71.8974 3.98812 71.8574 4.11612C71.8174 4.24412 71.7654 4.36012 71.7014 4.46412C71.4294 4.83212 71.1934 5.17612 70.9934 5.49612C70.7934 5.80812 70.6054 6.12412 70.4294 6.44412C70.2534 6.76412 70.0774 7.10812 69.9014 7.47612C69.7254 7.84412 69.5294 8.26012 69.3134 8.72412C69.2174 8.90812 69.1174 9.04012 69.0134 9.12012C68.9094 9.20012 68.7694 9.24012 68.5934 9.24012ZM74.4506 9.24012C74.0026 9.24012 73.6346 9.18412 73.3466 9.07212C73.0586 8.95212 72.8466 8.79612 72.7106 8.60412C72.5746 8.41212 72.5066 8.21212 72.5066 8.00412C72.5066 7.84412 72.5546 7.71612 72.6506 7.62012C72.7466 7.51612 72.8906 7.46412 73.0826 7.46412C73.1786 7.46412 73.2666 7.48012 73.3466 7.51212C73.4346 7.54412 73.5266 7.58412 73.6226 7.63212C73.7186 7.67212 73.8306 7.70812 73.9586 7.74012C74.0946 7.77212 74.2586 7.78812 74.4506 7.78812C74.9146 7.78812 75.2986 7.74012 75.6026 7.64412C75.9146 7.54012 76.1386 7.38412 76.2746 7.17612C76.2026 7.04812 76.0666 6.94812 75.8666 6.87612C75.6666 6.80412 75.4346 6.74012 75.1706 6.68412C74.9066 6.62812 74.6306 6.56412 74.3426 6.49212C74.0626 6.42012 73.8026 6.32812 73.5626 6.21612C73.3226 6.10412 73.1266 5.95212 72.9746 5.76012C72.8226 5.56012 72.7466 5.30412 72.7466 4.99212C72.7466 4.64812 72.8426 4.34812 73.0346 4.09212C73.2266 3.83612 73.4786 3.62412 73.7906 3.45612C74.1106 3.28012 74.4586 3.15212 74.8346 3.07212C75.2186 2.99212 75.5986 2.95212 75.9746 2.95212C76.4146 2.96012 76.7386 3.06412 76.9466 3.26412C77.1626 3.46412 77.2706 3.69212 77.2706 3.94812C77.2706 4.12412 77.2226 4.26412 77.1266 4.36812C77.0386 4.47212 76.9146 4.52412 76.7546 4.52412C76.6666 4.52412 76.5866 4.52012 76.5146 4.51212C76.4426 4.50412 76.3626 4.49612 76.2746 4.48812C76.1946 4.47212 76.0866 4.46412 75.9506 4.46412C75.5426 4.46412 75.1866 4.51612 74.8826 4.62012C74.5866 4.72412 74.3586 4.87212 74.1986 5.06412C74.2546 5.19212 74.3786 5.29212 74.5706 5.36412C74.7706 5.43612 75.0066 5.50012 75.2786 5.55612C75.5586 5.61212 75.8426 5.67612 76.1306 5.74812C76.4266 5.81212 76.6986 5.90012 76.9466 6.01212C77.2026 6.12412 77.4106 6.27612 77.5706 6.46812C77.7306 6.65212 77.8106 6.89612 77.8106 7.20012C77.8106 7.68012 77.6586 8.07212 77.3546 8.37612C77.0586 8.67212 76.6546 8.89212 76.1426 9.03612C75.6386 9.17212 75.0746 9.24012 74.4506 9.24012ZM84.4081 9.20412C84.1281 9.20412 83.8081 9.14812 83.4481 9.03612C83.0961 8.91612 82.7401 8.75612 82.3801 8.55612C82.0281 8.34812 81.7041 8.12412 81.4081 7.88412C81.1121 7.63612 80.8721 7.38012 80.6881 7.11612C80.5041 6.85212 80.4121 6.60412 80.4121 6.37212C80.4121 6.06812 80.5041 5.75612 80.6881 5.43612C80.8801 5.10812 81.1241 4.80012 81.4201 4.51212C81.7241 4.21612 82.0481 3.95212 82.3921 3.72012C82.7361 3.48012 83.0681 3.29212 83.3881 3.15612C83.7081 3.02012 83.9801 2.95212 84.2041 2.95212C84.4681 2.95212 84.6761 3.01612 84.8281 3.14412C84.9801 3.26412 85.0561 3.44812 85.0561 3.69612C85.0561 3.89612 85.0001 4.06012 84.8881 4.18812C84.7761 4.31612 84.5681 4.42812 84.2641 4.52412C83.9681 4.62812 83.6881 4.75612 83.4241 4.90812C83.1681 5.05212 82.9401 5.20412 82.7401 5.36412C82.5401 5.51612 82.3841 5.66412 82.2721 5.80812C82.1601 5.95212 82.1041 6.06812 82.1041 6.15612C82.1041 6.26012 82.1761 6.40012 82.3201 6.57612C82.4721 6.75212 82.7121 6.93612 83.0401 7.12812C83.3681 7.31212 83.8001 7.47612 84.3361 7.62012C84.6401 7.70012 84.8481 7.82012 84.9601 7.98012C85.0801 8.14012 85.1401 8.30812 85.1401 8.48412C85.1401 8.70012 85.0761 8.87612 84.9481 9.01212C84.8281 9.14012 84.6481 9.20412 84.4081 9.20412ZM79.9441 9.24012C79.7841 9.24012 79.6281 9.19612 79.4761 9.10812C79.3241 9.01212 79.2001 8.84412 79.1041 8.60412C79.0081 8.36412 78.9601 8.02012 78.9601 7.57212C78.9601 7.26012 78.9881 6.84812 79.0441 6.33612C79.1001 5.82412 79.1641 5.25212 79.2361 4.62012C79.3081 3.98812 79.3641 3.34012 79.4041 2.67612C79.4281 2.34812 79.4401 2.08012 79.4401 1.87212C79.4481 1.66412 79.4521 1.49212 79.4521 1.35612C79.4521 1.22012 79.4481 1.10412 79.4401 1.00812C79.4321 0.912117 79.4321 0.812117 79.4401 0.708117C79.4481 0.492117 79.5121 0.320117 79.6321 0.192117C79.7601 0.0641167 79.9321 0.000116587 80.1481 0.000116587C80.3721 0.000116587 80.5521 0.0801167 80.6881 0.240117C80.8241 0.400117 80.9161 0.668117 80.9641 1.04412C81.0201 1.42012 81.0281 1.93212 80.9881 2.58012C80.9481 2.99612 80.9041 3.37612 80.8561 3.72012C80.8161 4.05612 80.7761 4.36812 80.7361 4.65612C80.6961 4.94412 80.6561 5.21612 80.6161 5.47212C80.5841 5.72812 80.5561 5.98012 80.5321 6.22812C80.5161 6.47612 80.5081 6.73212 80.5081 6.99612C80.5081 7.30812 80.5161 7.58012 80.5321 7.81212C80.5561 8.03612 80.5681 8.27212 80.5681 8.52012C80.5681 8.76812 80.5121 8.95212 80.4001 9.07212C80.2961 9.18412 80.1441 9.24012 79.9441 9.24012ZM89.2486 12.2521C88.6246 12.2521 88.1166 12.1921 87.7246 12.0721C87.3326 11.9521 87.0406 11.7841 86.8486 11.5681C86.6646 11.3521 86.5726 11.1041 86.5726 10.8241C86.5726 10.6321 86.6206 10.4841 86.7166 10.3801C86.8206 10.2761 86.9686 10.2241 87.1606 10.2241C87.2886 10.2241 87.4006 10.2441 87.4966 10.2841C87.6006 10.3321 87.7206 10.3841 87.8566 10.4401C87.9926 10.4961 88.1646 10.5441 88.3726 10.5841C88.5806 10.6321 88.8526 10.6561 89.1886 10.6561C89.5086 10.6561 89.7606 10.5961 89.9446 10.4761C90.1286 10.3561 90.2606 10.1841 90.3406 9.96012C90.4206 9.74412 90.4606 9.48412 90.4606 9.18012C90.4606 8.90812 90.4526 8.65612 90.4366 8.42412C90.4206 8.19212 90.4046 7.95612 90.3886 7.71612C90.3806 7.47612 90.3686 7.21612 90.3526 6.93612C90.3366 6.64812 90.3286 6.32012 90.3286 5.95212L90.8326 6.34812C90.6726 6.77212 90.4966 7.12412 90.3046 7.40412C90.1206 7.67612 89.9246 7.88812 89.7166 8.04012C89.5166 8.18412 89.3166 8.28412 89.1166 8.34012C88.9166 8.39612 88.7326 8.42412 88.5646 8.42412C88.0606 8.42412 87.6246 8.30812 87.2566 8.07612C86.8886 7.83612 86.6046 7.46412 86.4046 6.96012C86.2126 6.45612 86.1166 5.80412 86.1166 5.00412C86.1166 4.42812 86.1526 3.99612 86.2246 3.70812C86.2966 3.42012 86.3966 3.22412 86.5246 3.12012C86.6606 3.01612 86.8166 2.96412 86.9926 2.96412C87.2086 2.96412 87.3806 3.00812 87.5086 3.09612C87.6446 3.17612 87.7406 3.29212 87.7966 3.44412C87.8526 3.58812 87.8806 3.76412 87.8806 3.97212C87.8646 4.31612 87.8446 4.66012 87.8206 5.00412C87.8046 5.34812 87.8046 5.66012 87.8206 5.94012C87.8446 6.21212 87.9046 6.43212 88.0006 6.60012C88.0966 6.76812 88.2526 6.85212 88.4686 6.85212C88.7806 6.85212 89.0526 6.70812 89.2846 6.42012C89.5166 6.13212 89.7046 5.74412 89.8486 5.25612C90.0006 4.76012 90.1086 4.22012 90.1726 3.63612C90.2046 3.39612 90.2646 3.22812 90.3526 3.13212C90.4406 3.02812 90.5886 2.97612 90.7966 2.97612C90.9326 2.97612 91.0566 3.00412 91.1686 3.06012C91.2886 3.11612 91.3926 3.19612 91.4806 3.30012C91.5766 3.40412 91.6446 3.54012 91.6846 3.70812C91.7246 3.87612 91.7326 4.08012 91.7086 4.32012C91.6606 4.72012 91.6406 5.07612 91.6486 5.38812C91.6566 5.69212 91.6766 5.98012 91.7086 6.25212C91.7406 6.51612 91.7766 6.78812 91.8166 7.06812C91.8646 7.34012 91.9046 7.64812 91.9366 7.99212C91.9686 8.32812 91.9846 8.72412 91.9846 9.18012C91.9846 9.70812 91.9166 10.1641 91.7806 10.5481C91.6446 10.9401 91.4526 11.2601 91.2046 11.5081C90.9646 11.7561 90.6766 11.9401 90.3406 12.0601C90.0046 12.1881 89.6406 12.2521 89.2486 12.2521ZM94.3359 9.24012C94.1359 9.24012 93.9719 9.19612 93.8439 9.10812C93.7159 9.02012 93.6199 8.89212 93.5559 8.72412C93.4999 8.55612 93.4719 8.36812 93.4719 8.16012C93.4719 7.60812 93.4679 7.14012 93.4599 6.75612C93.4599 6.37212 93.4559 6.04012 93.4479 5.76012C93.4479 5.47212 93.4439 5.20412 93.4359 4.95612C93.4359 4.70812 93.4359 4.44412 93.4359 4.16412C93.4359 3.94812 93.4679 3.75612 93.5319 3.58812C93.5959 3.41212 93.7039 3.27212 93.8559 3.16812C94.0079 3.06412 94.1999 3.01212 94.4319 3.01212C94.6719 3.01212 94.8639 3.09212 95.0079 3.25212C95.1599 3.41212 95.2399 3.66012 95.2479 3.99612C95.2479 4.16412 95.2439 4.39612 95.2359 4.69212C95.2279 4.98012 95.2159 5.30412 95.1999 5.66412C95.1919 6.02412 95.1839 6.38412 95.1759 6.74412C95.1679 7.09612 95.1599 7.42412 95.1519 7.72812C95.1439 8.03212 95.1399 8.27212 95.1399 8.44812C95.1399 8.68012 95.0759 8.87212 94.9479 9.02412C94.8199 9.16812 94.6159 9.24012 94.3359 9.24012ZM94.4799 2.17212C94.1039 2.17212 93.7999 2.07212 93.5679 1.87212C93.3359 1.67212 93.2199 1.42812 93.2199 1.14012C93.2199 0.852117 93.3199 0.628117 93.5199 0.468117C93.7199 0.300117 93.9759 0.216117 94.2879 0.216117C94.5359 0.216117 94.7439 0.272117 94.9119 0.384117C95.0879 0.496117 95.2199 0.636117 95.3079 0.804117C95.3959 0.964117 95.4399 1.13212 95.4399 1.30812C95.4399 1.50812 95.3639 1.70412 95.2119 1.89612C95.0679 2.08012 94.8239 2.17212 94.4799 2.17212Z" fill="black"/>
</svg>
